<?xml version="1.0" encoding="utf-8"?>
<!-- Generator: Adobe Illustrator 27.7.0, SVG Export Plug-In . SVG Version: 6.00 Build 0)  -->
<svg version="1.1" id="Layer_1" xmlns="http://www.w3.org/2000/svg" xmlns:xlink="http://www.w3.org/1999/xlink" x="0px" y="0px"
	 viewBox="0 0 80 70" style="enable-background:new 0 0 80 70;" xml:space="preserve">
<style type="text/css">
	.st0{fill:#FFFFFF;}
</style>
<g>
	<path class="st0" d="M70.4,50.1c0,11.5-9.1,18.1-26.5,18.1H9.6V1.9H42c16.6,0,25.1,6.9,25.1,17.2c0,6.6-3.4,11.7-8.8,14.6
		C65.7,36,70.4,41.7,70.4,50.1z M24.8,13.4V29h15.2c7.5,0,11.6-2.7,11.6-7.9s-4.1-7.8-11.6-7.8H24.8z M55,48.4
		c0-5.6-4.3-8.2-12.2-8.2H24.8v16.4h17.9C50.7,56.6,55,54.1,55,48.4z"/>
</g>
</svg>
