<?xml version="1.0" encoding="utf-8"?>
<!-- Generator: Adobe Illustrator 28.0.0, SVG Export Plug-In . SVG Version: 6.00 Build 0)  -->
<svg version="1.1" id="Layer_1" xmlns="http://www.w3.org/2000/svg" xmlns:xlink="http://www.w3.org/1999/xlink" x="0px" y="0px"
	 viewBox="0 0 36 36" style="enable-background:new 0 0 36 36;" xml:space="preserve">
<style type="text/css">
	.st0{fill:#00C6FF;}
	.st1{fill:#04246B;}
	.st2{fill-rule:evenodd;clip-rule:evenodd;fill:#00FFFF;}
</style>
<g>
	<path class="st0" d="M18,0.2C8.2,0.2,0.2,8.2,0.2,18s8,17.8,17.8,17.8s17.8-8,17.8-17.8S27.8,0.2,18,0.2z"/>
	<path class="st1" d="M18,32.5C10,32.5,3.5,26,3.5,18S10,3.5,18,3.5S32.5,10.1,32.5,18S26,32.5,18,32.5z"/>
</g>
<path class="st2" d="M16,11.3c0-0.6,0.2-1.1,0.6-1.5s0.9-0.6,1.5-0.6s1.1,0.2,1.5,0.6c0.4,0.4,0.6,0.9,0.6,1.5s-0.2,1.1-0.6,1.5
	s-0.9,0.6-1.5,0.6s-1.1-0.2-1.5-0.6C16.3,12.4,16,11.9,16,11.3L16,11.3L16,11.3z M14.3,17.5v-2.8H20V24h1.8v2.8h-7.5V24H16v-6.5
	L14.3,17.5L14.3,17.5z"/>
</svg>
