<?xml version="1.0" encoding="utf-8"?>
<!-- Generator: Adobe Illustrator 27.7.0, SVG Export Plug-In . SVG Version: 6.00 Build 0)  -->
<svg version="1.1" id="Layer_1" xmlns="http://www.w3.org/2000/svg" xmlns:xlink="http://www.w3.org/1999/xlink" x="0px" y="0px"
	 viewBox="0 0 322 322" style="enable-background:new 0 0 322 322;" xml:space="preserve">
<style type="text/css">
	.st0{fill:#FFFFFF;}
	.st1{fill:#48578E;}
</style>
<g>
	<path class="st0" d="M274,48.1c-62.4-62.4-163.5-62.4-225.9,0s-62.4,163.5,0,225.9c54.9,54.9,140,61.5,202.1,19.6l57.3,13.8
		l-13.8-57.3C335.4,188,328.9,103,274,48.1z"/>
	<path class="st1" d="M235.1,235.1c-36.1,36.1-91.8,40.3-132.6,12.9l-37.6,9.1l9.1-37.6c-27.5-40.8-23.2-96.5,12.9-132.6
		c40.9-40.9,107.3-40.9,148.2,0C276,127.8,276,194.2,235.1,235.1z"/>
</g>
</svg>
