<svg version="1.1" id="Layer_1" xmlns="http://www.w3.org/2000/svg" xmlns:xlink="http://www.w3.org/1999/xlink" x="0px" y="0px" viewBox="0 0 118 118" style="enable-background:new 0 0 118 118;" xml:space="preserve">
    <g>
        <path fill="#FFFFFF" d="M97.9,17.5H21.6c-6.7,0-14.4,6-14.4,11.7v46.2c0,5.3,6.5,9.1,12.8,9.7L16,100.5l26.2-15.4h55.8
            c6.7,0,12.9-4.1,12.9-9.8V38v-8.8C110.8,23.4,104.6,17.5,97.9,17.5z M33.3,56.5c-3.8,0-6.9-3.1-6.9-6.9c0-3.8,3.1-6.9,6.9-6.9
            c3.8,0,6.9,3.1,6.9,6.9C40.2,53.4,37.1,56.5,33.3,56.5z M59,56.5c-3.8,0-6.9-3.1-6.9-6.9c0-3.8,3.1-6.9,6.9-6.9s6.9,3.1,6.9,6.9
            C65.9,53.4,62.8,56.5,59,56.5z M84.7,56.5c-3.8,0-6.9-3.1-6.9-6.9c0-3.8,3.1-6.9,6.9-6.9c3.8,0,6.9,3.1,6.9,6.9
            C91.6,53.4,88.5,56.5,84.7,56.5z"/>
    </g>
</svg>