<?xml version="1.0" encoding="utf-8"?>
<!-- Generator: Adobe Illustrator 27.2.0, SVG Export Plug-In . SVG Version: 6.00 Build 0)  -->
<svg version="1.1" id="Layer_1" xmlns="http://www.w3.org/2000/svg" xmlns:xlink="http://www.w3.org/1999/xlink" x="0px" y="0px"
	 viewBox="0 0 80 70" style="enable-background:new 0 0 80 70;" xml:space="preserve">
<style type="text/css">
	.st0{fill:#FFFFFF;}
</style>
<path class="st0" d="M75.6,32.8c0,15.9-15.9,28.9-35.5,28.9c-5.1,0-10-0.9-14.4-2.5c-1.7,1.2-4.3,2.9-7.5,4.2
	c-3.3,1.4-7.3,2.7-11.3,2.7c-0.9,0-1.7-0.5-2.1-1.4c-0.3-0.8-0.2-1.8,0.5-2.4l0,0l0,0l0,0l0,0l0,0c0,0,0.1-0.1,0.2-0.2
	c0.2-0.2,0.4-0.4,0.7-0.8c0.6-0.7,1.3-1.7,2.1-3c1.4-2.3,2.7-5.3,3-8.7C7,44.8,4.6,39,4.6,32.8c0-15.9,15.9-28.9,35.5-28.9
	S75.6,16.8,75.6,32.8z"/>
</svg>
