<?xml version="1.0" encoding="utf-8"?>
<!-- Generator: Adobe Illustrator 26.5.0, SVG Export Plug-In . SVG Version: 6.00 Build 0)  -->
<svg version="1.1" id="Layer_1" xmlns="http://www.w3.org/2000/svg" xmlns:xlink="http://www.w3.org/1999/xlink" x="0px" y="0px"
	 viewBox="0 0 52 52" style="enable-background:new 0 0 52 52;" xml:space="preserve">
<style type="text/css">
	.st0{fill:#FFFFFF;}
</style>
<path id="XMLID_00000122709258427765528140000005875538433735030161_" class="st0" d="M14,16H2.5c-1.1,0-2-0.9-2-2V2.5
	c0-1.1,0.9-2,2-2H14c1.1,0,2,0.9,2,2V14C16,15.1,15.1,16,14,16z"/>
<path id="XMLID_00000054944114451021005790000002859916868888920466_" class="st0" d="M31.7,16H20.3c-1.1,0-2-0.9-2-2V2.5
	c0-1.1,0.9-2,2-2h11.4c1.1,0,2,0.9,2,2V14C33.7,15.1,32.8,16,31.7,16z"/>
<path id="XMLID_00000129195122450447381380000012997495299047171758_" class="st0" d="M49.5,16H38c-1.1,0-2-0.9-2-2V2.5
	c0-1.1,0.9-2,2-2h11.4c1.1,0,2,0.9,2,2V14C51.5,15.1,50.6,16,49.5,16z"/>
<path id="XMLID_00000041296367171666307720000017484735365883717511_" class="st0" d="M14,33.7H2.5c-1.1,0-2-0.9-2-2V20.3
	c0-1.1,0.9-2,2-2H14c1.1,0,2,0.9,2,2v11.4C16,32.8,15.1,33.7,14,33.7z"/>
<path id="XMLID_00000095297225128754978380000016875037224136759472_" class="st0" d="M31.7,33.7H20.3c-1.1,0-2-0.9-2-2V20.3
	c0-1.1,0.9-2,2-2h11.4c1.1,0,2,0.9,2,2v11.4C33.7,32.8,32.8,33.7,31.7,33.7z"/>
<path id="XMLID_00000008832746300005514890000014434948342232514725_" class="st0" d="M49.5,33.7H38c-1.1,0-2-0.9-2-2V20.3
	c0-1.1,0.9-2,2-2h11.4c1.1,0,2,0.9,2,2v11.4C51.5,32.8,50.6,33.7,49.5,33.7z"/>
<path id="XMLID_00000037678601430010326630000005585576382673423244_" class="st0" d="M14,51.5H2.5c-1.1,0-2-0.9-2-2V38
	c0-1.1,0.9-2,2-2H14c1.1,0,2,0.9,2,2v11.4C16,50.6,15.1,51.5,14,51.5z"/>
<path id="XMLID_00000183219319159042194790000017794518270171950502_" class="st0" d="M31.7,51.5H20.3c-1.1,0-2-0.9-2-2V38
	c0-1.1,0.9-2,2-2h11.4c1.1,0,2,0.9,2,2v11.4C33.7,50.6,32.8,51.5,31.7,51.5z"/>
<path id="XMLID_00000018932410227277983720000006829758193218714509_" class="st0" d="M49.5,51.5H38c-1.1,0-2-0.9-2-2V38
	c0-1.1,0.9-2,2-2h11.4c1.1,0,2,0.9,2,2v11.4C51.5,50.6,50.6,51.5,49.5,51.5z"/>
</svg>
