<?xml version="1.0" encoding="utf-8"?>
<!-- Generator: Adobe Illustrator 27.2.0, SVG Export Plug-In . SVG Version: 6.00 Build 0)  -->
<svg version="1.1" id="Layer_1" xmlns="http://www.w3.org/2000/svg" xmlns:xlink="http://www.w3.org/1999/xlink" x="0px" y="0px"
	 viewBox="0 0 80 70" style="enable-background:new 0 0 80 70;" xml:space="preserve">
<style type="text/css">
	.st0{fill-rule:evenodd;clip-rule:evenodd;fill:#FFFFFF;}
</style>
<path class="st0" d="M71.3,7c-8.6-8.5-22.6-8.5-31.1,0L40,7.2L39.8,7C31.3-1.5,17.3-1.5,8.7,7c-8.5,8.6-8.5,22.6,0,31.1l0.1,0.1
	L40,69.4l31.1-31.1l0.2-0.1C79.8,29.6,79.8,15.6,71.3,7z M63.7,30.5L40,54.1L16.3,30.5c-2.1-2.1-3.2-4.9-3.2-7.9
	c0-3,1.2-5.8,3.3-7.9c2.1-2.1,4.9-3.3,7.9-3.3s5.8,1.2,7.9,3.3l7.9,7.9l7.8-7.9c2.1-2.1,4.9-3.2,7.9-3.2c3,0,5.8,1.2,8,3.3
	c2.1,2.1,3.2,4.9,3.2,7.9C66.9,25.6,65.8,28.4,63.7,30.5z"/>
</svg>
