<?xml version="1.0" encoding="utf-8"?>
<!-- Generator: Adobe Illustrator 27.7.0, SVG Export Plug-In . SVG Version: 6.00 Build 0)  -->
<svg version="1.1" id="Layer_1" xmlns="http://www.w3.org/2000/svg" xmlns:xlink="http://www.w3.org/1999/xlink" x="0px" y="0px"
	 viewBox="0 0 640 424" style="enable-background:new 0 0 640 424;" xml:space="preserve">
<style type="text/css">
	.st0{fill:#FFFFFF;}
	.st1{fill:#313B5F;}
	.st2{fill:#000C38;}
	.st3{opacity:0.6;fill:#FFFFFF;}
	.st4{fill:#222D53;stroke:#313B5F;stroke-width:2;stroke-miterlimit:10;}
	.st5{fill:#000C38;stroke:#313B5F;stroke-width:2;stroke-miterlimit:10;}
	.st6{fill:#9196A9;}
	.st7{fill-rule:evenodd;clip-rule:evenodd;fill:#9196A9;}
	.st8{fill:#66CC00;}
</style>
<g>
	<g>
		<g>
			<path class="st0" d="M27.99,1.82C13.71,1.82,2.14,13.4,2.14,27.67v345.37c0,14.28,11.57,25.85,25.85,25.85h512.12
				c14.28,0,25.85-11.57,25.85-25.85V27.67c0-14.28-11.57-25.85-25.85-25.85H27.99z"/>
			<path class="st1" d="M27.99,383.06c-5.52,0-10.01-4.49-10.01-10.01V27.67c0-5.52,4.49-10.01,10.01-10.01h512.12
				c5.52,0,10.01,4.49,10.01,10.01v345.37c0,5.52-4.49,10.01-10.01,10.01H27.99z"/>
		</g>
	</g>
</g>
<path class="st2" d="M550.12,50.38H17.98V27.6c0-5.49,4.45-9.93,9.93-9.93h512.27c5.49,0,9.93,4.45,9.93,9.93V50.38z"/>
<g>
	<path class="st2" d="M540.17,383.06H27.92c-5.49,0-9.95-4.45-9.95-9.95v-6.3h532.14v6.3C550.12,378.6,545.66,383.06,540.17,383.06z
		"/>
	<circle class="st3" cx="287.97" cy="374.7" r="3.78"/>
	<circle class="st3" cx="280.42" cy="374.7" r="3.78"/>
	<circle class="st3" cx="284.2" cy="374.7" r="3.78"/>
	<path class="st3" d="M286.08,371.42c-1.13,0.65-1.89,1.87-1.89,3.27c0,1.4,0.76,2.62,1.89,3.27c1.13-0.65,1.89-1.92,1.89-3.27
		C287.97,373.29,287.22,372.07,286.08,371.42z"/>
	<path class="st3" d="M282.31,371.42c-1.13,0.65-1.89,1.87-1.89,3.27c0,1.4,0.76,2.62,1.89,3.27c1.13-0.65,1.89-1.92,1.89-3.27
		C284.2,373.29,283.44,372.07,282.31,371.42z"/>
</g>
<g>
	<g>
		<path class="st0" d="M255.62,37.52c-0.58,0.62-1.28,0.9-2.24,0.9h-2.93v-8.54h2.93c0.96,0,1.67,0.28,2.24,0.9
			c0.76,0.82,0.76,2.06,0.76,3.37S256.37,36.7,255.62,37.52z M254.9,31.31c-0.43-0.48-1.03-0.62-1.68-0.62h-1.86v6.91h1.86
			c0.65,0,1.25-0.14,1.68-0.62c0.55-0.59,0.56-1.64,0.56-2.83S255.45,31.9,254.9,31.31z"/>
		<path class="st0" d="M263.38,38.42l-0.68-1.93h-3.73l-0.68,1.93h-0.97l3.14-8.54h0.77l3.13,8.54H263.38z M260.85,31.18l-1.61,4.51
			h3.19L260.85,31.18z"/>
		<path class="st0" d="M267.93,38.49c-1.27,0-2.12-0.32-2.91-1.13l0.61-0.61c0.71,0.71,1.37,0.92,2.33,0.92
			c1.26,0,2.03-0.58,2.03-1.58c0-0.46-0.13-0.82-0.42-1.07c-0.26-0.24-0.5-0.32-1.12-0.42l-1-0.14c-0.67-0.11-1.18-0.31-1.56-0.65
			c-0.43-0.38-0.66-0.91-0.66-1.61c0-1.45,1.04-2.4,2.73-2.4c1.09,0,1.81,0.29,2.54,0.94l-0.59,0.59c-0.52-0.49-1.1-0.74-1.99-0.74
			c-1.15,0-1.81,0.64-1.81,1.6c0,0.42,0.12,0.77,0.38,1s0.67,0.37,1.12,0.44l1,0.16c0.79,0.12,1.16,0.26,1.55,0.61
			c0.46,0.4,0.72,0.97,0.72,1.68C270.88,37.56,269.72,38.49,267.93,38.49z"/>
		<path class="st0" d="M277.76,38.42v-3.9h-4.05v3.9h-0.91v-8.54h0.91v3.83h4.05v-3.83h0.91v8.54H277.76z"/>
		<path class="st0" d="M284.47,38.42h-3.32v-8.54h3.21c1.49,0,2.52,0.85,2.52,2.28c0,0.9-0.54,1.61-1.26,1.87
			c0.82,0.3,1.39,1.01,1.39,2.03C287.01,37.6,285.98,38.42,284.47,38.42z M284.29,30.69h-2.23v2.96h2.23c0.95,0,1.68-0.47,1.68-1.49
			C285.96,31.15,285.23,30.69,284.29,30.69z M284.38,34.47h-2.33v3.13h2.33c1.06,0,1.71-0.61,1.71-1.57
			C286.1,35.07,285.44,34.47,284.38,34.47z"/>
		<path class="st0" d="M293.94,37.65c-0.53,0.53-1.24,0.84-2.12,0.84c-0.89,0-1.61-0.31-2.13-0.84c-0.8-0.8-0.85-1.55-0.85-3.5
			s0.05-2.7,0.85-3.5c0.53-0.53,1.25-0.84,2.13-0.84c0.89,0,1.6,0.31,2.12,0.84c0.8,0.8,0.86,1.55,0.86,3.5
			S294.75,36.84,293.94,37.65z M293.3,31.22c-0.4-0.4-0.9-0.6-1.48-0.6s-1.08,0.2-1.48,0.6c-0.54,0.55-0.6,1.18-0.6,2.93
			s0.06,2.38,0.6,2.93c0.4,0.4,0.9,0.6,1.48,0.6s1.08-0.2,1.48-0.6c0.54-0.55,0.6-1.18,0.6-2.93S293.84,31.77,293.3,31.22z"/>
		<path class="st0" d="M301.82,38.42l-0.68-1.93h-3.73l-0.68,1.93h-0.97l3.14-8.54h0.77l3.13,8.54H301.82z M299.29,31.18l-1.61,4.51
			h3.19L299.29,31.18z"/>
		<path class="st0" d="M309.08,38.42l-1.94-3.79h-2.05v3.79h-0.91v-8.54h3.27c1.49,0,2.53,0.9,2.53,2.37c0,1.25-0.76,2.06-1.86,2.29
			l2.03,3.87H309.08z M307.36,30.69h-2.28v3.13h2.28c1,0,1.7-0.52,1.7-1.56C309.06,31.22,308.36,30.69,307.36,30.69z"/>
		<path class="st0" d="M317.21,37.52c-0.58,0.62-1.28,0.9-2.24,0.9h-2.93v-8.54h2.93c0.96,0,1.67,0.28,2.24,0.9
			c0.76,0.82,0.76,2.06,0.76,3.37S317.97,36.7,317.21,37.52z M316.49,31.31c-0.43-0.48-1.03-0.62-1.68-0.62h-1.86v6.91h1.86
			c0.65,0,1.25-0.14,1.68-0.62c0.55-0.59,0.56-1.64,0.56-2.83S317.04,31.9,316.49,31.31z"/>
	</g>
</g>
<g>
	<path class="st0" d="M536.73,34.08l-2.68-2.68c-0.21-0.21-0.55-0.21-0.76,0c-0.21,0.21-0.21,0.55,0,0.76l1.76,1.76h-3.89
		c-0.3,0-0.54,0.24-0.54,0.54c0,0.3,0.24,0.54,0.54,0.54h3.89l-1.76,1.76c-0.21,0.21-0.21,0.55,0,0.76c0.21,0.21,0.55,0.21,0.76,0
		l2.68-2.68C536.94,34.63,536.94,34.29,536.73,34.08L536.73,34.08z"/>
	<path class="st0" d="M528.6,30.62c0.3,0,0.54,0.24,0.54,0.54v2.72v1.17v2.72c0,0.3-0.24,0.54-0.54,0.54c-0.3,0-0.54-0.24-0.54-0.54
		v-2.72v-1.17v-2.72C528.07,30.86,528.31,30.62,528.6,30.62z"/>
</g>
<g>
	<g>
		<path class="st0" d="M497.27,422.59c-10.67,0-19.35-8.68-19.35-19.35V136.46c0-10.67,8.68-19.35,19.35-19.35h121.22
			c10.67,0,19.35,8.68,19.35,19.36v266.78c0,10.67-8.68,19.35-19.35,19.35H497.27z"/>
		<path class="st1" d="M497.27,412.59c-5.16,0-9.35-4.2-9.35-9.35V136.46c0-5.16,4.2-9.35,9.35-9.35h121.22
			c5.16,0,9.35,4.2,9.35,9.36v266.78c0,5.16-4.2,9.35-9.35,9.35H497.27z"/>
	</g>
</g>
<rect x="137.97" y="62.81" class="st4" width="73.11" height="73.11"/>
<rect x="211.08" y="62.81" class="st4" width="73.11" height="73.11"/>
<rect x="284.2" y="62.81" class="st4" width="73.11" height="73.11"/>
<rect x="357.31" y="62.81" class="st4" width="73.11" height="73.11"/>
<rect x="137.97" y="135.92" class="st4" width="73.11" height="73.11"/>
<rect x="211.08" y="135.92" class="st5" width="73.11" height="73.11"/>
<rect x="284.2" y="135.92" class="st4" width="73.11" height="73.11"/>
<rect x="357.31" y="135.92" class="st4" width="73.11" height="73.11"/>
<rect x="137.97" y="209.03" class="st4" width="73.11" height="73.11"/>
<rect x="211.08" y="209.03" class="st4" width="73.11" height="73.11"/>
<rect x="284.2" y="209.03" class="st4" width="73.11" height="73.11"/>
<rect x="357.31" y="209.03" class="st4" width="73.11" height="73.11"/>
<rect x="211.08" y="282.14" class="st4" width="73.11" height="73.11"/>
<rect x="284.2" y="282.14" class="st4" width="73.11" height="73.11"/>
<rect x="137.97" y="282.14" class="st4" width="73.11" height="73.11"/>
<rect x="357.31" y="282.14" class="st4" width="73.11" height="73.11"/>
<g>
	<path class="st6" d="M160.46,115.9h-1.61v2.49h-0.65v-6.05h2.25c1.1,0,1.87,0.7,1.87,1.78C162.33,115.19,161.55,115.9,160.46,115.9
		z M160.4,112.91h-1.55v2.41h1.55c0.76,0,1.28-0.41,1.28-1.21S161.16,112.91,160.4,112.91z"/>
	<path class="st6" d="M167.03,118.39l-1.38-2.69h-1.45v2.69h-0.65v-6.05h2.32c1.05,0,1.79,0.64,1.79,1.68
		c0,0.88-0.54,1.46-1.32,1.62l1.44,2.75H167.03z M165.82,112.91h-1.62v2.22h1.62c0.71,0,1.21-0.37,1.21-1.11
		S166.52,112.91,165.82,112.91z"/>
	<path class="st6" d="M172.48,117.84c-0.37,0.37-0.88,0.59-1.5,0.59s-1.14-0.22-1.51-0.59c-0.57-0.57-0.6-1.1-0.6-2.48
		c0-1.39,0.03-1.91,0.6-2.48c0.37-0.37,0.88-0.59,1.51-0.59s1.13,0.22,1.5,0.59c0.57,0.57,0.61,1.1,0.61,2.48
		C173.09,116.75,173.05,117.27,172.48,117.84z M172.02,113.29c-0.28-0.28-0.64-0.42-1.04-0.42s-0.77,0.14-1.05,0.42
		c-0.38,0.39-0.42,0.83-0.42,2.07c0,1.24,0.04,1.68,0.42,2.07c0.28,0.28,0.64,0.42,1.05,0.42s0.76-0.14,1.04-0.42
		c0.38-0.39,0.42-0.83,0.42-2.07C172.45,114.12,172.41,113.68,172.02,113.29z"/>
	<path class="st6" d="M175.26,112.91v2.23h2.65v0.58h-2.65v2.67h-0.65v-6.05h3.76v0.58H175.26z"/>
	<path class="st6" d="M179.55,118.39v-6.05h0.65v6.05H179.55z"/>
	<path class="st6" d="M181.94,118.39v-6.05h0.65v5.47h3.09v0.58H181.94z"/>
	<path class="st6" d="M186.81,118.39v-6.05h3.76v0.58h-3.11v2.13h2.65v0.58h-2.65v2.18h3.11v0.58H186.81z"/>
</g>
<g>
	<path class="st6" d="M230.89,118.44c-0.63,0-1.14-0.22-1.51-0.59c-0.57-0.57-0.6-1.1-0.6-2.48c0-1.39,0.03-1.91,0.6-2.48
		c0.37-0.37,0.88-0.59,1.51-0.59c1.1,0,1.89,0.67,2.1,1.8h-0.66c-0.16-0.75-0.68-1.22-1.44-1.22c-0.41,0-0.76,0.14-1.04,0.42
		c-0.38,0.39-0.42,0.83-0.42,2.07c0,1.24,0.04,1.68,0.42,2.07c0.28,0.28,0.64,0.42,1.04,0.42c0.76,0,1.29-0.48,1.45-1.22h0.65
		C232.78,117.77,231.98,118.44,230.89,118.44z"/>
	<path class="st6" d="M237.73,117.84c-0.37,0.37-0.88,0.59-1.5,0.59s-1.14-0.22-1.51-0.59c-0.57-0.57-0.6-1.1-0.6-2.48
		c0-1.39,0.03-1.91,0.6-2.48c0.37-0.37,0.88-0.59,1.51-0.59s1.13,0.22,1.5,0.59c0.57,0.57,0.61,1.1,0.61,2.48
		C238.34,116.75,238.3,117.27,237.73,117.84z M237.27,113.29c-0.28-0.28-0.64-0.42-1.04-0.42s-0.77,0.14-1.05,0.42
		c-0.38,0.39-0.42,0.83-0.42,2.07c0,1.24,0.04,1.68,0.42,2.07c0.28,0.28,0.64,0.42,1.05,0.42s0.76-0.14,1.04-0.42
		c0.38-0.39,0.42-0.83,0.42-2.07C237.69,114.12,237.65,113.68,237.27,113.29z"/>
	<path class="st6" d="M243.72,118.39l-3.21-4.85v4.85h-0.65v-6.05h0.61l3.21,4.84v-4.84h0.65v6.05H243.72z"/>
	<path class="st6" d="M249.94,118.39l-3.21-4.85v4.85h-0.65v-6.05h0.61l3.21,4.84v-4.84h0.65v6.05H249.94z"/>
	<path class="st6" d="M252.3,118.39v-6.05h3.76v0.58h-3.11v2.13h2.65v0.58h-2.65v2.18h3.11v0.58H252.3z"/>
	<path class="st6" d="M259.29,118.44c-0.63,0-1.14-0.22-1.51-0.59c-0.57-0.57-0.6-1.1-0.6-2.48c0-1.39,0.03-1.91,0.6-2.48
		c0.37-0.37,0.88-0.59,1.51-0.59c1.1,0,1.89,0.67,2.1,1.8h-0.66c-0.16-0.75-0.68-1.22-1.44-1.22c-0.41,0-0.76,0.14-1.04,0.42
		c-0.38,0.39-0.42,0.83-0.42,2.07c0,1.24,0.04,1.68,0.42,2.07c0.28,0.28,0.64,0.42,1.04,0.42c0.76,0,1.29-0.48,1.45-1.22h0.65
		C261.18,117.77,260.38,118.44,259.29,118.44z"/>
	<path class="st6" d="M264.42,112.91v5.47h-0.65v-5.47h-1.75v-0.58h4.15v0.58H264.42z"/>
</g>
<g>
	<path class="st6" d="M313.44,118.44c-0.63,0-1.14-0.22-1.51-0.59c-0.57-0.57-0.6-1.1-0.6-2.48c0-1.39,0.03-1.91,0.6-2.48
		c0.37-0.37,0.88-0.59,1.51-0.59c1.1,0,1.89,0.67,2.1,1.8h-0.66c-0.16-0.75-0.68-1.22-1.44-1.22c-0.41,0-0.76,0.14-1.04,0.42
		c-0.38,0.39-0.42,0.83-0.42,2.07c0,1.24,0.04,1.68,0.42,2.07c0.28,0.28,0.64,0.42,1.04,0.42c0.76,0,1.29-0.48,1.45-1.22h0.65
		C315.33,117.77,314.53,118.44,313.44,118.44z"/>
	<path class="st6" d="M320.49,118.39v-2.76h-2.87v2.76h-0.65v-6.05h0.65v2.71h2.87v-2.71h0.65v6.05H320.49z"/>
	<path class="st6" d="M326.41,118.39l-0.48-1.37h-2.64l-0.48,1.37h-0.69l2.23-6.05h0.54l2.22,6.05H326.41z M324.62,113.26l-1.14,3.2
		h2.26L324.62,113.26z"/>
	<path class="st6" d="M329.35,112.91v5.47h-0.65v-5.47h-1.75v-0.58h4.15v0.58H329.35z"/>
</g>
<g>
	<path class="st6" d="M305.02,191.5c-0.63,0-1.14-0.22-1.51-0.59c-0.57-0.57-0.6-1.1-0.6-2.48c0-1.39,0.03-1.91,0.6-2.48
		c0.37-0.37,0.88-0.59,1.51-0.59c1.1,0,1.89,0.67,2.1,1.8h-0.66c-0.16-0.75-0.68-1.22-1.44-1.22c-0.41,0-0.76,0.14-1.04,0.42
		c-0.38,0.39-0.42,0.83-0.42,2.07c0,1.24,0.04,1.68,0.42,2.07c0.28,0.28,0.64,0.42,1.04,0.42c0.76,0,1.29-0.48,1.45-1.22h0.65
		C306.91,190.83,306.11,191.5,305.02,191.5z"/>
	<path class="st6" d="M311.85,190.91c-0.37,0.37-0.88,0.59-1.5,0.59s-1.14-0.22-1.51-0.59c-0.57-0.57-0.6-1.1-0.6-2.48
		c0-1.39,0.03-1.91,0.6-2.48c0.37-0.37,0.88-0.59,1.51-0.59s1.13,0.22,1.5,0.59c0.57,0.57,0.61,1.1,0.61,2.48
		C312.46,189.81,312.42,190.34,311.85,190.91z M311.39,186.35c-0.28-0.28-0.64-0.42-1.04-0.42s-0.77,0.14-1.05,0.42
		c-0.38,0.39-0.42,0.83-0.42,2.07c0,1.24,0.04,1.68,0.42,2.07c0.28,0.28,0.64,0.42,1.05,0.42s0.76-0.14,1.04-0.42
		c0.38-0.39,0.42-0.83,0.42-2.07C311.82,187.19,311.78,186.74,311.39,186.35z"/>
	<path class="st6" d="M317.43,191.45l-0.48-1.37h-2.64l-0.48,1.37h-0.69l2.23-6.05h0.54l2.22,6.05H317.43z M315.64,186.33l-1.14,3.2
		h2.26L315.64,186.33z"/>
	<path class="st6" d="M320.9,191.5c-0.63,0-1.14-0.22-1.51-0.59c-0.57-0.57-0.6-1.1-0.6-2.48c0-1.39,0.03-1.91,0.6-2.48
		c0.37-0.37,0.88-0.59,1.51-0.59c1.1,0,1.89,0.67,2.1,1.8h-0.66c-0.16-0.75-0.68-1.22-1.44-1.22c-0.41,0-0.76,0.14-1.04,0.42
		c-0.38,0.39-0.42,0.83-0.42,2.07c0,1.24,0.04,1.68,0.42,2.07c0.28,0.28,0.64,0.42,1.04,0.42c0.76,0,1.29-0.48,1.45-1.22H323
		C322.78,190.83,321.98,191.5,320.9,191.5z"/>
	<path class="st6" d="M327.94,191.45v-2.76h-2.87v2.76h-0.65v-6.05h0.65v2.71h2.87v-2.71h0.65v6.05H327.94z"/>
	<path class="st6" d="M330.34,191.45v-6.05h3.76v0.58h-3.11v2.13h2.65v0.58h-2.65v2.18h3.11v0.58H330.34z"/>
	<path class="st6" d="M337,191.5c-0.9,0-1.5-0.23-2.07-0.8l0.43-0.43c0.5,0.5,0.97,0.65,1.65,0.65c0.89,0,1.44-0.41,1.44-1.12
		c0-0.32-0.09-0.58-0.3-0.76c-0.19-0.17-0.36-0.23-0.79-0.3l-0.71-0.1c-0.48-0.08-0.83-0.22-1.1-0.46
		c-0.31-0.27-0.47-0.65-0.47-1.14c0-1.03,0.74-1.7,1.94-1.7c0.77,0,1.28,0.2,1.8,0.66l-0.42,0.42c-0.37-0.35-0.78-0.53-1.41-0.53
		c-0.82,0-1.28,0.45-1.28,1.13c0,0.3,0.08,0.54,0.27,0.71c0.19,0.16,0.48,0.26,0.79,0.31l0.71,0.11c0.56,0.08,0.83,0.19,1.1,0.43
		c0.32,0.28,0.51,0.69,0.51,1.19C339.09,190.85,338.26,191.5,337,191.5z"/>
</g>
<g>
	<path class="st6" d="M381.46,191.55c-0.9,0-1.5-0.23-2.07-0.8l0.43-0.43c0.5,0.5,0.97,0.65,1.65,0.65c0.89,0,1.44-0.41,1.44-1.12
		c0-0.32-0.09-0.58-0.3-0.76c-0.19-0.17-0.36-0.23-0.79-0.3l-0.71-0.1c-0.48-0.08-0.83-0.22-1.1-0.46
		c-0.31-0.27-0.47-0.65-0.47-1.14c0-1.03,0.74-1.7,1.94-1.7c0.77,0,1.28,0.2,1.8,0.66l-0.42,0.42c-0.37-0.35-0.78-0.53-1.41-0.53
		c-0.82,0-1.28,0.45-1.28,1.13c0,0.3,0.08,0.54,0.27,0.71c0.19,0.16,0.48,0.26,0.79,0.31l0.71,0.11c0.56,0.08,0.83,0.19,1.1,0.43
		c0.32,0.28,0.51,0.69,0.51,1.19C383.56,190.89,382.73,191.55,381.46,191.55z"/>
	<path class="st6" d="M386.64,186.02v5.47H386v-5.47h-1.75v-0.58h4.15v0.58H386.64z"/>
	<path class="st6" d="M391.55,191.55c-1.22,0-2.11-0.84-2.11-2.05v-4.05h0.65v4c0,0.92,0.58,1.52,1.46,1.52s1.47-0.6,1.47-1.52v-4
		h0.65v4.05C393.66,190.71,392.77,191.55,391.55,191.55z"/>
	<path class="st6" d="M398.99,190.86c-0.41,0.44-0.91,0.64-1.59,0.64h-2.07v-6.05h2.07c0.68,0,1.18,0.2,1.59,0.64
		c0.54,0.58,0.54,1.46,0.54,2.39C399.53,189.4,399.53,190.28,398.99,190.86z M398.48,186.47c-0.31-0.34-0.73-0.44-1.19-0.44h-1.32
		v4.9h1.32c0.46,0,0.88-0.1,1.19-0.44c0.39-0.42,0.4-1.17,0.4-2.01C398.88,187.63,398.87,186.88,398.48,186.47z"/>
	<path class="st6" d="M401.05,191.5v-6.05h0.65v6.05H401.05z"/>
	<path class="st6" d="M406.84,190.95c-0.37,0.37-0.88,0.59-1.5,0.59s-1.14-0.22-1.51-0.59c-0.57-0.57-0.6-1.1-0.6-2.48
		c0-1.39,0.03-1.91,0.6-2.48c0.37-0.37,0.88-0.59,1.51-0.59s1.13,0.22,1.5,0.59c0.57,0.57,0.61,1.1,0.61,2.48
		C407.45,189.86,407.41,190.38,406.84,190.95z M406.38,186.4c-0.28-0.28-0.64-0.42-1.04-0.42s-0.77,0.14-1.05,0.42
		c-0.38,0.39-0.42,0.83-0.42,2.07c0,1.24,0.04,1.68,0.42,2.07c0.28,0.28,0.64,0.42,1.05,0.42s0.76-0.14,1.04-0.42
		c0.38-0.39,0.42-0.83,0.42-2.07C406.8,187.23,406.76,186.79,406.38,186.4z"/>
</g>
<g>
	<g>
		<path class="st6" d="M377.06,112.9v2.23h2.65v0.58h-2.65v2.67h-0.65v-6.05h3.76v0.58H377.06z"/>
		<path class="st6" d="M384.82,118.38l-1.38-2.69h-1.45v2.69h-0.65v-6.05h2.32c1.05,0,1.79,0.64,1.79,1.68
			c0,0.88-0.54,1.46-1.32,1.62l1.44,2.75H384.82z M383.6,112.9h-1.62v2.22h1.62c0.71,0,1.21-0.37,1.21-1.11
			S384.31,112.9,383.6,112.9z"/>
		<path class="st6" d="M386.92,118.38v-6.05h0.65v6.05H386.92z"/>
		<path class="st6" d="M389.32,118.38v-6.05h3.76v0.58h-3.11v2.13h2.65v0.58h-2.65v2.18h3.11v0.58H389.32z"/>
		<path class="st6" d="M398.28,118.38l-3.21-4.85v4.85h-0.65v-6.05h0.61l3.21,4.84v-4.84h0.65v6.05H398.28z"/>
		<path class="st6" d="M404.3,117.74c-0.41,0.44-0.91,0.64-1.59,0.64h-2.07v-6.05h2.07c0.68,0,1.18,0.2,1.59,0.64
			c0.54,0.58,0.54,1.46,0.54,2.39C404.84,116.28,404.84,117.16,404.3,117.74z M403.79,113.34c-0.31-0.34-0.73-0.44-1.19-0.44h-1.32
			v4.9h1.32c0.46,0,0.88-0.1,1.19-0.44c0.39-0.42,0.4-1.17,0.4-2.01C404.19,114.51,404.18,113.76,403.79,113.34z"/>
		<path class="st6" d="M407.91,118.43c-0.9,0-1.5-0.23-2.07-0.8l0.43-0.43c0.5,0.5,0.97,0.65,1.65,0.65c0.89,0,1.44-0.41,1.44-1.12
			c0-0.32-0.09-0.58-0.3-0.76c-0.19-0.17-0.36-0.23-0.79-0.3l-0.71-0.1c-0.48-0.08-0.83-0.22-1.11-0.46
			c-0.31-0.27-0.47-0.65-0.47-1.14c0-1.03,0.74-1.7,1.94-1.7c0.77,0,1.28,0.2,1.8,0.66l-0.42,0.42c-0.37-0.35-0.78-0.53-1.41-0.53
			c-0.82,0-1.28,0.45-1.28,1.13c0,0.3,0.08,0.54,0.27,0.71c0.19,0.16,0.48,0.26,0.79,0.31l0.71,0.11c0.56,0.08,0.82,0.19,1.1,0.43
			c0.32,0.28,0.51,0.69,0.51,1.19C410,117.77,409.18,118.43,407.91,118.43z"/>
	</g>
</g>
<g>
	<g>
		<path class="st6" d="M164.66,191.49l-1.38-2.69h-1.45v2.69h-0.65v-6.05h2.32c1.05,0,1.79,0.64,1.79,1.68
			c0,0.88-0.54,1.46-1.32,1.62l1.44,2.75H164.66z M163.44,186.01h-1.61v2.22h1.61c0.71,0,1.21-0.37,1.21-1.11
			S164.15,186.01,163.44,186.01z"/>
		<path class="st6" d="M170.11,190.94c-0.37,0.37-0.88,0.59-1.5,0.59s-1.14-0.22-1.51-0.59c-0.57-0.57-0.6-1.1-0.6-2.48
			c0-1.39,0.03-1.91,0.6-2.48c0.37-0.37,0.88-0.59,1.51-0.59s1.13,0.22,1.5,0.59c0.57,0.57,0.61,1.1,0.61,2.48
			C170.72,189.85,170.68,190.37,170.11,190.94z M169.65,186.39c-0.28-0.28-0.64-0.42-1.04-0.42s-0.77,0.14-1.05,0.42
			c-0.38,0.39-0.42,0.83-0.42,2.07c0,1.24,0.04,1.68,0.42,2.07c0.28,0.28,0.64,0.42,1.05,0.42s0.76-0.14,1.04-0.42
			c0.38-0.39,0.42-0.83,0.42-2.07C170.07,187.22,170.03,186.78,169.65,186.39z"/>
		<path class="st6" d="M175.55,190.94c-0.37,0.37-0.88,0.59-1.5,0.59s-1.14-0.22-1.51-0.59c-0.57-0.57-0.6-1.1-0.6-2.48
			c0-1.39,0.03-1.91,0.6-2.48c0.37-0.37,0.88-0.59,1.51-0.59s1.13,0.22,1.5,0.59c0.57,0.57,0.61,1.1,0.61,2.48
			C176.16,189.85,176.12,190.37,175.55,190.94z M175.09,186.39c-0.28-0.28-0.64-0.42-1.05-0.42c-0.41,0-0.76,0.14-1.04,0.42
			c-0.38,0.39-0.42,0.83-0.42,2.07c0,1.24,0.04,1.68,0.42,2.07c0.28,0.28,0.64,0.42,1.04,0.42c0.41,0,0.77-0.14,1.05-0.42
			c0.38-0.39,0.42-0.83,0.42-2.07C175.51,187.22,175.47,186.78,175.09,186.39z"/>
		<path class="st6" d="M182.22,191.49v-4.6l-1.66,3.65h-0.55l-1.68-3.65v4.6h-0.65v-6.05h0.65l1.97,4.29l1.92-4.29h0.65v6.05H182.22
			z"/>
		<path class="st6" d="M186.17,191.54c-0.9,0-1.5-0.23-2.07-0.8l0.43-0.43c0.5,0.5,0.97,0.65,1.65,0.65c0.89,0,1.44-0.41,1.44-1.12
			c0-0.32-0.09-0.58-0.3-0.76c-0.19-0.17-0.36-0.23-0.79-0.3l-0.71-0.1c-0.48-0.08-0.83-0.22-1.11-0.46
			c-0.31-0.27-0.47-0.65-0.47-1.14c0-1.03,0.74-1.7,1.94-1.7c0.77,0,1.28,0.2,1.8,0.66l-0.42,0.42c-0.37-0.35-0.78-0.53-1.41-0.53
			c-0.82,0-1.28,0.45-1.28,1.13c0,0.3,0.08,0.54,0.27,0.71c0.19,0.16,0.48,0.26,0.79,0.31l0.71,0.11c0.56,0.08,0.82,0.19,1.1,0.43
			c0.32,0.28,0.51,0.69,0.51,1.19C188.26,190.88,187.44,191.54,186.17,191.54z"/>
	</g>
</g>
<g>
	<path class="st0" d="M227.07,191.54c-0.61,0-1.1-0.21-1.46-0.58c-0.55-0.55-0.58-1.06-0.58-2.4s0.03-1.85,0.58-2.4
		c0.36-0.36,0.86-0.58,1.46-0.58c1.06,0,1.83,0.65,2.03,1.74h-0.64c-0.16-0.72-0.66-1.18-1.39-1.18c-0.39,0-0.74,0.14-1.01,0.41
		c-0.37,0.38-0.41,0.81-0.41,2.01c0,1.2,0.04,1.63,0.41,2.01c0.27,0.27,0.62,0.41,1.01,0.41c0.73,0,1.25-0.46,1.41-1.18h0.63
		C228.89,190.89,228.12,191.54,227.07,191.54z"/>
	<path class="st0" d="M233.68,190.96c-0.36,0.36-0.85,0.58-1.46,0.58c-0.61,0-1.1-0.21-1.46-0.58c-0.55-0.55-0.58-1.06-0.58-2.4
		s0.03-1.85,0.58-2.4c0.36-0.36,0.86-0.58,1.46-0.58c0.61,0,1.09,0.21,1.46,0.58c0.55,0.55,0.59,1.06,0.59,2.4
		S234.23,190.41,233.68,190.96z M233.24,186.55c-0.27-0.27-0.62-0.41-1.01-0.41c-0.39,0-0.74,0.14-1.01,0.41
		c-0.37,0.38-0.41,0.81-0.41,2.01c0,1.2,0.04,1.63,0.41,2.01c0.27,0.27,0.62,0.41,1.01,0.41c0.4,0,0.74-0.14,1.01-0.41
		c0.37-0.38,0.41-0.81,0.41-2.01C233.65,187.36,233.61,186.93,233.24,186.55z"/>
	<path class="st0" d="M240.14,191.49v-4.45l-1.6,3.53H238l-1.63-3.53v4.45h-0.62v-5.86h0.62l1.91,4.15l1.86-4.15h0.63v5.86H240.14z"
		/>
	<path class="st0" d="M244.64,189.08h-1.55v2.41h-0.62v-5.86h2.18c1.06,0,1.81,0.67,1.81,1.72
		C246.45,188.39,245.7,189.08,244.64,189.08z M244.59,186.19h-1.5v2.33h1.5c0.73,0,1.23-0.4,1.23-1.17
		C245.82,186.58,245.32,186.19,244.59,186.19z"/>
	<path class="st0" d="M250.64,191.49l-0.47-1.32h-2.56l-0.47,1.32h-0.67l2.16-5.86h0.53l2.15,5.86H250.64z M248.91,186.53l-1.1,3.09
		h2.19L248.91,186.53z"/>
	<path class="st0" d="M255.99,191.49l-3.11-4.7v4.7h-0.62v-5.86h0.59l3.11,4.68v-4.68h0.62v5.86H255.99z"/>
	<path class="st0" d="M258.27,191.49v-5.86h0.62v5.86H258.27z"/>
	<path class="st0" d="M260.59,191.49v-5.86h3.64v0.56h-3.01v2.06h2.57v0.56h-2.57v2.11h3.01v0.56H260.59z"/>
	<path class="st0" d="M267.03,191.54c-0.87,0-1.46-0.22-2-0.77l0.42-0.42c0.49,0.49,0.94,0.63,1.6,0.63c0.86,0,1.39-0.39,1.39-1.09
		c0-0.31-0.09-0.56-0.29-0.73c-0.18-0.17-0.34-0.22-0.76-0.29l-0.68-0.1c-0.46-0.07-0.81-0.21-1.07-0.44
		c-0.3-0.26-0.45-0.62-0.45-1.1c0-1,0.72-1.64,1.88-1.64c0.75,0,1.24,0.2,1.74,0.64l-0.4,0.4c-0.35-0.34-0.76-0.51-1.37-0.51
		c-0.79,0-1.24,0.44-1.24,1.09c0,0.29,0.08,0.53,0.26,0.68c0.18,0.16,0.46,0.25,0.76,0.3l0.68,0.11c0.54,0.08,0.8,0.18,1.06,0.42
		c0.31,0.27,0.49,0.67,0.49,1.15C269.06,190.9,268.26,191.54,267.03,191.54z"/>
</g>
<g>
	<path class="st6" d="M160.18,264.65c-0.9,0-1.5-0.23-2.07-0.8l0.43-0.43c0.5,0.5,0.97,0.65,1.65,0.65c0.89,0,1.44-0.41,1.44-1.12
		c0-0.32-0.09-0.58-0.3-0.76c-0.19-0.17-0.36-0.23-0.79-0.3l-0.71-0.1c-0.48-0.08-0.83-0.22-1.1-0.46
		c-0.31-0.27-0.47-0.65-0.47-1.14c0-1.03,0.74-1.7,1.94-1.7c0.77,0,1.28,0.2,1.8,0.66l-0.42,0.42c-0.37-0.35-0.78-0.53-1.41-0.53
		c-0.82,0-1.28,0.45-1.28,1.13c0,0.3,0.08,0.54,0.27,0.71c0.19,0.16,0.48,0.26,0.79,0.31l0.71,0.11c0.56,0.08,0.83,0.19,1.1,0.43
		c0.32,0.28,0.51,0.69,0.51,1.19C162.27,263.99,161.45,264.65,160.18,264.65z"/>
	<path class="st6" d="M165.36,259.12v5.47h-0.65v-5.47h-1.75v-0.58h4.15v0.58H165.36z"/>
	<path class="st6" d="M171.46,264.05c-0.37,0.37-0.88,0.59-1.5,0.59s-1.14-0.22-1.51-0.59c-0.57-0.57-0.6-1.1-0.6-2.48
		c0-1.39,0.03-1.91,0.6-2.48c0.37-0.37,0.88-0.59,1.51-0.59s1.13,0.22,1.5,0.59c0.57,0.57,0.61,1.1,0.61,2.48
		C172.07,262.96,172.03,263.48,171.46,264.05z M171,259.5c-0.28-0.28-0.64-0.42-1.04-0.42s-0.77,0.14-1.05,0.42
		c-0.38,0.39-0.42,0.83-0.42,2.07c0,1.24,0.04,1.68,0.42,2.07c0.28,0.28,0.64,0.42,1.05,0.42s0.76-0.14,1.04-0.42
		c0.38-0.39,0.42-0.83,0.42-2.07C171.43,260.33,171.38,259.89,171,259.5z"/>
	<path class="st6" d="M177.07,264.6l-1.38-2.69h-1.45v2.69h-0.65v-6.05h2.32c1.05,0,1.79,0.64,1.79,1.68c0,0.88-0.54,1.46-1.32,1.62
		l1.44,2.75H177.07z M175.86,259.12h-1.62v2.22h1.62c0.71,0,1.21-0.37,1.21-1.11S176.56,259.12,175.86,259.12z"/>
	<path class="st6" d="M179.17,264.6v-6.05h0.65v6.05H179.17z"/>
	<path class="st6" d="M181.57,264.6v-6.05h3.76v0.58h-3.11v2.13h2.65v0.58h-2.65v2.18h3.11v0.58H181.57z"/>
	<path class="st6" d="M188.22,264.65c-0.9,0-1.5-0.23-2.07-0.8l0.43-0.43c0.5,0.5,0.97,0.65,1.65,0.65c0.89,0,1.44-0.41,1.44-1.12
		c0-0.32-0.09-0.58-0.3-0.76c-0.19-0.17-0.36-0.23-0.79-0.3l-0.71-0.1c-0.48-0.08-0.83-0.22-1.11-0.46
		c-0.31-0.27-0.47-0.65-0.47-1.14c0-1.03,0.74-1.7,1.94-1.7c0.77,0,1.28,0.2,1.8,0.66l-0.42,0.42c-0.37-0.35-0.78-0.53-1.41-0.53
		c-0.82,0-1.28,0.45-1.28,1.13c0,0.3,0.08,0.54,0.27,0.71c0.19,0.16,0.48,0.26,0.79,0.31l0.71,0.11c0.56,0.08,0.82,0.19,1.1,0.43
		c0.32,0.28,0.51,0.69,0.51,1.19C190.31,263.99,189.49,264.65,188.22,264.65z"/>
</g>
<g>
	<path class="st6" d="M240.31,264.6l-3.21-4.85v4.85h-0.65v-6.05h0.61l3.21,4.84v-4.84h0.65v6.05H240.31z"/>
	<path class="st6" d="M242.68,264.6v-6.05h3.76v0.58h-3.11v2.13h2.65v0.58h-2.65v2.18h3.11v0.58H242.68z"/>
	<path class="st6" d="M252.48,264.6h-0.6l-1.34-4.84l-1.34,4.84h-0.6l-1.55-6.05h0.69l1.18,4.88l1.33-4.88h0.58l1.33,4.88l1.18-4.88
		h0.69L252.48,264.6z"/>
	<path class="st6" d="M256.59,264.65c-0.9,0-1.5-0.23-2.07-0.8l0.43-0.43c0.5,0.5,0.97,0.65,1.65,0.65c0.89,0,1.44-0.41,1.44-1.12
		c0-0.32-0.09-0.58-0.3-0.76c-0.19-0.17-0.36-0.23-0.79-0.3l-0.71-0.1c-0.48-0.08-0.83-0.22-1.11-0.46
		c-0.31-0.27-0.47-0.65-0.47-1.14c0-1.03,0.74-1.7,1.94-1.7c0.77,0,1.28,0.2,1.8,0.66l-0.42,0.42c-0.37-0.35-0.78-0.53-1.41-0.53
		c-0.82,0-1.28,0.45-1.28,1.13c0,0.3,0.08,0.54,0.27,0.71c0.19,0.16,0.48,0.26,0.79,0.31l0.71,0.11c0.56,0.08,0.82,0.19,1.1,0.43
		c0.32,0.28,0.51,0.69,0.51,1.19C258.68,263.99,257.86,264.65,256.59,264.65z"/>
</g>
<g>
	<path class="st6" d="M306.05,264.59v-6.05h3.76v0.58h-3.11v2.13h2.65v0.58h-2.65v2.18h3.11v0.58H306.05z"/>
	<path class="st6" d="M312.86,264.59h-0.53l-1.99-6.05h0.68l1.57,4.9l1.57-4.9h0.68L312.86,264.59z"/>
	<path class="st6" d="M315.79,264.59v-6.05h3.76v0.58h-3.11v2.13h2.65v0.58h-2.65v2.18h3.11v0.58H315.79z"/>
	<path class="st6" d="M324.75,264.59l-3.21-4.85v4.85h-0.65v-6.05h0.61l3.21,4.84v-4.84h0.65v6.05H324.75z"/>
	<path class="st6" d="M328.89,259.11v5.47h-0.65v-5.47h-1.75v-0.58h4.15v0.58H328.89z"/>
	<path class="st6" d="M333.33,264.64c-0.9,0-1.5-0.23-2.07-0.8l0.43-0.43c0.5,0.5,0.97,0.65,1.65,0.65c0.89,0,1.44-0.41,1.44-1.12
		c0-0.32-0.09-0.58-0.3-0.76c-0.19-0.17-0.36-0.23-0.79-0.3l-0.71-0.1c-0.48-0.08-0.83-0.22-1.11-0.46
		c-0.31-0.27-0.47-0.65-0.47-1.14c0-1.03,0.74-1.7,1.94-1.7c0.77,0,1.28,0.2,1.8,0.66l-0.42,0.42c-0.37-0.35-0.78-0.53-1.41-0.53
		c-0.82,0-1.28,0.45-1.28,1.13c0,0.3,0.08,0.54,0.27,0.71c0.19,0.16,0.48,0.26,0.79,0.31l0.71,0.11c0.56,0.08,0.82,0.19,1.1,0.43
		c0.32,0.28,0.51,0.69,0.51,1.19C335.42,263.98,334.59,264.64,333.33,264.64z"/>
</g>
<g>
	<path class="st6" d="M380.17,264.59h-2.35v-6.05h2.28c1.05,0,1.79,0.6,1.79,1.62c0,0.64-0.38,1.14-0.89,1.33
		c0.58,0.21,0.99,0.71,0.99,1.44C381.97,264.01,381.24,264.59,380.17,264.59z M380.04,259.11h-1.58v2.1h1.58
		c0.67,0,1.19-0.33,1.19-1.05C381.23,259.44,380.71,259.11,380.04,259.11z M380.11,261.79h-1.65v2.22h1.65
		c0.75,0,1.21-0.43,1.21-1.11S380.86,261.79,380.11,261.79z"/>
	<path class="st6" d="M386.97,264.59l-1.38-2.69h-1.45v2.69h-0.65v-6.05h2.32c1.05,0,1.79,0.64,1.79,1.68
		c0,0.88-0.54,1.46-1.32,1.62l1.44,2.75H386.97z M385.75,259.11h-1.61v2.22h1.61c0.71,0,1.21-0.37,1.21-1.11
		S386.46,259.11,385.75,259.11z"/>
	<path class="st6" d="M392.59,264.59l-0.48-1.37h-2.64l-0.48,1.37h-0.69l2.23-6.05h0.54l2.22,6.05H392.59z M390.8,259.46l-1.14,3.2
		h2.26L390.8,259.46z"/>
	<path class="st6" d="M398.12,264.59l-3.21-4.85v4.85h-0.65v-6.05h0.61l3.21,4.84v-4.84h0.65v6.05H398.12z"/>
	<path class="st6" d="M404.15,263.95c-0.41,0.44-0.91,0.64-1.59,0.64h-2.07v-6.05h2.07c0.68,0,1.18,0.2,1.59,0.64
		c0.54,0.58,0.54,1.46,0.54,2.39C404.68,262.49,404.68,263.37,404.15,263.95z M403.64,259.55c-0.31-0.34-0.73-0.44-1.19-0.44h-1.32
		v4.9h1.32c0.46,0,0.88-0.1,1.19-0.44c0.39-0.42,0.4-1.17,0.4-2.01C404.04,260.72,404.03,259.97,403.64,259.55z"/>
	<path class="st6" d="M407.76,264.64c-0.9,0-1.5-0.23-2.07-0.8l0.43-0.43c0.5,0.5,0.97,0.65,1.65,0.65c0.89,0,1.44-0.41,1.44-1.12
		c0-0.32-0.09-0.58-0.3-0.76c-0.19-0.17-0.36-0.23-0.79-0.3l-0.71-0.1c-0.48-0.08-0.83-0.22-1.1-0.46
		c-0.31-0.27-0.47-0.65-0.47-1.14c0-1.03,0.74-1.7,1.94-1.7c0.77,0,1.28,0.2,1.8,0.66l-0.42,0.42c-0.37-0.35-0.78-0.53-1.41-0.53
		c-0.82,0-1.28,0.45-1.28,1.13c0,0.3,0.08,0.54,0.27,0.71c0.19,0.16,0.48,0.26,0.79,0.31l0.71,0.11c0.56,0.08,0.83,0.19,1.1,0.43
		c0.32,0.28,0.51,0.69,0.51,1.19C409.85,263.98,409.02,264.64,407.76,264.64z"/>
</g>
<g>
	<path class="st6" d="M232.32,337.7l-1.38-2.69h-1.45v2.69h-0.65v-6.05h2.32c1.05,0,1.79,0.64,1.79,1.68c0,0.88-0.54,1.46-1.32,1.62
		l1.44,2.75H232.32z M231.1,332.23h-1.61v2.22h1.61c0.71,0,1.21-0.37,1.21-1.11S231.81,332.23,231.1,332.23z"/>
	<path class="st6" d="M234.42,337.7v-6.05h3.76v0.58h-3.11v2.13h2.65v0.58h-2.65v2.18h3.11v0.58H234.42z"/>
	<path class="st6" d="M244.22,337.7h-0.6l-1.34-4.84l-1.34,4.84h-0.6l-1.55-6.05h0.69l1.18,4.88l1.33-4.88h0.58l1.33,4.88l1.18-4.88
		h0.69L244.22,337.7z"/>
	<path class="st6" d="M250.22,337.7l-0.48-1.37h-2.64l-0.48,1.37h-0.69l2.23-6.05h0.54l2.22,6.05H250.22z M248.43,332.57l-1.14,3.2
		h2.26L248.43,332.57z"/>
	<path class="st6" d="M255.36,337.7l-1.38-2.69h-1.45v2.69h-0.65v-6.05h2.32c1.05,0,1.79,0.64,1.79,1.68c0,0.88-0.54,1.46-1.32,1.62
		l1.44,2.75H255.36z M254.15,332.23h-1.62v2.22h1.62c0.71,0,1.21-0.37,1.21-1.11S254.85,332.23,254.15,332.23z"/>
	<path class="st6" d="M261.12,337.06c-0.41,0.44-0.91,0.64-1.59,0.64h-2.07v-6.05h2.07c0.68,0,1.18,0.2,1.59,0.64
		c0.54,0.58,0.54,1.46,0.54,2.39C261.66,335.6,261.66,336.48,261.12,337.06z M260.62,332.67c-0.31-0.34-0.73-0.44-1.19-0.44h-1.32
		v4.9h1.32c0.46,0,0.88-0.1,1.19-0.44c0.39-0.42,0.4-1.17,0.4-2.01C261.01,333.83,261.01,333.08,260.62,332.67z"/>
	<path class="st6" d="M264.74,337.75c-0.9,0-1.5-0.23-2.07-0.8l0.43-0.43c0.5,0.5,0.97,0.65,1.65,0.65c0.89,0,1.44-0.41,1.44-1.12
		c0-0.32-0.09-0.58-0.3-0.76c-0.19-0.17-0.36-0.23-0.79-0.3l-0.71-0.1c-0.48-0.08-0.83-0.22-1.1-0.46
		c-0.31-0.27-0.47-0.65-0.47-1.14c0-1.03,0.74-1.7,1.94-1.7c0.77,0,1.28,0.2,1.8,0.66l-0.42,0.42c-0.37-0.35-0.78-0.53-1.41-0.53
		c-0.82,0-1.28,0.45-1.28,1.13c0,0.3,0.08,0.54,0.27,0.71c0.19,0.16,0.48,0.26,0.79,0.31l0.71,0.11c0.56,0.08,0.83,0.19,1.1,0.43
		c0.32,0.28,0.51,0.69,0.51,1.19C266.83,337.1,266,337.75,264.74,337.75z"/>
</g>
<g>
	<path class="st6" d="M310.14,337.7h-0.6l-1.34-4.84l-1.34,4.84h-0.6l-1.55-6.05h0.69l1.18,4.88l1.33-4.88h0.58l1.33,4.88l1.18-4.88
		h0.69L310.14,337.7z"/>
	<path class="st6" d="M316.14,337.7l-0.48-1.37h-2.64l-0.48,1.37h-0.69l2.23-6.05h0.54l2.22,6.05H316.14z M314.34,332.57l-1.14,3.2
		h2.26L314.34,332.57z"/>
	<path class="st6" d="M317.8,337.7v-6.05h0.65v5.47h3.09v0.58H317.8z"/>
	<path class="st6" d="M322.67,337.7v-6.05h0.65v5.47h3.09v0.58H322.67z"/>
	<path class="st6" d="M327.54,337.7v-6.05h3.76v0.58h-3.11v2.13h2.65v0.58h-2.65v2.18h3.11v0.58H327.54z"/>
	<path class="st6" d="M334.42,332.23v5.47h-0.65v-5.47h-1.75v-0.58h4.15v0.58H334.42z"/>
</g>
<g>
	<path class="st6" d="M164.63,332.23v2.23h2.65v0.58h-2.65v2.67h-0.65v-6.05h3.76v0.58H164.63z"/>
	<path class="st6" d="M168.92,337.7v-6.05h0.65v6.05H168.92z"/>
	<path class="st6" d="M171.31,337.7v-6.05h0.65v5.47h3.09v0.58H171.31z"/>
	<path class="st6" d="M176.18,337.7v-6.05h3.76v0.58h-3.11v2.13h2.65v0.58h-2.65v2.18h3.11v0.58H176.18z"/>
	<path class="st6" d="M182.84,337.75c-0.9,0-1.5-0.23-2.07-0.8l0.43-0.43c0.5,0.5,0.97,0.65,1.65,0.65c0.89,0,1.44-0.41,1.44-1.12
		c0-0.32-0.09-0.58-0.3-0.76c-0.19-0.17-0.36-0.23-0.79-0.3l-0.71-0.1c-0.48-0.08-0.83-0.22-1.11-0.46
		c-0.31-0.27-0.47-0.65-0.47-1.14c0-1.03,0.74-1.7,1.94-1.7c0.77,0,1.28,0.2,1.8,0.66l-0.42,0.42c-0.37-0.35-0.78-0.53-1.41-0.53
		c-0.82,0-1.28,0.45-1.28,1.13c0,0.3,0.08,0.54,0.27,0.71c0.19,0.16,0.48,0.26,0.79,0.31l0.71,0.11c0.56,0.08,0.82,0.19,1.1,0.43
		c0.32,0.28,0.51,0.69,0.51,1.19C184.93,337.1,184.1,337.75,182.84,337.75z"/>
</g>
<g>
	<g>
		<path class="st6" d="M165.92,247.24l3.53-1.28c0.51-0.19,0.99-0.49,1.37-0.88l11.85-11.84l-4.67-4.67l-11.84,11.84
			c-0.39,0.39-0.69,0.86-0.88,1.37l-1.28,3.53C163.15,247.46,163.65,248.07,165.92,247.24z"/>
	</g>
	<g>
		<path class="st6" d="M184.28,228.15l-1.2-1.2c-0.47-0.47-1.16-0.71-1.87-0.64c-0.67,0.06-1.33,0.38-1.84,0.88l-0.31,0.31
			l4.67,4.67l0.31-0.31c0.51-0.51,0.82-1.16,0.88-1.83C184.99,229.31,184.76,228.63,184.28,228.15z"/>
	</g>
</g>
<g>
	<path class="st0" d="M247.13,172.05h2.2v-12.27c0-0.5,0.5-0.82,0.97-0.63l6.05,2.6c0.41,0.19,0.66,0.56,0.66,1v9.29h2.2v2.2h-24.12
		v-2.2h2.2v-13.71c0-0.44,0.25-0.82,0.66-1l8.41-3.73c0.16-0.06,0.38-0.06,0.53,0.03c0.16,0.13,0.25,0.28,0.25,0.47V172.05z"/>
</g>
<path class="st7" d="M255.21,80.24c-2.48,0-4.52,2.01-4.52,4.52c0,1.16,0.44,2.26,1.25,3.11l-3.23,5.43
	c-0.38-0.09-0.78-0.16-1.16-0.16c-0.41,0-0.78,0.06-1.19,0.16l-3.33-5.46c0.78-0.85,1.22-1.95,1.22-3.07c0-2.48-2.01-4.52-4.52-4.52
	c-2.51,0-4.49,2.01-4.49,4.52c0,2.51,2.01,4.52,4.52,4.52c0.41,0,0.78-0.06,1.19-0.16l3.29,5.49c-0.78,0.85-1.22,1.95-1.22,3.07
	c0,2.48,2.01,4.52,4.52,4.52s4.52-2.01,4.52-4.52c0-1.16-0.44-2.26-1.25-3.11l3.23-5.46c0.38,0.09,0.78,0.16,1.16,0.16
	c2.48,0,4.52-2.01,4.52-4.52S257.69,80.24,255.21,80.24z"/>
<g>
	<path class="st6" d="M327.93,226.22c-0.16-0.16-0.38-0.25-0.6-0.25c-0.47,0-0.88,0.38-0.88,0.85v0.41v3.36
		c0,0.22,0.09,0.44,0.25,0.6c0.16,0.16,0.38,0.25,0.6,0.25c0.47,0,0.88-0.38,0.88-0.85v-3.36v-0.41
		C328.18,226.56,328.05,226.38,327.93,226.22z"/>
	<path class="st6" d="M314.85,226.22c-0.16-0.16-0.38-0.25-0.6-0.25c-0.47,0-0.88,0.38-0.88,0.85v0.41v3.36
		c0,0.22,0.09,0.44,0.25,0.6c0.16,0.16,0.38,0.25,0.6,0.25c0.47,0,0.88-0.38,0.88-0.85v-3.36v-0.41
		C315.1,226.56,315,226.38,314.85,226.22z"/>
	<path class="st6" d="M329.5,227.98v2.57c0,1.19-0.97,2.16-2.2,2.16c-0.6,0-1.13-0.22-1.54-0.63c-0.41-0.41-0.66-0.94-0.66-1.54
		v-2.64h-8.69v2.67c0,1.19-0.97,2.16-2.2,2.16c-0.56,0-1.13-0.22-1.54-0.63c-0.41-0.41-0.66-0.97-0.66-1.54v-2.6
		c-1.66,0.35-2.92,1.82-2.92,3.58v12.67c0,0.03,0,0.09,0,0.13c0.06,1.95,1.66,3.51,3.64,3.51h16c2.01,0,3.64-1.63,3.64-3.64v-12.67
		C332.41,229.79,331.16,228.32,329.5,227.98z M326.64,241.34c-0.16,0.16-0.38,0.25-0.6,0.25H315.5c-0.47,0-0.85-0.38-0.85-0.88
		c0-0.25,0.09-0.44,0.25-0.6c0.16-0.16,0.38-0.25,0.6-0.25h10.54c0.47,0,0.85,0.38,0.85,0.88
		C326.89,240.99,326.8,241.18,326.64,241.34z M326.64,238.14c-0.16,0.16-0.38,0.25-0.6,0.25H315.5c-0.47,0-0.85-0.38-0.85-0.88
		c0-0.25,0.09-0.44,0.25-0.6s0.38-0.25,0.6-0.25h10.54c0.47,0,0.85,0.38,0.85,0.88C326.89,237.76,326.8,237.98,326.64,238.14z"/>
</g>
<path class="st7" d="M183.92,165.58c0-0.13,0-0.28,0-0.41c0-3.61-2.1-6.93-5.33-8.5c-0.13-2.16-1.95-3.89-4.11-3.89
	s-3.98,1.73-4.11,3.89c-3.26,1.57-5.33,4.89-5.33,8.5c0,0.13,0,0.22,0,0.35c-1.25,0.75-2.01,2.07-2.01,3.54
	c0,2.26,1.85,4.11,4.11,4.11c0.6,0,1.19-0.13,1.76-0.38c1.63,1.22,3.58,1.85,5.62,1.85c2.01,0,3.95-0.63,5.55-1.82
	c0.53,0.25,1.1,0.38,1.66,0.38c2.26,0,4.11-1.85,4.11-4.11C185.83,167.65,185.08,166.33,183.92,165.58z M177.61,169.06
	c0,0.82,0.25,1.6,0.69,2.29c-1.16,0.72-2.48,1.1-3.83,1.1c-1.38,0-2.73-0.41-3.89-1.13c0.44-0.66,0.66-1.44,0.66-2.23
	c-0.03-2.26-1.82-4.08-4.05-4.14c0.06-2.54,1.47-4.83,3.67-6.09c0.72,1.29,2.1,2.13,3.58,2.13s2.89-0.82,3.58-2.13
	c2.2,1.25,3.58,3.54,3.67,6.09l0,0C179.43,164.95,177.61,166.8,177.61,169.06z"/>
<g>
	<path class="st6" d="M385.02,337.7v-6.05h0.65v6.05H385.02z"/>
	<path class="st6" d="M391.27,337.7l-3.21-4.85v4.85h-0.65v-6.05h0.61l3.21,4.84v-4.84h0.65v6.05H391.27z"/>
	<path class="st6" d="M394.28,332.23v2.23h2.65v0.58h-2.65v2.67h-0.65v-6.05h3.76v0.58H394.28z"/>
	<path class="st6" d="M401.79,337.16c-0.37,0.37-0.88,0.59-1.5,0.59s-1.14-0.22-1.51-0.59c-0.57-0.57-0.6-1.1-0.6-2.48
		c0-1.39,0.03-1.91,0.6-2.48c0.37-0.37,0.88-0.59,1.51-0.59s1.13,0.22,1.5,0.59c0.57,0.57,0.61,1.1,0.61,2.48
		C402.4,336.06,402.36,336.59,401.79,337.16z M401.33,332.6c-0.28-0.28-0.64-0.42-1.05-0.42c-0.41,0-0.76,0.14-1.04,0.42
		c-0.38,0.39-0.42,0.83-0.42,2.07c0,1.24,0.04,1.68,0.42,2.07c0.28,0.28,0.64,0.42,1.04,0.42c0.41,0,0.77-0.14,1.05-0.42
		c0.38-0.39,0.42-0.83,0.42-2.07C401.75,333.43,401.71,332.99,401.33,332.6z"/>
</g>
<g id="XMLID_00000103251611075406622240000007966783130950984579_">
	<g>
		<path class="st6" d="M393.47,299.14c-6.05,0-10.95,4.89-10.95,10.95s4.89,10.95,10.95,10.95s10.95-4.89,10.95-10.95
			S399.52,299.14,393.47,299.14z M395.29,317.08c0,0.41-0.35,0.75-0.75,0.75h-2.04c-0.41,0-0.75-0.35-0.75-0.75v-8.31
			c0-0.41,0.35-0.75,0.75-0.75h2.04c0.41,0,0.75,0.35,0.75,0.75V317.08z M393.47,306.6c-1.04,0-1.85-0.82-1.85-1.85
			s0.82-1.85,1.85-1.85s1.85,0.82,1.85,1.85S394.5,306.6,393.47,306.6z"/>
	</g>
</g>
<path id="Mail_00000007395271517604135260000016606501112395820470_" class="st6" d="M256.3,228.17h-17.88
	c-1.63,0-2.98,1.35-2.98,2.98v11.2c0,1.63,1.35,2.98,2.98,2.98h17.91c1.63,0,2.98-1.35,2.98-2.98v-11.17
	C259.31,229.52,257.96,228.17,256.3,228.17z M256.05,233.25l-8.22,6.71c-0.13,0.13-0.31,0.16-0.47,0.16c-0.16,0-0.35-0.06-0.47-0.16
	l-8.22-6.71c-0.31-0.25-0.38-0.72-0.09-1.04c0.25-0.31,0.72-0.38,1.04-0.09l7.75,6.31l7.75-6.34c0.31-0.25,0.78-0.22,1.04,0.09
	C256.39,232.5,256.36,232.97,256.05,233.25z"/>
<path class="st6" d="M174.43,80.15c-6.05,0-10.95,4.89-10.95,10.95s4.89,10.95,10.95,10.95s10.95-4.89,10.95-10.95
	C185.38,85.04,180.49,80.15,174.43,80.15z M170.23,86.68c0.94,0,1.69,0.91,1.69,2.01s-0.75,2.01-1.69,2.01
	c-0.94,0-1.69-0.91-1.69-2.01S169.29,86.68,170.23,86.68z M179.96,94.71c-1.16,1.76-3.2,2.89-5.52,2.89s-4.33-1.13-5.52-2.89
	c-0.38-0.56,0.35-1.22,0.85-0.78c1.22,0.97,2.85,1.54,4.64,1.54s3.42-0.56,4.64-1.54C179.61,93.51,180.3,94.17,179.96,94.71z
	 M178.61,90.69c-0.94,0-1.69-0.91-1.69-2.01s0.75-2.01,1.69-2.01s1.69,0.91,1.69,2.01S179.55,90.69,178.61,90.69z"/>
<g>
	<path class="st6" d="M247.64,299.19c-6.02,0-10.92,4.89-10.92,10.92s4.89,10.92,10.92,10.92s10.92-4.89,10.92-10.92
		S253.66,299.19,247.64,299.19z M247.64,317.91c-4.3,0-7.81-3.48-7.81-7.81c0-4.3,3.48-7.81,7.81-7.81s7.81,3.51,7.81,7.81
		S251.94,317.91,247.64,317.91z"/>
	<path class="st6" d="M247.64,305.43c-2.57,0-4.67,2.1-4.67,4.67c0,2.57,2.1,4.67,4.67,4.67s4.67-2.1,4.67-4.67
		C252.31,307.53,250.21,305.43,247.64,305.43z M247.64,311.67c-0.85,0-1.57-0.69-1.57-1.57c0-0.88,0.69-1.57,1.57-1.57
		s1.57,0.69,1.57,1.57C249.21,310.98,248.49,311.67,247.64,311.67z"/>
</g>
<g>
	<path class="st6" d="M389.95,156.21c-0.04-0.12-0.16-0.2-0.28-0.2h-2.36c-0.13,0-0.24,0.08-0.28,0.2l-5.61,15.43
		c-0.03,0.09-0.02,0.2,0.04,0.28c0.06,0.08,0.15,0.13,0.25,0.13h3.14c0.13,0,0.24-0.08,0.28-0.2l0.86-2.53h5.05l0.84,2.52
		c0.04,0.12,0.16,0.21,0.29,0.21h3.14c0.1,0,0.19-0.05,0.25-0.13c0.06-0.08,0.07-0.18,0.04-0.28L389.95,156.21z M387.03,166.18
		l1.52-4.38l1.47,4.38H387.03z"/>
	<path class="st6" d="M401.22,160.02c-2.01,0-3.13,0.45-4.27,1.7c-0.11,0.12-0.1,0.3,0.01,0.42l1.78,1.76
		c0.06,0.06,0.13,0.09,0.21,0.09c0,0,0.01,0,0.01,0c0.08,0,0.16-0.04,0.22-0.1c0.58-0.66,1.05-0.87,1.94-0.87
		c1.5,0,1.8,0.56,1.8,1.48v0.26h-2.32c-3.1,0-4.2,1.85-4.2,3.57c0,1.09,0.36,2.07,1.02,2.75c0.72,0.72,1.76,1.08,3.09,1.08
		c1.06,0,1.79-0.2,2.47-0.72v0.31c0,0.17,0.13,0.3,0.3,0.3h2.75c0.17,0,0.3-0.13,0.3-0.3v-7.43
		C406.34,162.35,405.45,160.02,401.22,160.02z M401.12,169.25c-0.94,0-1.41-0.33-1.41-0.98c0-0.43,0.14-1,1.37-1h1.84v0.31
		c0,0.66-0.09,1-0.34,1.21C402.17,169.18,401.75,169.25,401.12,169.25z"/>
</g>
<g>
	<g id="XMLID_00000009579408216413247340000000587467285731313301_">
		<g>
			<g>
				<path class="st6" d="M331.68,309.6h-5.36c-0.5,0-0.94,0.41-0.94,0.94v3.42c0,0.5,0.41,0.94,0.94,0.94h5.4
					c0.5,0,0.94-0.41,0.94-0.94v-3.45C332.63,310.01,332.22,309.6,331.68,309.6z M328.17,313.58c-0.75,0-1.35-0.6-1.35-1.35
					c0-0.75,0.6-1.35,1.35-1.35c0.75,0,1.35,0.6,1.35,1.35C329.52,312.99,328.89,313.58,328.17,313.58z"/>
				<path class="st6" d="M327.42,300.53c-0.35-1.07-1.51-1.66-2.6-1.32l-8.09,2.67h11.14L327.42,300.53z"/>
			</g>
		</g>
	</g>
	<path class="st6" d="M326.23,316.35c-1.32,0-2.38-1.07-2.38-2.38v-3.45c0-1.32,1.07-2.38,2.38-2.38h5.58v-3.07
		c0-0.88-0.72-1.6-1.6-1.6h-19.76c-0.88,0-1.6,0.72-1.6,1.6v14.4c0,0.88,0.72,1.6,1.6,1.6h19.76c0.88,0,1.6-0.72,1.6-1.6v-3.11
		H326.23z"/>
</g>
<g>
	<g>
		<circle class="st7" cx="387.61" cy="84.79" r="4.45"/>
	</g>
	<path class="st7" d="M392.07,102.2h-8.94v-9.1c0-1.47,1.19-2.7,2.7-2.7h3.54c1.47,0,2.7,1.19,2.7,2.7V102.2z"/>
	<g>
		<circle class="st7" cx="398.84" cy="84.79" r="4.45"/>
	</g>
	<path class="st7" d="M403.33,102.2h-8.94v-9.1c0-1.47,1.19-2.7,2.7-2.7h3.54c1.47,0,2.7,1.19,2.7,2.7
		C403.33,93.1,403.33,102.2,403.33,102.2z"/>
</g>
<g>
	<path class="st6" d="M320.78,167.88L320.78,167.88c2.25,0,4.08-1.84,4.08-4.08v-7.1c0-2.25-1.84-4.08-4.08-4.08l0,0
		c-2.25,0-4.08,1.84-4.08,4.08v7.1C316.69,166.04,318.53,167.88,320.78,167.88z"/>
	<path class="st6" d="M326.92,163.28c-0.5,0-0.91,0.41-0.91,0.91v0.25c0,0.7-0.14,1.38-0.41,2.03c-0.26,0.62-0.64,1.19-1.13,1.67
		c-0.48,0.48-1.05,0.86-1.67,1.13c-0.64,0.27-1.33,0.41-2.03,0.41c-0.7,0-1.38-0.14-2.03-0.41c-0.62-0.26-1.19-0.64-1.67-1.13
		c-0.48-0.48-0.86-1.05-1.13-1.67c-0.27-0.64-0.41-1.33-0.41-2.03v-0.25c0-0.5-0.41-0.91-0.91-0.91c-0.5,0-0.91,0.41-0.91,0.91v0.25
		c0,0.95,0.19,1.87,0.56,2.74c0.36,0.84,0.87,1.59,1.51,2.24c0.65,0.65,1.4,1.16,2.24,1.51c0.59,0.25,1.2,0.42,1.83,0.5v1.46h-3.26
		c-0.5,0-0.91,0.41-0.91,0.91s0.41,0.91,0.91,0.91h8.33c0.5,0,0.91-0.41,0.91-0.91s-0.41-0.91-0.91-0.91h-3.26v-1.46
		c0.63-0.08,1.24-0.25,1.83-0.5c0.84-0.36,1.59-0.87,2.24-1.51c0.65-0.65,1.16-1.4,1.51-2.24c0.37-0.87,0.56-1.79,0.56-2.74v-0.25
		C327.82,163.69,327.42,163.28,326.92,163.28z"/>
</g>
<path class="st6" d="M333.13,90.33c0,5.55-5.54,10.06-12.38,10.06c-1.79,0-3.5-0.31-5.03-0.87c-0.58,0.42-1.51,1-2.62,1.48
	c-1.16,0.5-2.56,0.93-3.94,0.93c-0.31,0-0.59-0.19-0.72-0.48c-0.12-0.29-0.05-0.62,0.16-0.84l0,0l0,0l0,0l0,0l0.01-0.01
	c0.01-0.01,0.03-0.03,0.06-0.07c0.05-0.06,0.14-0.15,0.24-0.28c0.2-0.24,0.46-0.6,0.73-1.04c0.48-0.8,0.94-1.86,1.03-3.04
	c-1.45-1.64-2.31-3.66-2.31-5.84c0-5.55,5.54-10.06,12.38-10.06S333.13,84.77,333.13,90.33z"/>
<g>
	<path class="st6" d="M403.59,242.08c0,3.82-3.03,6.02-8.83,6.02h-11.41v-22.07h10.78c5.52,0,8.36,2.3,8.36,5.74
		c0,2.21-1.14,3.91-2.93,4.86C402.01,237.42,403.59,239.31,403.59,242.08z M388.42,229.88v5.2h5.08c2.49,0,3.85-0.88,3.85-2.62
		s-1.36-2.59-3.85-2.59H388.42z M398.45,241.55c0-1.86-1.42-2.74-4.07-2.74h-5.96v5.45h5.96
		C397.03,244.26,398.45,243.44,398.45,241.55z"/>
</g>
<g>
	<path class="st6" d="M183.89,303.51h-9.84c-0.19,0-0.37-0.07-0.52-0.22l-2.11-2.11c-0.43-0.42-0.99-0.66-1.58-0.66h-5.36
		c-1.24,0-2.24,1-2.24,2.24v14.42c0,1.24,1,2.24,2.24,2.24h19.41c1.24,0,2.24-1,2.24-2.24v-11.44
		C186.13,304.51,185.13,303.51,183.89,303.51z"/>
</g>
<g>
	<g>
		<path class="st8" d="M571.93,216.19c-7.64-7.64-19.98-7.64-27.66,0c-7.67,7.64-7.64,19.98,0,27.66
			c6.72,6.72,17.15,7.53,24.76,2.37l7.01,1.74l-1.74-7.01C579.48,233.31,578.65,222.94,571.93,216.19z M567.14,239.02
			c-4.39,4.39-11.2,4.9-16.16,1.55l-4.54,1.08l1.08-4.54c-3.35-4.96-2.84-11.75,1.55-16.16c4.96-4.96,13.11-4.96,18.04,0
			C572.11,225.96,572.11,234.03,567.14,239.02z"/>
		<g>
			<g>
				<g>
					<ellipse class="st0" cx="551.82" cy="230.05" rx="1.85" ry="1.85"/>
					<ellipse class="st0" cx="558.01" cy="230.05" rx="1.85" ry="1.85"/>
					<ellipse class="st0" cx="564.16" cy="230.05" rx="1.85" ry="1.85"/>
				</g>
			</g>
		</g>
		<g>
			<path class="st0" d="M520.92,269.43l-0.01-6l-2.94,4.94h-1.04l-2.93-4.82v5.87h-2.17v-10h1.91l3.74,6.22l3.69-6.22h1.9l0.03,10
				H520.92z"/>
			<path class="st0" d="M525.47,259.42h2.32v8.12h5.02v1.89h-7.33V259.42z"/>
			<path class="st0" d="M543.2,269.43l-0.01-6l-2.94,4.94h-1.04l-2.93-4.82v5.87h-2.17v-10h1.92l3.74,6.22l3.69-6.22h1.9l0.03,10
				H543.2z"/>
			<path class="st8" d="M547.04,268.14c0-0.83,0.61-1.37,1.39-1.37c0.77,0,1.39,0.54,1.39,1.37c0,0.81-0.61,1.4-1.39,1.4
				C547.66,269.54,547.04,268.96,547.04,268.14z"/>
			<path class="st0" d="M550.97,268.21l0.41-0.81c0.71,0.7,1.99,1.21,3.3,1.21c1.87,0,2.69-0.79,2.69-1.77
				c0-2.74-6.16-1.06-6.16-4.76c0-1.47,1.14-2.74,3.69-2.74c1.13,0,2.3,0.33,3.1,0.89l-0.36,0.84c-0.86-0.56-1.86-0.83-2.74-0.83
				c-1.83,0-2.64,0.81-2.64,1.81c0,2.74,6.16,1.09,6.16,4.73c0,1.47-1.17,2.73-3.73,2.73C553.19,269.51,551.71,268.98,550.97,268.21
				z"/>
			<path class="st0" d="M559.83,264.42c0-2.92,2.23-5.09,5.26-5.09c3,0,5.24,2.16,5.24,5.09c0,2.93-2.24,5.09-5.24,5.09
				C562.06,269.51,559.83,267.34,559.83,264.42z M569.28,264.42c0-2.39-1.79-4.14-4.19-4.14c-2.42,0-4.22,1.76-4.22,4.14
				s1.8,4.14,4.22,4.14C567.49,268.57,569.28,266.81,569.28,264.42z"/>
			<path class="st0" d="M571.82,264.42c0-2.93,2.23-5.09,5.24-5.09c1.46,0,2.77,0.49,3.66,1.46l-0.67,0.67
				c-0.81-0.83-1.81-1.19-2.96-1.19c-2.42,0-4.23,1.77-4.23,4.14c0,2.37,1.81,4.14,4.23,4.14c1.14,0,2.14-0.36,2.96-1.2l0.67,0.67
				c-0.89,0.97-2.2,1.47-3.67,1.47C574.05,269.51,571.82,267.35,571.82,264.42z"/>
			<path class="st0" d="M582.98,259.42h1.06v10h-1.06V259.42z"/>
			<path class="st0" d="M593.57,266.75h-5.57l-1.2,2.67h-1.1l4.57-10h1.04l4.57,10h-1.11L593.57,266.75z M593.18,265.9l-2.4-5.37
				l-2.4,5.37H593.18z"/>
			<path class="st0" d="M597.54,259.42h1.06v9.09h5.6v0.91h-6.66V259.42z"/>
		</g>
	</g>
	<g>
		<path class="st8" d="M528.4,280.69l-0.95-1.34c-0.11,0.01-0.21,0.02-0.33,0.02H526v1.32h-0.44v-4.16h1.56
			c1.06,0,1.7,0.53,1.7,1.43c0,0.65-0.34,1.11-0.95,1.31l1.02,1.43H528.4z M528.38,277.96c0-0.67-0.44-1.05-1.27-1.05H526V279h1.1
			C527.94,279,528.38,278.61,528.38,277.96z"/>
		<path class="st8" d="M530.81,276.53h0.44v4.16h-0.44V276.53z"/>
		<path class="st8" d="M533.55,276.53h1.69c1.33,0,2.23,0.86,2.23,2.08s-0.9,2.08-2.23,2.08h-1.69V276.53z M535.22,280.31
			c1.1,0,1.82-0.7,1.82-1.7c0-1-0.71-1.7-1.82-1.7h-1.23v3.4H535.22z"/>
		<path class="st8" d="M542.35,280.31v0.38h-2.94v-4.16h2.85v0.38h-2.41v1.48H542v0.37h-2.15v1.54H542.35z"/>
		<path class="st8" d="M548.26,279.25v1.44h-0.43v-1.44l-1.66-2.72h0.47l1.43,2.33l1.43-2.33h0.44L548.26,279.25z"/>
		<path class="st8" d="M551.01,278.61c0-1.21,0.93-2.11,2.19-2.11c1.25,0,2.18,0.9,2.18,2.11s-0.93,2.11-2.18,2.11
			C551.94,280.73,551.01,279.82,551.01,278.61z M554.94,278.61c0-0.99-0.74-1.72-1.74-1.72c-1,0-1.75,0.73-1.75,1.72
			c0,0.99,0.75,1.72,1.75,1.72C554.2,280.33,554.94,279.6,554.94,278.61z"/>
		<path class="st8" d="M557.28,278.91v-2.38h0.44v2.36c0,0.99,0.46,1.44,1.27,1.44c0.81,0,1.28-0.45,1.28-1.44v-2.36h0.43v2.38
			c0,1.19-0.64,1.81-1.7,1.81S557.28,280.11,557.28,278.91z"/>
		<path class="st8" d="M565.81,280.69l-0.95-1.34c-0.11,0.01-0.21,0.02-0.33,0.02h-1.12v1.32h-0.44v-4.16h1.56
			c1.06,0,1.7,0.53,1.7,1.43c0,0.65-0.34,1.11-0.95,1.31l1.02,1.43H565.81z M565.79,277.96c0-0.67-0.44-1.05-1.27-1.05h-1.1V279h1.1
			C565.35,279,565.79,278.61,565.79,277.96z"/>
		<path class="st8" d="M576.43,276.53l-1.4,4.16h-0.46l-1.22-3.55l-1.22,3.55h-0.46l-1.4-4.16h0.45l1.2,3.58l1.24-3.58h0.41
			l1.22,3.59l1.22-3.59H576.43z"/>
		<path class="st8" d="M580.67,279.58h-2.32l-0.5,1.11h-0.46l1.9-4.16h0.43l1.9,4.16h-0.46L580.67,279.58z M580.51,279.22l-1-2.23
			l-1,2.23H580.51z"/>
		<path class="st8" d="M586.51,276.53l-1.84,4.16h-0.43l-1.84-4.16h0.48l1.59,3.61l1.6-3.61H586.51z"/>
		<path class="st8" d="M591,280.31v0.38h-2.94v-4.16h2.85v0.38h-2.41v1.48h2.15v0.37h-2.15v1.54H591z"/>
	</g>
</g>
<path class="st2" d="M604.2,329.77h-92.34c-4.38,0-7.94-3.55-7.94-7.94v0c0-4.38,3.55-7.94,7.94-7.94h92.34
	c4.38,0,7.94,3.55,7.94,7.94v0C612.14,326.22,608.59,329.77,604.2,329.77z"/>
<path class="st0" d="M568.59,141.53H547.6c-1,0-1.8-0.81-1.8-1.8l0,0c0-1,0.81-1.8,1.8-1.8h20.99c1,0,1.8,0.81,1.8,1.8l0,0
	C570.39,140.72,569.58,141.53,568.59,141.53z"/>
<g>
	<g>
		<path class="st0" d="M550.11,324.12v-4.27h0.46v3.86h2.18v0.41H550.11z"/>
		<path class="st0" d="M555.71,323.73c-0.26,0.26-0.62,0.42-1.06,0.42c-0.44,0-0.8-0.16-1.07-0.42c-0.4-0.4-0.43-0.77-0.43-1.75
			c0-0.98,0.02-1.35,0.43-1.75c0.26-0.26,0.62-0.42,1.07-0.42c0.44,0,0.8,0.16,1.06,0.42c0.4,0.4,0.43,0.77,0.43,1.75
			C556.14,322.96,556.11,323.33,555.71,323.73z M555.38,320.52c-0.2-0.2-0.45-0.3-0.74-0.3c-0.29,0-0.54,0.1-0.74,0.3
			c-0.27,0.28-0.3,0.59-0.3,1.46s0.03,1.19,0.3,1.46c0.2,0.2,0.45,0.3,0.74,0.3c0.29,0,0.54-0.1,0.74-0.3
			c0.27-0.28,0.3-0.59,0.3-1.46S555.65,320.79,555.38,320.52z"/>
		<path class="st0" d="M559.62,323.66c-0.3,0.33-0.7,0.49-1.14,0.49c-0.44,0-0.8-0.16-1.07-0.42c-0.4-0.4-0.43-0.77-0.43-1.75
			c0-0.98,0.02-1.35,0.43-1.75c0.26-0.26,0.62-0.42,1.07-0.42c0.8,0,1.37,0.54,1.49,1.28h-0.46c-0.12-0.55-0.5-0.87-1.04-0.87
			c-0.29,0-0.55,0.1-0.74,0.3c-0.27,0.28-0.3,0.59-0.3,1.46s0.03,1.19,0.3,1.46c0.19,0.2,0.44,0.3,0.74,0.3
			c0.31,0,0.61-0.13,0.81-0.37c0.17-0.22,0.24-0.45,0.24-0.77v-0.33h-1.05v-0.39h1.5v0.68C559.99,323.06,559.9,323.36,559.62,323.66
			z"/>
		<path class="st0" d="M561.05,324.12v-4.27h0.46v4.27H561.05z"/>
		<path class="st0" d="M565.47,324.12l-2.27-3.42v3.42h-0.46v-4.27h0.43l2.27,3.41v-3.41h0.46v4.27H565.47z"/>
	</g>
</g>
<g>
	<path class="st8" d="M50.66,26.81c-3.98-3.98-10.44-3.98-14.42,0s-3.98,10.44,0,14.42c3.51,3.51,8.93,3.92,12.9,1.25l3.66,0.88
		l-0.88-3.66C54.58,35.75,54.17,30.32,50.66,26.81z M48.18,38.75c-2.3,2.3-5.86,2.57-8.46,0.82l-2.4,0.58l0.58-2.4
		c-1.75-2.6-1.48-6.16,0.82-8.46c2.61-2.61,6.85-2.61,9.46,0C50.79,31.91,50.79,36.14,48.18,38.75z"/>
	<g>
		<circle class="st0" cx="40.19" cy="34.02" r="0.97"/>
		<circle class="st0" cx="43.42" cy="34.02" r="0.97"/>
		<circle class="st0" cx="46.65" cy="34.02" r="0.97"/>
	</g>
</g>
<g>
	<g>
		<path class="st0" d="M534.11,337.85v1.05h1.25v0.27h-1.25v1.25h-0.3v-2.85h1.77v0.27H534.11z"/>
		<path class="st0" d="M537.64,340.17c-0.18,0.18-0.41,0.28-0.71,0.28c-0.29,0-0.54-0.1-0.71-0.28c-0.27-0.27-0.28-0.52-0.28-1.17
			c0-0.65,0.02-0.9,0.28-1.17c0.18-0.18,0.42-0.28,0.71-0.28c0.3,0,0.53,0.1,0.71,0.28c0.27,0.27,0.29,0.52,0.29,1.17
			C537.93,339.66,537.91,339.9,537.64,340.17z M537.42,338.03c-0.13-0.13-0.3-0.2-0.49-0.2c-0.19,0-0.36,0.07-0.49,0.2
			c-0.18,0.18-0.2,0.39-0.2,0.98c0,0.58,0.02,0.79,0.2,0.98c0.13,0.13,0.3,0.2,0.49,0.2c0.19,0,0.36-0.07,0.49-0.2
			c0.18-0.18,0.2-0.39,0.2-0.98C537.62,338.42,537.6,338.21,537.42,338.03z"/>
		<path class="st0" d="M540.28,340.43l-0.65-1.26h-0.68v1.26h-0.3v-2.85h1.09c0.5,0,0.84,0.3,0.84,0.79c0,0.42-0.25,0.69-0.62,0.76
			l0.67,1.29H540.28z M539.71,337.85h-0.76v1.04h0.76c0.33,0,0.57-0.17,0.57-0.52S540.04,337.85,539.71,337.85z"/>
		<path class="st0" d="M542.92,340.12c-0.2,0.22-0.47,0.33-0.76,0.33c-0.29,0-0.54-0.1-0.71-0.28c-0.27-0.27-0.28-0.52-0.28-1.17
			c0-0.65,0.02-0.9,0.28-1.17c0.18-0.18,0.42-0.28,0.71-0.28c0.54,0,0.92,0.36,1,0.85h-0.3c-0.08-0.36-0.34-0.58-0.69-0.58
			c-0.2,0-0.36,0.07-0.49,0.2c-0.18,0.18-0.2,0.39-0.2,0.98c0,0.58,0.02,0.79,0.2,0.98c0.13,0.13,0.3,0.2,0.49,0.2
			c0.21,0,0.41-0.08,0.54-0.24c0.12-0.14,0.16-0.3,0.16-0.52v-0.22h-0.7v-0.26h1v0.45C543.16,339.72,543.1,339.92,542.92,340.12z"/>
		<path class="st0" d="M545.42,340.17c-0.18,0.18-0.41,0.28-0.71,0.28c-0.29,0-0.54-0.1-0.71-0.28c-0.27-0.27-0.28-0.52-0.28-1.17
			c0-0.65,0.02-0.9,0.28-1.17c0.18-0.18,0.42-0.28,0.71-0.28c0.3,0,0.53,0.1,0.71,0.28c0.27,0.27,0.29,0.52,0.29,1.17
			C545.71,339.66,545.69,339.9,545.42,340.17z M545.21,338.03c-0.13-0.13-0.3-0.2-0.49-0.2c-0.19,0-0.36,0.07-0.49,0.2
			c-0.18,0.18-0.2,0.39-0.2,0.98c0,0.58,0.02,0.79,0.2,0.98c0.13,0.13,0.3,0.2,0.49,0.2c0.19,0,0.36-0.07,0.49-0.2
			c0.18-0.18,0.2-0.39,0.2-0.98C545.41,338.42,545.39,338.21,545.21,338.03z"/>
		<path class="st0" d="M547.18,337.85v2.57h-0.3v-2.57h-0.82v-0.27h1.95v0.27H547.18z"/>
		<path class="st0" d="M550.31,339.25v1.18H550v-1.18l-0.85-1.67h0.33l0.67,1.36l0.66-1.36h0.33L550.31,339.25z"/>
		<path class="st0" d="M553.13,340.17c-0.18,0.18-0.41,0.28-0.71,0.28c-0.29,0-0.54-0.1-0.71-0.28c-0.27-0.27-0.28-0.52-0.28-1.17
			c0-0.65,0.02-0.9,0.28-1.17c0.18-0.18,0.42-0.28,0.71-0.28c0.3,0,0.53,0.1,0.71,0.28c0.27,0.27,0.29,0.52,0.29,1.17
			C553.42,339.66,553.39,339.9,553.13,340.17z M552.91,338.03c-0.13-0.13-0.3-0.2-0.49-0.2c-0.19,0-0.36,0.07-0.49,0.2
			c-0.18,0.18-0.2,0.39-0.2,0.98c0,0.58,0.02,0.79,0.2,0.98c0.13,0.13,0.3,0.2,0.49,0.2c0.19,0,0.36-0.07,0.49-0.2
			c0.18-0.18,0.2-0.39,0.2-0.98C553.11,338.42,553.09,338.21,552.91,338.03z"/>
		<path class="st0" d="M555.08,340.45c-0.58,0-0.99-0.4-0.99-0.96v-1.91h0.3v1.88c0,0.43,0.27,0.72,0.69,0.72s0.69-0.28,0.69-0.72
			v-1.88h0.3v1.91C556.08,340.06,555.66,340.45,555.08,340.45z"/>
		<path class="st0" d="M558.5,340.43l-0.65-1.26h-0.68v1.26h-0.3v-2.85h1.09c0.5,0,0.84,0.3,0.84,0.79c0,0.42-0.25,0.69-0.62,0.76
			l0.68,1.29H558.5z M557.93,337.85h-0.76v1.04h0.76c0.33,0,0.57-0.17,0.57-0.52S558.26,337.85,557.93,337.85z"/>
		<path class="st0" d="M561.54,339.26h-0.76v1.17h-0.3v-2.85h1.06c0.52,0,0.88,0.33,0.88,0.84S562.06,339.26,561.54,339.26z
			 M561.52,337.85h-0.73v1.13h0.73c0.36,0,0.6-0.19,0.6-0.57S561.88,337.85,561.52,337.85z"/>
		<path class="st0" d="M564.46,340.43l-0.23-0.64h-1.24l-0.23,0.64h-0.32l1.05-2.85h0.26l1.04,2.85H564.46z M563.62,338.02
			l-0.54,1.5h1.06L563.62,338.02z"/>
		<path class="st0" d="M565.98,340.45c-0.42,0-0.71-0.11-0.97-0.38l0.2-0.2c0.24,0.24,0.46,0.31,0.78,0.31
			c0.42,0,0.68-0.19,0.68-0.53c0-0.15-0.04-0.27-0.14-0.36c-0.09-0.08-0.17-0.11-0.37-0.14l-0.33-0.05
			c-0.22-0.04-0.39-0.1-0.52-0.22c-0.14-0.13-0.22-0.3-0.22-0.54c0-0.48,0.35-0.8,0.91-0.8c0.36,0,0.6,0.1,0.85,0.31l-0.2,0.2
			c-0.17-0.16-0.37-0.25-0.66-0.25c-0.38,0-0.6,0.21-0.6,0.53c0,0.14,0.04,0.26,0.13,0.33s0.22,0.12,0.37,0.15l0.33,0.05
			c0.26,0.04,0.39,0.09,0.52,0.2c0.15,0.13,0.24,0.32,0.24,0.56C566.96,340.14,566.58,340.45,565.98,340.45z"/>
		<path class="st0" d="M568.31,340.45c-0.42,0-0.71-0.11-0.97-0.38l0.2-0.2c0.24,0.24,0.46,0.31,0.78,0.31
			c0.42,0,0.68-0.19,0.68-0.53c0-0.15-0.04-0.27-0.14-0.36c-0.09-0.08-0.17-0.11-0.37-0.14l-0.33-0.05
			c-0.22-0.04-0.39-0.1-0.52-0.22c-0.14-0.13-0.22-0.3-0.22-0.54c0-0.48,0.35-0.8,0.91-0.8c0.36,0,0.6,0.1,0.85,0.31l-0.2,0.2
			c-0.17-0.16-0.37-0.25-0.66-0.25c-0.38,0-0.6,0.21-0.6,0.53c0,0.14,0.04,0.26,0.13,0.33s0.22,0.12,0.37,0.15l0.33,0.05
			c0.26,0.04,0.39,0.09,0.52,0.2c0.15,0.13,0.24,0.32,0.24,0.56C569.29,340.14,568.91,340.45,568.31,340.45z"/>
		<path class="st0" d="M572.14,340.43h-0.28l-0.63-2.28l-0.63,2.28h-0.28l-0.73-2.85h0.32l0.56,2.29l0.63-2.29h0.27l0.63,2.29
			l0.56-2.29h0.32L572.14,340.43z"/>
		<path class="st0" d="M574.9,340.17c-0.18,0.18-0.41,0.28-0.71,0.28c-0.29,0-0.54-0.1-0.71-0.28c-0.27-0.27-0.28-0.52-0.28-1.17
			c0-0.65,0.02-0.9,0.28-1.17c0.18-0.18,0.42-0.28,0.71-0.28c0.3,0,0.53,0.1,0.71,0.28c0.27,0.27,0.29,0.52,0.29,1.17
			C575.19,339.66,575.17,339.9,574.9,340.17z M574.69,338.03c-0.13-0.13-0.3-0.2-0.49-0.2c-0.19,0-0.36,0.07-0.49,0.2
			c-0.18,0.18-0.2,0.39-0.2,0.98c0,0.58,0.02,0.79,0.2,0.98c0.13,0.13,0.3,0.2,0.49,0.2c0.19,0,0.36-0.07,0.49-0.2
			c0.18-0.18,0.2-0.39,0.2-0.98C574.89,338.42,574.87,338.21,574.69,338.03z"/>
		<path class="st0" d="M577.54,340.43l-0.65-1.26h-0.68v1.26h-0.3v-2.85H577c0.5,0,0.84,0.3,0.84,0.79c0,0.42-0.25,0.69-0.62,0.76
			l0.67,1.29H577.54z M576.97,337.85h-0.76v1.04h0.76c0.33,0,0.57-0.17,0.57-0.52S577.3,337.85,576.97,337.85z"/>
		<path class="st0" d="M580.25,340.13c-0.19,0.21-0.43,0.3-0.75,0.3h-0.98v-2.85h0.98c0.32,0,0.56,0.09,0.75,0.3
			c0.25,0.27,0.25,0.69,0.25,1.12C580.51,339.44,580.51,339.86,580.25,340.13z M580.01,338.06c-0.14-0.16-0.34-0.21-0.56-0.21h-0.62
			v2.3h0.62c0.22,0,0.42-0.05,0.56-0.21c0.18-0.2,0.19-0.55,0.19-0.94C580.2,338.61,580.2,338.26,580.01,338.06z"/>
		<path class="st0" d="M582.44,338.77l-0.33,0.47c-0.05,0.07-0.07,0.17-0.07,0.23v0.16h-0.29v-0.16c0-0.16,0.04-0.26,0.12-0.38
			l0.32-0.47c0.08-0.11,0.13-0.2,0.13-0.34c0-0.27-0.19-0.47-0.46-0.47c-0.28,0-0.46,0.22-0.46,0.48h-0.29
			c0-0.41,0.32-0.73,0.75-0.73c0.42,0,0.75,0.3,0.75,0.73C582.62,338.47,582.54,338.62,582.44,338.77z M581.72,340.43v-0.34h0.34
			v0.34H581.72z"/>
	</g>
</g>
</svg>
