<?xml version="1.0" encoding="utf-8"?>
<!-- Generator: Adobe Illustrator 27.2.0, SVG Export Plug-In . SVG Version: 6.00 Build 0)  -->
<svg version="1.1" id="Layer_1" xmlns="http://www.w3.org/2000/svg" xmlns:xlink="http://www.w3.org/1999/xlink" x="0px" y="0px"
	 viewBox="0 0 80 70" style="enable-background:new 0 0 80 70;" xml:space="preserve">
<style type="text/css">
	.st0{fill:#FFFFFF;}
</style>
<path class="st0" d="M41.9,59.1c-1,1-1.6,1.1-1.9,1.1s-1-0.1-1.9-1.1c-1-1-2.1-2.6-3.1-5c-1.6-3.8-2.8-9-3.2-14.9h16.6
	c-0.4,5.9-1.6,11.1-3.2,14.9C44.1,56.5,43,58.1,41.9,59.1L41.9,59.1z M53.2,56.5c1.9-4.8,3.2-10.8,3.5-17.3h8.2
	C63.6,46.5,59.2,52.8,53.2,56.5z M53.2,13.5c6.1,3.7,10.5,10,11.7,17.3h-8.2C56.3,24.3,55.1,18.3,53.2,13.5z M73.6,35
	C73.6,16.4,58.6,1.4,40,1.4S6.4,16.4,6.4,35S21.4,68.6,40,68.6S73.6,53.6,73.6,35z M15.1,39.2h8.2c0.4,6.5,1.6,12.5,3.5,17.3
	C20.7,52.8,16.3,46.5,15.1,39.2z M23.3,30.8h-8.2c1.2-7.3,5.6-13.6,11.7-17.3C24.9,18.3,23.7,24.3,23.3,30.8z M38,10.9
	c1-1,1.6-1.1,1.9-1.1s1,0.1,1.9,1.1c1,1,2.1,2.6,3.1,5c1.6,3.8,2.8,9,3.2,14.9H31.7c0.4-5.9,1.6-11.1,3.2-14.9
	C35.9,13.5,37,11.9,38,10.9L38,10.9z"/>
</svg>
