<svg version="1.1" id="Layer_1" xmlns="http://www.w3.org/2000/svg" xmlns:xlink="http://www.w3.org/1999/xlink" x="0px" y="0px" viewBox="0 0 62 38" style="enable-background:new 0 0 62 38;" xml:space="preserve">
    <style type="text/css">
        .st0 {
            fill: #FFFFFF;
        }
        .st0:hover {
            fill: #00ffff;
        }
    </style>
    <path class="st0" d="M39,0.2H23c-8.6,0-15.6,7-15.6,15.6v0.3c0,7.3,5,13.4,11.8,15.1l-2.3,5.5c-0.2,0.6,0.4,1.1,0.9,0.9l11.3-5.9H39
                            c8.6,0,15.6-7,15.6-15.6v-0.3C54.6,7.1,47.6,0.2,39,0.2z M32.5,21.4H20.6c-0.9,0-1.7-0.8-1.7-1.7c0-0.9,0.8-1.7,1.7-1.7h11.9
                            c0.9,0,1.7,0.8,1.7,1.7C34.2,20.7,33.5,21.4,32.5,21.4z M41.4,14.2H20.6c-0.9,0-1.7-0.8-1.7-1.7c0-0.9,0.8-1.7,1.7-1.7h20.7
                            c0.9,0,1.7,0.8,1.7,1.7C43.1,13.5,42.3,14.2,41.4,14.2z"/>
</svg>