<?xml version="1.0" encoding="utf-8"?>
<!-- Generator: Adobe Illustrator 28.0.0, SVG Export Plug-In . SVG Version: 6.00 Build 0)  -->
<svg version="1.1" id="Layer_1" xmlns="http://www.w3.org/2000/svg" xmlns:xlink="http://www.w3.org/1999/xlink" x="0px" y="0px"
	 viewBox="0 0 62 38" style="enable-background:new 0 0 62 38;" xml:space="preserve">
<style type="text/css">
	.st0{fill:#FFFFFF;}
</style>
<g>
	<g>
		<path class="st0" d="M13.1,29.4v-7.4l-2.3-1.3v8.7C9.7,29.8,9,30.8,9,32c0,1.6,1.3,2.8,2.8,2.8s2.8-1.3,2.8-2.8
			C14.7,30.9,14,29.9,13.1,29.4z"/>
		<path class="st0" d="M31,31.5c-0.9,0-1.8-0.2-2.5-0.7l-12.5-7.3v5.7c0.1,0,0.1,0.1,0.2,0.1l12.6,7.3c1.4,0.8,3.1,0.8,4.5,0
			l12.6-7.3c1.4-0.8,2.3-2.4,2.3-3.9v-3l-14.7,8.4C32.8,31.2,31.9,31.5,31,31.5z M53,12.4L33.3,1.2c-0.7-0.4-1.5-0.6-2.3-0.6
			s-1.6,0.2-2.3,0.6L8.9,12.4c-1.5,0.9-1.5,3,0,3.9l20.9,12c0.4,0.2,0.7,0.3,1.1,0.3c0.4,0,0.8-0.1,1.1-0.3l20.9-12
			C54.5,15.5,54.5,13.3,53,12.4z"/>
	</g>
</g>
</svg>
