<?xml version="1.0" encoding="utf-8"?>
<!-- Generator: Adobe Illustrator 28.0.0, SVG Export Plug-In . SVG Version: 6.00 Build 0)  -->
<svg version="1.1" id="Layer_1" xmlns="http://www.w3.org/2000/svg" xmlns:xlink="http://www.w3.org/1999/xlink" x="0px" y="0px"
	 viewBox="0 0 32 32" style="enable-background:new 0 0 32 32;" xml:space="preserve">
<style type="text/css">
	.st0{fill:#04246B;}
	.st1{fill:#FFFFFF;}
</style>
<g>
	<circle class="st0" cx="16" cy="16" r="15.8"/>
</g>
<g>
	<path class="st1" d="M21,13.1h-7.6v-2.2c0-1.2,1-2.2,2.3-2.2c1.2,0,2.1,1.1,2.1,2.2v0.3c0,0.5,0.4,0.8,0.8,0.8
		c0.5,0,0.8-0.4,0.8-0.8v-0.4c0-1.1-0.4-2-1.1-2.7C17.6,7.4,16.6,7,15.5,7c-2.1,0.1-3.7,1.8-3.7,3.9v2.2h-1.5
		c-0.6,0-1.2,0.5-1.2,1.2v8.6c0,0.6,0.5,1.2,1.2,1.2H21c0.6,0,1.2-0.5,1.2-1.2v-8.6C22.1,13.6,21.6,13.1,21,13.1z M16.6,19.1v0.9
		c0,0.6-0.5,1-1,1c-0.6,0-1-0.5-1-1v-0.9c-0.4-0.3-0.7-0.8-0.7-1.4c0-1,0.8-1.8,1.8-1.8s1.8,0.8,1.8,1.8
		C17.4,18.2,17.1,18.7,16.6,19.1z"/>
</g>
</svg>
