<?xml version="1.0" encoding="utf-8"?>
<!-- Generator: Adobe Illustrator 27.7.0, SVG Export Plug-In . SVG Version: 6.00 Build 0)  -->
<svg version="1.1" id="Layer_1" xmlns="http://www.w3.org/2000/svg" xmlns:xlink="http://www.w3.org/1999/xlink" x="0px" y="0px"
	 viewBox="0 0 28 48" style="enable-background:new 0 0 28 48;" xml:space="preserve">
<style type="text/css">
	.st0{fill:#FFFFFF;}
	.st1{fill:#212C58;}
</style>
<g>
	<g>
		<path class="st0" d="M14,0.2C6.5,0.2,0.4,6.3,0.4,13.8v20.4c0,7.5,6.1,13.6,13.6,13.6s13.6-6.1,13.6-13.6V13.8
			C27.6,6.3,21.5,0.2,14,0.2z"/>
	</g>
	<g>
		<path class="st1" d="M25.5,34.2c0,6.3-5.1,11.5-11.5,11.5c-6.3,0-11.5-5.1-11.5-11.5V13.8C2.5,7.5,7.7,2.3,14,2.3
			c6.3,0,11.5,5.1,11.5,11.5V34.2z"/>
	</g>
	<path class="st0" d="M14,16.1L14,16.1c-0.8,0-1.4-0.6-1.4-1.4V10c0-0.8,0.6-1.4,1.4-1.4l0,0c0.8,0,1.4,0.6,1.4,1.4v4.7
		C15.4,15.5,14.8,16.1,14,16.1z"/>
</g>
</svg>
