<?xml version="1.0" encoding="utf-8"?>
<!-- Generator: Adobe Illustrator 28.0.0, SVG Export Plug-In . SVG Version: 6.00 Build 0)  -->
<svg version="1.1" id="Layer_1" xmlns="http://www.w3.org/2000/svg" xmlns:xlink="http://www.w3.org/1999/xlink" x="0px" y="0px"
	 viewBox="0 0 62 38" style="enable-background:new 0 0 62 38;" xml:space="preserve">
<style type="text/css">
	.st0{fill:#FFFFFF;}
</style>
<g id="lists_icon">
	<g id="right_button">
		<path id="icon_00000068656261672076974480000012193293335651236748_" class="st0" d="M48.4,0.1H13.6c-3.2,0-5.8,2.6-5.8,5.8v26.2
			c0,3.2,2.6,5.8,5.8,5.8h34.8c3.2,0,5.8-2.6,5.8-5.8V5.9C54.1,2.7,51.6,0.1,48.4,0.1z M31.1,28H18.4c-0.9,0-1.7-0.8-1.7-1.7
			s0.8-1.7,1.7-1.7h12.8c0.9,0,1.7,0.8,1.7,1.7S32.1,28,31.1,28z M43.6,20.6H18.4c-0.9,0-1.7-0.8-1.7-1.7s0.8-1.7,1.7-1.7h25.2
			c0.9,0,1.7,0.8,1.7,1.7S44.6,20.6,43.6,20.6z M43.6,13.3H18.4c-0.9,0-1.7-0.8-1.7-1.7s0.8-1.7,1.7-1.7h25.2c0.9,0,1.7,0.8,1.7,1.7
			S44.6,13.3,43.6,13.3z"/>
	</g>
</g>
</svg>
