<?xml version="1.0" encoding="utf-8"?>
<!-- Generator: Adobe Illustrator 28.0.0, SVG Export Plug-In . SVG Version: 6.00 Build 0)  -->
<svg version="1.1" id="Layer_1" xmlns="http://www.w3.org/2000/svg" xmlns:xlink="http://www.w3.org/1999/xlink" x="0px" y="0px"
	 viewBox="0 0 62 38" style="enable-background:new 0 0 62 38;" xml:space="preserve">
<style type="text/css">
	.st0{fill:#FFFFFF;}
</style>
<g>
	<path class="st0" d="M31,33.7h4.1V11.8c0-0.9,0.9-1.5,1.8-1.2l11.3,4.9c0.8,0.4,1.2,1.1,1.2,1.9v16.3h2c1.1,0,2,0.9,2,2v0
		c0,1.1-0.9,2-2,2H10.6c-1.1,0-2-0.9-2-2v0c0-1.1,0.9-2,2-2h2V9.2c0-0.8,0.5-1.5,1.2-1.9l15.7-7c0.3-0.1,0.7-0.1,1,0.1
		C30.8,0.6,31,0.9,31,1.3V33.7z"/>
</g>
</svg>
