<?xml version="1.0" encoding="utf-8"?>
<!-- Generator: Adobe Illustrator 27.5.0, SVG Export Plug-In . SVG Version: 6.00 Build 0)  -->
<svg version="1.1" id="Layer_1" xmlns="http://www.w3.org/2000/svg" xmlns:xlink="http://www.w3.org/1999/xlink" x="0px" y="0px"
	 viewBox="0 0 60 48" style="enable-background:new 0 0 60 48;" xml:space="preserve">
<style type="text/css">
	.st0{fill:white;}
</style>
<path class="st0" d="M0.2,6.2c0-3.3,2.7-6,6-6h47.6c3.3,0,6,2.7,6,6v35.6c0,3.3-2.7,6-6,6H6.2c-3.3,0-6-2.7-6-6
	C0.2,41.8,0.2,6.2,0.2,6.2z M33,33l-9-9L6.2,41.8h47.6L39,27L33,33z M44.8,21c3.3,0,6-2.7,6-6s-2.7-6-6-6c-3.3,0-6,2.7-6,6
	S41.5,21,44.8,21z"/>
</svg>
