<?xml version="1.0" encoding="utf-8"?>
<!-- Generator: Adobe Illustrator 27.1.1, SVG Export Plug-In . SVG Version: 6.00 Build 0)  -->
<svg version="1.1" id="Layer_1" xmlns="http://www.w3.org/2000/svg" xmlns:xlink="http://www.w3.org/1999/xlink" x="0px" y="0px"
	 viewBox="0 0 80 70" style="enable-background:new 0 0 80 70;" xml:space="preserve">
<style type="text/css">
	.st0{fill:#FFFFFF;}
</style>
<path class="st0" d="M68,13.2H52.3V8c0-5.3-5-5-5-5H31.8c-4.9,0-5,5.1-5,5.1v5.2H11c-5.2,0-9.5,4.3-9.5,9.5v35.7
	c0,5.2,4.3,9.5,9.5,9.5h57.1c5.2,0,9.5-4.3,9.5-9.5V22.8C77.6,17.5,73.3,13.2,68,13.2z M31.8,10.5c0-2.3,2.6-2.5,2.6-2.5h10.3
	c2.7,0,2.6,2.8,2.6,2.8l-0.1,2.4H31.8V10.5z M64.5,36.1c-0.5,0.5-1.2,0.8-1.9,0.8H15.5c-1.5,0-2.7-1.2-2.7-2.8
	c0-0.8,0.3-1.4,0.8-1.9s1.2-0.8,1.9-0.8h47.1c1.5,0,2.7,1.2,2.7,2.8C65.3,34.9,65,35.6,64.5,36.1z"/>
</svg>
