<?xml version="1.0" encoding="utf-8"?>
<!-- Generator: Adobe Illustrator 27.2.0, SVG Export Plug-In . SVG Version: 6.00 Build 0)  -->
<svg version="1.1" id="Layer_1" xmlns="http://www.w3.org/2000/svg" xmlns:xlink="http://www.w3.org/1999/xlink" x="0px" y="0px"
	 viewBox="0 0 80 70" style="enable-background:new 0 0 80 70;" xml:space="preserve">
<style type="text/css">
	.st0{fill:#FFFFFF;}
</style>
<path class="st0" d="M18.9,56L18.9,56c0-2.3,1.9-4.1,4.1-4.1h40.7c3.2,0,5.9-2.6,5.9-5.9V8.1c0-3.8-3-6.8-6.8-6.8H23.2
	c-7.1,0-12.9,5.8-12.9,12.9v41.7c0,7.1,5.8,12.9,12.9,12.9h42.1c2.4,0,4.3-1.9,4.3-4.3v0c0-2.4-1.9-4.3-4.3-4.3H23.1
	C20.8,60.1,18.9,58.3,18.9,56z"/>
</svg>
