<?xml version="1.0" encoding="utf-8"?>
<!-- Generator: Adobe Illustrator 27.2.0, SVG Export Plug-In . SVG Version: 6.00 Build 0)  -->
<svg version="1.1" id="Layer_1" xmlns="http://www.w3.org/2000/svg" xmlns:xlink="http://www.w3.org/1999/xlink" x="0px" y="0px"
	 viewBox="0 0 80 70" style="enable-background:new 0 0 80 70;" xml:space="preserve">
<style type="text/css">
	.st0{fill:#CDAA44;}
	.st1{fill:#000C3B;}
	.st2{fill:#FFFFFF;}
</style>
<g>
	<g>
		<path class="st0" d="M63.9,11.2C50.7-2,29.4-2,16.2,11.2S3,45.7,16.2,58.9c11.6,11.6,29.6,13,42.7,4.1L71,66L68,53.9
			C76.9,40.7,75.5,22.8,63.9,11.2z"/>
	</g>
	<g>
		<path class="st1" d="M55.7,50.7c-7.6,7.6-19.4,8.5-28,2.7l-7.9,1.9l1.9-7.9c-5.8-8.6-4.9-20.4,2.7-28c8.6-8.6,22.7-8.6,31.3,0
			C64.3,28,64.3,42,55.7,50.7z"/>
		<g>
			<ellipse transform="matrix(0.1299 -0.9915 0.9915 0.1299 -9.2748 59.4985)" class="st2" cx="29.3" cy="35" rx="3.2" ry="3.2"/>
			<ellipse transform="matrix(0.1602 -0.9871 0.9871 0.1602 -1.0335 68.8531)" class="st2" cx="39.9" cy="35" rx="3.2" ry="3.2"/>
			<ellipse transform="matrix(0.1602 -0.9871 0.9871 0.1602 7.9381 79.398)" class="st2" cx="50.6" cy="35" rx="3.2" ry="3.2"/>
		</g>
	</g>
</g>
</svg>
