<?xml version="1.0" encoding="utf-8"?>
<!-- Generator: Adobe Illustrator 27.5.0, SVG Export Plug-In . SVG Version: 6.00 Build 0)  -->
<svg version="1.1" id="Layer_1" xmlns="http://www.w3.org/2000/svg" xmlns:xlink="http://www.w3.org/1999/xlink" x="0px" y="0px"
	 viewBox="0 0 640 460" style="enable-background:new 0 0 640 460;" xml:space="preserve">
<style type="text/css">
	.st0{opacity:0.3;fill-rule:evenodd;clip-rule:evenodd;fill:#1F1990;}
	.st1{opacity:0.4;fill-rule:evenodd;clip-rule:evenodd;fill:#1F1990;}
</style>
<path class="st0" d="M329.3,32.7c-40.6-40.3-106.8-40.3-147.4,0l-0.7,1l-1-1c-40.3-40.3-106.4-40.3-147,0
	C-7.1,73.3-7.1,139.4,33.2,180l0.7,0.7l147.4,147l147-147l1-0.7C369.6,139.4,369.6,73.3,329.3,32.7z"/>
<path class="st1" d="M601.5,100.7c-49.1-48.7-129.2-48.7-178.3,0l-0.8,1.3l-1.3-1.3c-48.7-48.7-128.8-48.7-177.9,0
	c-48.7,49.1-48.7,129.2,0,178.3l0.8,0.8l178.3,177.9l177.9-177.9l1.3-0.8C650.2,229.9,650.2,149.8,601.5,100.7z"/>
</svg>
