<?xml version="1.0" encoding="utf-8"?>
<!-- Generator: Adobe Illustrator 27.1.1, SVG Export Plug-In . SVG Version: 6.00 Build 0)  -->
<svg version="1.1" id="Layer_1" xmlns="http://www.w3.org/2000/svg" xmlns:xlink="http://www.w3.org/1999/xlink" x="0px" y="0px"
	 viewBox="0 0 72 72" style="enable-background:new 0 0 72 72;" xml:space="preserve">
<style type="text/css">
	.st0{fill:#FFFFFF;}
</style>
<path class="st0" d="M71.6,19C71.6,8.8,63.2,0.4,53,0.4H19C8.8,0.4,0.4,8.8,0.4,19v34c0,10.3,8.4,18.6,18.6,18.6h34
	c10.3,0,18.6-8.4,18.6-18.6L71.6,19z M48.9,42.1C44.4,47.6,37.3,48,34,44.6c-0.3-0.3-0.5-0.6-0.7-0.9c0,0.1-0.1,0.2-0.1,0.3
	c-1.6,6.2-1.8,7.6-3.4,10.5c-0.8,1.4-1.7,2.7-2.6,3.9c-0.1,0.1-0.2,0.3-0.4,0.3c-0.2-0.1-0.3-0.3-0.3-0.5c-0.3-1.9-0.4-3.8-0.3-5.7
	c0.1-2.5,0.4-3.3,3.6-16.8c0-0.2,0-0.4-0.1-0.6c-0.8-2.1-0.9-4.2-0.2-6.3c1.5-4.6,6.7-5,7.6-1.2c0.6,2.3-0.9,5.4-2.1,10
	c-0.9,3.7,3.5,6.4,7.2,3.7c3.5-2.5,4.8-8.6,4.6-12.8c-0.5-8.5-9.9-10.4-15.8-7.6c-6.8,3.1-8.4,11.6-5.3,15.5
	c0.4,0.5,0.7,0.8,0.6,1.3c-0.2,0.8-0.4,1.6-0.6,2.3c-0.2,0.6-0.6,0.8-1.2,0.5c-1.1-0.5-2.1-1.2-2.8-2.1c-2.6-3.2-3.4-9.6,0.1-15
	c3.8-6,10.9-8.4,17.4-7.7c7.8,0.9,12.7,6.2,13.6,12.2C53,30.6,52.7,37.4,48.9,42.1z"/>
</svg>
