<?xml version="1.0" encoding="utf-8"?>
<!-- Generator: Adobe Illustrator 27.2.0, SVG Export Plug-In . SVG Version: 6.00 Build 0)  -->
<svg version="1.1" id="Layer_1" xmlns="http://www.w3.org/2000/svg" xmlns:xlink="http://www.w3.org/1999/xlink" x="0px" y="0px"
	 viewBox="0 0 80 70" style="enable-background:new 0 0 80 70;" xml:space="preserve">
<style type="text/css">
	.st0{fill-rule:evenodd;clip-rule:evenodd;fill:#FFFFFF;}
</style>
<path class="st0" d="M62.9,1.3H17.1c-3.7,0-6.8,3-6.8,6.8v53.8c0,3.7,3,6.8,6.8,6.8h45.7c3.7,0,6.8-3,6.8-6.8V8.1
	C69.6,4.3,66.6,1.3,62.9,1.3z M56.9,46.6c-0.5,0.5-1.2,0.8-1.8,0.8H24.9c-1.4,0-2.6-1.2-2.6-2.7c0-0.8,0.3-1.3,0.8-1.8
	s1.2-0.8,1.8-0.8h30.2c1.4,0,2.6,1.2,2.6,2.7C57.6,45.6,57.4,46.1,56.9,46.6z M56.9,36.9c-0.5,0.5-1.2,0.8-1.8,0.8H24.9
	c-1.4,0-2.6-1.2-2.6-2.7c0-0.8,0.3-1.3,0.8-1.8s1.2-0.8,1.8-0.8h30.2c1.4,0,2.6,1.2,2.6,2.7C57.6,35.9,57.4,36.5,56.9,36.9z
	 M56.9,27.1c-0.5,0.5-1.2,0.8-1.8,0.8H24.9c-1.4,0-2.6-1.2-2.6-2.7c0-0.8,0.3-1.3,0.8-1.8c0.5-0.5,1.2-0.8,1.8-0.8h30.2
	c1.4,0,2.6,1.2,2.6,2.7C57.6,26,57.4,26.7,56.9,27.1z"/>
</svg>
