<?xml version="1.0" encoding="utf-8"?>
<!-- Generator: Adobe Illustrator 27.8.1, SVG Export Plug-In . SVG Version: 6.00 Build 0)  -->
<svg version="1.1" id="Layer_1" xmlns="http://www.w3.org/2000/svg" xmlns:xlink="http://www.w3.org/1999/xlink" x="0px" y="0px"
	 viewBox="0 0 80 70" style="enable-background:new 0 0 80 70;" xml:space="preserve">
<style type="text/css">
	.st0{fill:#FFFFFF;}
</style>
<path class="st0" d="M67.1,16.1L42.8,2.1C41.9,1.6,41,1.3,40,1.3c-1,0-1.9,0.3-2.8,0.7L12.9,16.1c-1.7,1-2.8,2.8-2.8,4.8v28.1
	c0,2,1.1,3.8,2.8,4.8l24.4,14.1c0.8,0.5,1.8,0.7,2.8,0.7c1,0,1.9-0.3,2.8-0.7l24.4-14.1c1.7-1,2.8-2.8,2.8-4.8V20.9
	C69.9,19,68.9,17.1,67.1,16.1z"/>
</svg>
