<?xml version="1.0" encoding="utf-8"?>
<!-- Generator: Adobe Illustrator 27.8.1, SVG Export Plug-In . SVG Version: 6.00 Build 0)  -->
<svg version="1.1" id="Layer_1" xmlns="http://www.w3.org/2000/svg" xmlns:xlink="http://www.w3.org/1999/xlink" x="0px" y="0px"
	 viewBox="0 0 80 70" style="enable-background:new 0 0 80 70;" xml:space="preserve">
<style type="text/css">
	.st0{fill:#FFFFFF;}
</style>
<g>
	<g>
		<path class="st0" d="M28.8,35c0,6.2,5,11.2,11.2,11.2s11.2-5,11.2-11.2s-5-11.2-11.2-11.2S28.8,28.8,28.8,35z"/>
	</g>
	<path class="st0" d="M6.4,35c0,18.5,15,33.6,33.6,33.6S73.6,53.5,73.6,35S58.5,1.4,40,1.4S6.4,16.5,6.4,35z M17.6,35
		c0-12.4,10-22.4,22.4-22.4s22.4,10,22.4,22.4c0,3.9-0.9,7.5-2.7,10.8l2.8,11.7l-11.7-3c-3.2,1.8-6.9,2.7-10.8,2.7
		C27.6,57.4,17.6,47.4,17.6,35z"/>
</g>
</svg>
