<svg version="1.1" id="Layer_1" xmlns="http://www.w3.org/2000/svg" xmlns:xlink="http://www.w3.org/1999/xlink" width="124" height="124" x="0px" y="0px" viewBox="0 0 118 118" style="enable-background:new 0 0 118 118;" xml:space="preserve">
    <path fill="#FFFFFF" d="M59,10c-27.1,0-49,21.9-49,49s21.9,49,49,49c27.1,0,49-21.9,49-49S86.1,10,59,10z M40.2,39.3c4.2,0,7.5,4,7.5,9
        s-3.4,9-7.5,9s-7.5-4-7.5-9S36,39.3,40.2,39.3z M83.6,75.2C78.4,83,69.3,88.1,59,88.1c-10.3,0-19.4-5-24.6-12.9
        c-1.7-2.5,1.5-5.4,3.8-3.6C43.7,76,51,78.5,59,78.5c8,0,15.3-2.5,20.8-6.8C82.1,69.8,85.3,72.7,83.6,75.2z M77.6,57.2
        c-4.2,0-7.5-4-7.5-9s3.4-9,7.5-9c4.2,0,7.5,4,7.5,9S81.8,57.2,77.6,57.2z"/>
</svg>