<?xml version="1.0" encoding="utf-8"?>
<!-- Generator: Adobe Illustrator 27.2.0, SVG Export Plug-In . SVG Version: 6.00 Build 0)  -->
<svg version="1.1" id="Layer_1" xmlns="http://www.w3.org/2000/svg" xmlns:xlink="http://www.w3.org/1999/xlink" x="0px" y="0px"
	 viewBox="0 0 80 70" style="enable-background:new 0 0 80 70;" xml:space="preserve">
<style type="text/css">
	.st0{fill:#FFFFFF;}
</style>
<g>
	<g>
		<path class="st0" d="M14.9,66.1l10.8-3.9c1.5-0.6,3.1-1.5,4.2-2.7l36.4-36.4L51.9,8.9L15.6,45.1c-1.1,1.1-2.1,2.7-2.7,4.2L9,60.1
			C6.4,66.7,7.9,68.6,14.9,66.1z"/>
	</g>
	<g>
		<path class="st0" d="M71.2,7.6L67.5,4c-1.4-1.4-3.5-2.2-5.7-2c-2.1,0.1-4.1,1.1-5.6,2.7l-1,1l14.3,14.3l1-1
			c1.5-1.5,2.5-3.5,2.7-5.6C73.3,11.1,72.6,9,71.2,7.6z"/>
	</g>
</g>
</svg>
