<?xml version="1.0" encoding="utf-8"?>
<!-- Generator: Adobe Illustrator 27.0.0, SVG Export Plug-In . SVG Version: 6.00 Build 0)  -->
<svg version="1.1" id="Layer_1" xmlns="http://www.w3.org/2000/svg" xmlns:xlink="http://www.w3.org/1999/xlink" x="0px" y="0px"
	 viewBox="0 0 80 70" style="enable-background:new 0 0 80 70;" xml:space="preserve">
<style type="text/css">
	.st0{fill:#FFFFFF;}
</style>
<path id="_x33_1625ee0-a24e-42ee-acc5-7a19af8dfb28" class="st0" d="M69.8,11L54.4,27.6V16.8c0-4-3.2-7.2-7.2-7.2h-36
	c-4,0-7.2,3.2-7.2,7.2v36c0,4,3.2,7.2,7.2,7.2h36c4,0,7.2-3.2,7.2-7.2v-9l15.4,15.4c1.4,1.4,3.7,1.4,5.1,0c0.7-0.7,1.1-1.6,1.1-2.5
	V13.6c0.1-2-1.5-3.6-3.5-3.7C71.5,9.8,70.5,10.3,69.8,11z"/>
</svg>
