<?xml version="1.0" encoding="utf-8"?>
<!-- Generator: Adobe Illustrator 27.6.1, SVG Export Plug-In . SVG Version: 6.00 Build 0)  -->
<svg version="1.1" id="Layer_1" xmlns="http://www.w3.org/2000/svg" xmlns:xlink="http://www.w3.org/1999/xlink" x="0px" y="0px"
	 viewBox="0 0 18 20" style="enable-background:new 0 0 18 20;" xml:space="preserve">
<style type="text/css">
	.st0{fill:#FFFFFF;}
</style>
<g>
	<g>
		<path class="st0" d="M17.8,0.2v5.3h-0.5c-0.3-1.2-0.7-2.1-1-2.6c-0.4-0.5-0.9-1-1.6-1.3c-0.4-0.2-1-0.3-1.9-0.3h-1.5v15.2
			c0,1,0.1,1.6,0.2,1.9c0.1,0.3,0.3,0.5,0.7,0.7c0.3,0.2,0.8,0.3,1.3,0.3h0.7v0.5H3.8v-0.5h0.7c0.6,0,1-0.1,1.4-0.3
			c0.3-0.1,0.4-0.4,0.6-0.7c0.1-0.2,0.2-0.8,0.2-1.8V1.3H5.2c-1.3,0-2.3,0.3-2.9,0.8C1.5,2.9,0.9,4,0.7,5.5H0.2V0.2H17.8z"/>
	</g>
</g>
</svg>
