<?xml version="1.0" encoding="utf-8"?>
<!-- Generator: Adobe Illustrator 28.0.0, SVG Export Plug-In . SVG Version: 6.00 Build 0)  -->
<svg version="1.1" id="Layer_1" xmlns="http://www.w3.org/2000/svg" xmlns:xlink="http://www.w3.org/1999/xlink" x="0px" y="0px"
	 viewBox="0 0 328 182" style="enable-background:new 0 0 328 182;" xml:space="preserve">
<style type="text/css">
	.st0{fill:#FFFFFF;}
</style>
<g>
	<g>
		<path class="st0" d="M86.7,5.4c0.4,0.1,0.6,0.3,0.8,0.7c0.1,0.3,0.2,0.7,0.1,1c-0.1,0.4-0.3,0.6-0.6,0.8
			c-3.2,1.5-9.9,4.8-20.2,9.8c-11.8,5.7-20.8,10-26.9,13c-0.6,6.3-1.6,20.3-3,41.9c-1.4,22.4-2.5,38-3.2,46.8
			c-0.6,7.1-1.1,12.5-1.6,16.1c-0.4,2.8-0.7,4.8-1.1,5.7c-0.3,1-0.8,1.5-1.5,1.6c-0.1,0-0.2,0-0.3,0c-0.9,0-1.5-0.6-1.8-1.9
			c-0.3-1.2-0.7-4.2-1-8.8c0-0.4,0.1-0.7,0.4-1c0.2-0.3,0.6-0.4,0.9-0.4c0.2,0,0.5,0,0.7,0.1s0.4,0.3,0.5,0.5s0.2,0.5,0.2,0.7
			c0.1,1,0.1,2,0.2,2.8c1-8,2.6-28.9,4.8-62.6c1.3-20.4,2.2-33.7,2.8-40.2c-4.1,2-7.7,3.8-10.9,5.4C14,43.8,6.8,48,4.3,50.2
			c0.5,0.3,0.8,0.7,0.8,1.2c0,0.8-0.4,1.2-1.2,1.3c-0.1,0-0.2,0-0.3,0c-1.5,0-2.4-0.6-2.7-1.7c-0.1-0.7,0.3-1.6,1.1-2.5
			c0.9-0.9,2.7-2.2,5.4-3.9c3.6-2.2,8.8-5.1,15.8-8.7c8.5-4.4,22.5-11.3,42.2-20.7c10.3-4.9,17-8.2,20.1-9.8
			C85.9,5.3,86.3,5.3,86.7,5.4z"/>
		<path class="st0" d="M74.6,74.7c0.4-0.1,0.7-0.2,1,0c0.3,0.1,0.6,0.4,0.7,0.7c0.2,0.4,0.2,0.7,0,1.1c-1.2,2.7-2.3,5.2-3.4,7.3
			c-1.1,2.2-2.1,3.9-2.9,5.3s-1.6,2.5-2.4,3.5s-1.5,1.7-2,2.1s-1,0.8-1.6,1c-0.5,0.2-0.9,0.3-1.1,0.3c-0.2,0-0.5,0-0.8,0
			c-2.3-0.2-3.9-2.5-4.9-6.9c-0.2-1-0.4-1.8-0.7-2.4s-0.5-1.1-0.7-1.3c-0.2-0.2-0.3-0.3-0.4-0.3h-0.1c-0.4,0.1-0.8,0.4-1.4,1.1
			c-0.6,0.7-1.2,1.8-1.9,3.2c-0.7,1.5-1.5,3.2-2.2,5.2s-1.5,4.6-2.3,7.6c-0.8,3.1-1.5,6.3-2.2,9.8c-0.1,0.6-0.5,1-1.1,1.1
			c-0.1,0-0.2,0-0.3,0c-0.2,0-0.5-0.1-0.6-0.2c-0.2-0.1-0.3-0.3-0.5-0.5c-0.1-0.2-0.2-0.4-0.2-0.6c-0.2-1.9,0.1-8.3,0.8-19.1
			s1.4-19.5,1.9-26.1s1-11.6,1.3-15.1c0.6-6.7,1.6-12.5,2.9-17.4c1.4-4.9,2.8-7.6,4.2-8.1c0.8-0.3,1.4-0.1,1.9,0.4
			c1.2,1.2,1.2,5-0.1,11.2s-3.7,13.9-7,23.1c-1.3,15.4-2.2,27.8-2.8,37.1c1.4-4.7,2.9-8.4,4.5-11.3s3.3-4.3,5-4.3
			c2.2,0,3.7,2,4.5,6.1c0.7,3.1,1.5,4.7,2.5,4.8c0.1,0,0.3,0,0.6-0.1c0.2-0.1,0.7-0.4,1.4-1.1c0.7-0.6,1.5-1.5,2.2-2.7
			c0.8-1.2,1.8-2.9,3.1-5.3c1.3-2.4,2.6-5.3,4-8.6C74,75,74.3,74.8,74.6,74.7z M54.1,30.2c-2,4.1-3.5,10.6-4.4,19.5
			C52.5,40.7,54,34.3,54.1,30.2z"/>
		<path class="st0" d="M101.2,71.1c0.3-0.2,0.7-0.2,1-0.1c0.4,0.1,0.6,0.3,0.8,0.7c0.2,0.3,0.2,0.7,0.1,1c-3.4,11.1-7.1,17-11,17.6
			c-0.2,0-0.5,0.1-0.8,0c-3.2-0.1-5.8-4-7.8-11.7c-1.8,3.4-3.5,6.3-4.9,8.5c-1.3,1.9-2.6,2.7-3.8,2.4c-1.2-0.2-1.9-1.4-2.2-3.4
			c-0.3-1.7-0.2-3.8,0.2-6.2c0.4-2.5,1.1-4.9,2.2-7.3s2.5-4.1,4.1-4.9c2.3-1.3,4.8-0.8,7.3,1.4c0.3,0.2,0.4,0.6,0.5,0.9
			c0,0.4-0.1,0.7-0.3,1s-0.6,0.4-0.9,0.5c-0.4,0-0.7-0.1-1-0.3c-1.9-1.7-3.7-1.8-5.2-0.3c-1.7,1.7-2.9,4.4-3.7,8.1
			c-0.7,3.7-0.9,6.3-0.3,7.8c0.2-0.3,0.5-0.6,0.8-1.1c1.6-2.3,3.4-5.5,5.5-9.7c0.5-0.9,0.8-1.6,1-2c0.3-0.5,0.8-0.8,1.4-0.7
			c0.6,0.1,1,0.4,1.2,1.1c0.5,2.3,1,4.3,1.5,6c0.6,1.7,1,3,1.5,3.9s0.9,1.6,1.3,2.1c0.5,0.6,0.8,0.9,1.1,1c0.2,0.1,0.5,0.2,0.7,0.1
			c0.7,0,1.5-0.4,2.3-1.3c0.9-0.9,1.9-2.6,3.2-5.1c1.2-2.5,2.4-5.5,3.5-9.2C100.6,71.5,100.9,71.2,101.2,71.1z"/>
		<path class="st0" d="M127,67c0.4-0.2,0.7-0.2,1.1,0c0.4,0.1,0.6,0.4,0.8,0.7c0.1,0.3,0.2,0.7,0,1c-1.2,3.1-2.2,5.5-3.1,7.3
			s-1.9,3.3-3,4.4s-2.2,1.7-3.4,1.8c-2.4,0.1-4.6-2.2-6.7-6.7c-1.5-3.1-2.6-4.6-3.3-4.5c-0.1,0-0.3,0.1-0.6,0.3
			c-0.2,0.2-0.6,0.7-1,1.5c-0.5,0.8-0.9,1.8-1.4,3.1c-0.5,1.3-1.1,3.1-1.9,5.6c-0.7,2.5-1.5,5.4-2.3,8.7c-0.1,0.6-0.5,0.9-1.1,1
			c-0.1,0-0.2,0-0.3,0c-0.8-0.1-1.3-0.5-1.3-1.3c-0.1-3.9,0.5-11.3,1.9-22.3c0.2-1.1,0.3-2,0.3-2.6c0.1-0.4,0.3-0.7,0.6-0.9
			c0.3-0.2,0.6-0.3,1-0.3s0.7,0.2,0.9,0.5c0.2,0.3,0.3,0.6,0.2,1c0,0.3-0.1,1.2-0.3,2.6c-0.5,3.8-0.8,6.7-1.1,8.8
			c1.1-3,2.1-5.2,3-6.4c1-1.3,2-1.9,3-2c1.2-0.1,2.3,0.3,3.2,1.4c0.9,1.1,1.9,2.7,2.8,4.7c1.6,3.4,3,5.1,4.2,5.1
			c0.6,0,1.2-0.4,1.9-1.3c0.7-0.9,1.4-2,2.1-3.6c0.7-1.5,1.3-2.7,1.6-3.6c0.4-0.9,0.8-2,1.3-3.3C126.4,67.4,126.6,67.1,127,67z"/>
		<path class="st0" d="M154.4,62.5c0.4-0.1,0.7-0.1,1,0s0.6,0.4,0.7,0.8c0.2,0.4,0.2,0.7,0,1c-2,4.7-4.9,9.3-8.9,14
			s-7.6,7.3-10.7,7.8c-0.4,0.1-0.7,0.1-1.1,0.1c-2.3-0.1-3.9-1.5-4.9-4.2c-0.2-0.4-0.1-0.8,0.1-1.2c0.2-0.4,0.7-1,1.4-1.8
			c1.5-1.8,2.6-3.2,3.2-4.4c0.4-0.8,0.8-1.7,1-2.6s0.4-1.6,0.4-2.1c0-0.6-0.1-1-0.2-1.3c-1,0.6-2.2,2.4-3.5,5.4
			c-1,2.2-1.9,4.8-2.7,8s-1.4,5.8-1.8,7.8c-0.3,2.1-0.8,4.9-1.3,8.5l-0.2,1c-0.1,0.6-0.5,1-1.1,1.1c-0.1,0-0.2,0-0.2,0
			c-0.2,0-0.5-0.1-0.6-0.2c-0.2-0.1-0.3-0.2-0.5-0.4c-0.1-0.2-0.2-0.4-0.2-0.6c-0.2-1,0.1-7.2,0.8-18.4c0.7-11.2,1.5-22.1,2.3-32.5
			c0-0.1,0-0.2,0-0.4c0.3-3.6,0.5-6.5,0.7-8.5c0.6-6.7,1.6-12.5,2.9-17.4c1.4-4.9,2.8-7.6,4.3-8.2c0.7-0.3,1.4-0.1,1.9,0.5
			c0.6,0.5,0.9,1.8,0.8,3.8c-0.1,2-0.4,4.4-1,7.4c-0.6,2.9-1.5,6.4-2.7,10.3c-1.2,4-2.6,8.2-4.3,12.7c-0.8,10.1-1.5,20.5-2.2,31.3
			c0.7-2.7,1.6-5,2.4-7c2-4.5,4-6.9,6-7c1-0.1,1.8,0.4,2.3,1.2c0.6,0.9,0.8,2.2,0.6,3.9c-0.2,1.7-0.8,3.4-1.7,5
			c-0.7,1.3-1.9,2.9-3.5,4.8c-0.4,0.4-0.6,0.7-0.7,0.9c0.5,1.2,1.2,1.8,2.2,1.8c2.2,0,5.2-2,9.1-6.2c3.9-4.2,6.9-8.8,9-13.9
			C153.8,62.9,154.1,62.6,154.4,62.5z M135.5,17.8c-2,4.1-3.4,10.6-4.3,19.5C134,28.4,135.4,21.9,135.5,17.8z"/>
		<path class="st0" d="M240.7,43.5c0.4,0.1,0.7,0.3,0.8,0.6c0.2,0.3,0.2,0.6,0.2,1c-0.1,0.4-0.3,0.7-0.6,0.8c-5,3-9.7,6.1-14,9.2
			c-1.2,15.7-3.6,29-7.2,39.9c-2.6,8-5.8,14.5-9.5,19.4s-7.6,7.8-11.7,8.7c-0.2,0.1-0.5,0.1-0.7,0.2c-2.4,0.4-4.6,0-6.6-1.2
			c-1.9-1.2-3.4-3.1-4.4-5.6c-1-2.4-1.4-5.3-1.3-8.5c0.1-3.2,0.9-7,2.4-11.2s3.7-8.6,6.6-13.1c2.9-4.5,6.9-9.4,12-14.6
			s11-10.3,17.8-15.3c0.9-13,0.9-27.3,0.1-42.8c-0.1-1.4-0.2-2.6-0.3-3.6c-0.3,1.2-0.8,3.2-1.6,6c-0.8,3.3-1.5,5.9-2.1,7.8
			c-0.5,2-1.4,4.8-2.5,8.4c-1.1,3.7-2.2,6.8-3.3,9.3c-1,2.6-2.3,5.3-3.8,8.3c-1.5,2.9-3,5.5-4.6,7.5c-5.2,6.7-9.7,9.7-13.5,9.1
			c-2.6-0.4-4.5-2.3-5.8-5.7c-1.2-3.3-1.6-7.4-1.4-12.5s1.3-10.2,3.1-15.5S193,20.4,196,17c0.2-0.3,0.6-0.4,0.9-0.5
			c0.4,0,0.7,0.1,1,0.3c0.3,0.2,0.4,0.6,0.5,0.9c0,0.4-0.1,0.7-0.3,1c-2.7,3.2-4.9,7.2-6.7,12.2c-1.7,5-2.7,9.8-3,14.6
			c-0.3,4.7,0.1,8.6,1.2,11.7c0.9,2.4,2.1,3.7,3.6,4c2.7,0.4,6.3-2.3,10.8-8.1c1.3-1.6,2.5-3.5,3.7-5.7c1.2-2.1,2.3-4.5,3.3-7
			c1-2.6,1.9-4.9,2.7-7s1.6-4.7,2.5-7.6c0.8-2.9,1.5-5.1,1.9-6.7c0.4-1.6,1-3.7,1.7-6.3c1.3-4.9,2.1-7.9,2.6-9.2s1.2-1.8,2.1-1.7
			c0.8,0.1,1.3,0.7,1.7,1.8c0.3,1.1,0.6,3.5,0.8,7.2c0.8,14.7,0.8,28.3,0,40.9c3.9-2.8,8-5.4,12.4-8C240,43.5,240.3,43.4,240.7,43.5
			z M217.3,94.2c3.4-10.2,5.7-22.4,6.9-36.8c-12.8,9.7-22.3,19.7-28.5,29.9c-3.3,5.4-5.5,10.6-6.6,15.6s-0.9,9.2,0.5,12.6
			c0.8,2,1.9,3.4,3.4,4.3s3.2,1.1,5.1,0.7c3.6-0.8,7.1-3.5,10.5-8.1C212,107.8,214.9,101.7,217.3,94.2z"/>
		<path class="st0" d="M265.3,45.7c0.4-0.1,0.7-0.1,1.1,0.1c0.3,0.2,0.6,0.5,0.7,0.8c0.1,0.4,0.1,0.7-0.1,1c-1.5,2.8-3.5,5.1-6,6.9
			c-2.5,1.8-4.9,2.7-7.3,2.5c-0.4,1.7-1.1,3.1-2.2,4.2c-1,1.1-2.2,1.7-3.4,1.9H248c-1.3,0.1-2.5-0.1-3.5-0.8
			c-1.1-0.7-1.9-1.7-2.5-3.1c-1-2.2-1.2-4.4-0.7-6.6c0.5-2.2,1.4-3.9,2.8-5.2c0.3-0.3,0.7-0.4,1.1-0.3c0.3-1.1,0.7-2,1.4-2.7
			s1.5-1,2.3-1c0.5,0,0.9,0.2,1.4,0.4c0.4,0.2,0.9,0.7,1.4,1.3s1,1.6,1.3,2.9c0.4,1.3,0.7,2.9,0.9,4.8c0,0.5,0,1,0,1.4
			c1.8,0.1,3.7-0.7,5.7-2.3s3.6-3.5,4.8-5.8C264.7,46,265,45.8,265.3,45.7z M247.6,60.4c0.7-0.1,1.3-0.5,1.9-1.2
			c0.6-0.7,1.1-1.6,1.4-2.7c-3.3-1.2-5.3-3.3-5.9-6.1c-0.8,1-1.3,2.3-1.4,3.9c-0.1,1.6,0.1,2.9,0.6,3.9
			C245.2,59.9,246.3,60.7,247.6,60.4z M251.2,53.2c-0.1-1.1-0.2-2.1-0.4-2.9c-0.2-0.8-0.4-1.5-0.6-2c-0.2-0.5-0.4-0.9-0.5-1.2
			c-0.2-0.3-0.4-0.5-0.5-0.6s-0.2-0.2-0.3-0.2h-0.1c-0.2,0-0.4,0.2-0.6,0.6c-0.2,0.3-0.4,0.8-0.4,1.3c-0.1,1,0.1,2,0.6,3
			s1.5,1.8,2.9,2.4C251.2,53.5,251.2,53.3,251.2,53.2z"/>
		<path class="st0" d="M290.4,42c0.4-0.1,0.7-0.1,1,0s0.6,0.4,0.7,0.8c0.2,0.4,0.2,0.7,0,1c-0.4,1-0.9,2-1.4,3.1s-1.3,2.6-2.3,4.6
			c-1,1.9-2,3.6-3,5.1s-2.1,2.8-3.3,4c-1.2,1.2-2.3,1.9-3.3,2c-0.4,0.1-0.7,0-1-0.1c-2.4-0.5-3.6-4-3.6-10.5
			c-1.2,2.3-2.4,4.2-3.5,5.4c-1.6,1.8-3.2,2.3-4.7,1.3c-1.4-0.8-2.3-2.6-2.6-5.2c-0.3-2.6,0.1-5.3,1.1-7.9c0.1-0.4,0.4-0.6,0.7-0.8
			c0.4-0.2,0.7-0.2,1.1,0c0.4,0.1,0.6,0.4,0.8,0.7c0.1,0.3,0.2,0.7,0,1c-0.6,1.4-0.9,2.9-1,4.4s0,2.7,0.3,3.7c0.3,0.9,0.6,1.5,1,1.8
			c0.3,0.2,0.7,0,1.3-0.7c1.1-1.2,2.3-3.3,3.7-6.3c0.3-0.5,0.5-0.8,0.6-1.1c0.1-0.2,0.3-0.5,0.5-0.9c0.2-0.3,0.3-0.6,0.5-0.7
			c0.1-0.1,0.3-0.2,0.4-0.4c0.2-0.1,0.3-0.2,0.5-0.2s0.4,0,0.7,0.1c0.6,0.1,1.1,0.6,1.2,1.4c0.2,0.8,0.2,1.9,0.1,3.3
			c-0.1,2.7,0,4.7,0.3,6s0.6,2.2,0.7,2.4c0.1,0.3,0.3,0.4,0.4,0.4c0.2,0.1,0.4,0,0.7-0.2c0.3-0.2,0.7-0.6,1.1-1
			c0.4-0.5,0.9-1,1.4-1.7s1.1-1.5,1.7-2.5s1.3-2,1.9-3.1s1.3-2.4,2.1-3.9c0.7-1.5,1.4-3,2.1-4.7C289.8,42.4,290,42.2,290.4,42z"/>
	</g>
	<path class="st0" d="M38.2,178.9c-0.3-0.1-0.4-0.4-0.3-0.7c0,0,0-0.1,0.1-0.2l0.3-0.6c0.2-0.4,0.4-0.8,0.6-1.1
		c0.2-0.4,0.4-0.7,0.6-1.1l0.7-1.1c0.9-1.5,1.8-2.9,2.8-4.2c2-2.8,4.1-5.4,6.3-7.9s4.5-5,6.9-7.4c0.6-0.6,1.2-1.2,1.8-1.8l1.8-1.7
		c1.2-1.1,2.5-2.3,3.7-3.4c1.2-1.1,2.5-2.2,3.8-3.3l1.9-1.6l1-0.8l1-0.8l2-1.5l2-1.5l1-0.7l1-0.7l2-1.5c5.5-3.8,11.1-7.4,16.9-10.7
		c5.8-3.3,11.7-6.4,17.6-9.3c6-2.9,12.1-5.6,18.2-8c6.2-2.5,12.4-4.8,18.6-6.9c1.6-0.5,3.1-1,4.7-1.6l2.4-0.8l2.4-0.7
		c1.6-0.5,3.2-1,4.7-1.5l4.8-1.4c1.6-0.5,3.2-0.9,4.8-1.3l2.4-0.7c0.8-0.2,1.6-0.4,2.4-0.6c3.2-0.8,6.4-1.7,9.6-2.4
		c1.6-0.4,3.2-0.8,4.8-1.1l4.8-1.1l2.4-0.5l2.4-0.5l4.9-1c13-2.6,26.1-4.7,39.2-6.4c26.2-3.4,52.6-5.3,79.1-6.1
		c-26.4,1.2-52.8,3.4-78.9,7.3c-13.1,1.9-26.1,4.2-39,7l-4.8,1.1l-2.4,0.5l-2.4,0.6l-4.8,1.1c-1.6,0.4-3.2,0.8-4.8,1.2
		c-3.2,0.8-6.4,1.7-9.6,2.5c-0.8,0.2-1.6,0.4-2.4,0.7l-2.4,0.7c-1.6,0.5-3.2,0.9-4.7,1.4l-4.7,1.5c-1.6,0.5-3.1,1-4.7,1.5l-2.3,0.8
		l-2.3,0.8c-1.6,0.5-3.1,1.1-4.7,1.6c-6.2,2.2-12.3,4.6-18.4,7.1c-6.1,2.5-12,5.3-17.9,8.2c-5.9,2.9-11.7,6.1-17.3,9.4
		c-5.6,3.4-11.1,6.9-16.4,10.8l-2,1.5l-1,0.7l-1,0.7l-1.9,1.5l-1.9,1.5l-1,0.8l-0.9,0.8l-1.9,1.6c-1.2,1.1-2.5,2.1-3.7,3.2
		c-1.2,1.1-2.4,2.2-3.6,3.3l-1.7,1.7c-0.6,0.6-1.1,1.2-1.7,1.7c-2.3,2.3-4.5,4.7-6.5,7.2c-2.1,2.5-4.1,5.1-5.9,7.7
		c-0.9,1.3-1.8,2.7-2.6,4l-0.6,1c-0.2,0.3-0.4,0.7-0.6,1c-0.2,0.3-0.4,0.7-0.5,1l-0.3,0.5l0,0c-0.1,0.3-0.4,0.4-0.7,0.3L38.2,178.9z
		"/>
</g>
</svg>
