<?xml version="1.0" encoding="utf-8"?>
<!-- Generator: Adobe Illustrator 27.2.0, SVG Export Plug-In . SVG Version: 6.00 Build 0)  -->
<svg version="1.1" id="Layer_1" xmlns="http://www.w3.org/2000/svg" xmlns:xlink="http://www.w3.org/1999/xlink" x="0px" y="0px"
	 viewBox="0 0 80 70" style="enable-background:new 0 0 80 70;" xml:space="preserve">
<style type="text/css">
	.st0{fill:#FFFFFF;}
</style>
<path class="st0" d="M29.7,5.9l-0.9,1.8H17c-2.2,0-3.9,1.8-3.9,3.9s1.8,3.9,3.9,3.9h47.3c2.2,0,3.9-1.8,3.9-3.9s-1.8-3.9-3.9-3.9
	H52.4l-0.9-1.8c-0.7-1.3-2-2.2-3.5-2.2H33.2C31.7,3.7,30.3,4.6,29.7,5.9z M64.2,19.5H17l2.6,41.7c0.2,3.1,2.8,5.5,5.9,5.5h30.3
	c3.1,0,5.7-2.4,5.9-5.5L64.2,19.5z"/>
</svg>
