<?xml version="1.0" encoding="utf-8"?>
<!-- Generator: Adobe Illustrator 27.9.0, SVG Export Plug-In . SVG Version: 6.00 Build 0)  -->
<svg version="1.1" id="Layer_1" xmlns="http://www.w3.org/2000/svg" xmlns:xlink="http://www.w3.org/1999/xlink" x="0px" y="0px"
	 viewBox="0 0 240 240" style="enable-background:new 0 0 240 240;" xml:space="preserve">
<style type="text/css">
	.st0{opacity:0.5;}
	.st1{fill:#01E800;}
	.st2{fill:#FFFFFF;}
</style>
<g class="st0">
	<ellipse transform="matrix(0.7071 -0.7071 0.7071 0.7071 -49.7056 120)" class="st1" cx="120" cy="120" rx="118.97" ry="118.97"/>
</g>
<g>
	<ellipse transform="matrix(0.7071 -0.7071 0.7071 0.7071 -49.7056 120)" class="st1" cx="120" cy="120" rx="103" ry="103"/>
</g>
<g>
	<path class="st2" d="M191.49,99.68c-0.64-5.33-5.45-9.19-10.82-9.19l-35.47,0c-1.92,0-3.27-1.9-2.63-3.72
		c2.7-7.64,4.9-15.54,5.67-23.64c0.72-7.55,0.16-17.58-7.45-21.64c-3.3-1.76-8.57-2.86-12.11-1.34c-3.26,1.4-2.15,6.39-2.15,9.14
		c0,4.16-1.62,8.12-2.88,12.03c-3.93,5.49-7.41,11.29-11.36,16.77c-3.42,4.75-7.55,11.17-13.67,12.49c-2.9,0.63-5.11,2.99-5.11,6.05
		v66.79c0,3.4,2.76,6.16,6.16,6.16h10.35h24.42h27.87c5.4,0,10.21-3.9,10.81-9.27c0.48-4.22-1.57-8-4.81-10.06
		c-0.02-0.02-0.01-0.05,0.01-0.05h0.12c5.39,0,10.2-3.9,10.8-9.26c0.48-4.22-1.57-8-4.81-10.06c-0.02-0.02-0.01-0.05,0.01-0.05h0.12
		c5.41,0,10.22-3.93,10.81-9.3c0.46-4.24-1.62-8.03-4.9-10.07h0.61C187.3,111.45,192.25,106.05,191.49,99.68z"/>
	<path class="st2" d="M81.71,91.48H53.7c-2.91,0-5.27,2.36-5.27,5.27v67.56c0,2.91,2.36,5.27,5.27,5.27h28.01
		c2.91,0,5.27-2.36,5.27-5.27V96.75C86.98,93.84,84.62,91.48,81.71,91.48z"/>
</g>
</svg>
