<?xml version="1.0" encoding="utf-8"?>
<!-- Generator: Adobe Illustrator 27.2.0, SVG Export Plug-In . SVG Version: 6.00 Build 0)  -->
<svg version="1.1" id="Layer_1" xmlns="http://www.w3.org/2000/svg" xmlns:xlink="http://www.w3.org/1999/xlink" x="0px" y="0px"
	 viewBox="0 0 80 70" style="enable-background:new 0 0 80 70;" xml:space="preserve">
<style type="text/css">
	.st0{fill:#FFFFFF;}
</style>
<path class="st0" d="M40,64.5L40,64.5c25.6,0,36.7-26.1,37.7-27.8c0,0,0.6-1.1,0.6-1.7s-0.6-1.7-0.6-1.7C76.7,31.6,65.6,5.5,40,5.5
	l0,0l0,0l0,0C14.4,5.5,3.3,31.6,2.3,33.3c0,0-0.6,1.1-0.6,1.7s0.6,1.7,0.6,1.7C3.3,38.4,14.4,64.5,40,64.5L40,64.5L40,64.5z"/>
<circle class="st0" cx="40.1" cy="35" r="17.9"/>
<path class="st0" d="M40.1,47.2c-6.2,0-11.4-4.6-12.1-10.7c-0.1-0.6,0.1-1.1,0.6-1.5c0.3-0.3,0.7-0.4,1.1-0.4c0.2,0,0.3,0,0.5,0.1
	c0.7,0.2,1.5,0.3,2.2,0.3c4.3,0,7.8-3.5,7.8-7.8c0-0.7-0.1-1.5-0.3-2.2c-0.2-0.5,0-1.1,0.3-1.6c0.3-0.4,0.8-0.6,1.3-0.6
	c0.1,0,0.1,0,0.2,0c6.1,0.8,10.7,6,10.7,12.1C52.4,41.8,46.9,47.2,40.1,47.2z"/>
</svg>
