<?xml version="1.0" encoding="utf-8"?>
<!-- Generator: Adobe Illustrator 28.0.0, SVG Export Plug-In . SVG Version: 6.00 Build 0)  -->
<svg version="1.1" id="Layer_1" xmlns="http://www.w3.org/2000/svg" xmlns:xlink="http://www.w3.org/1999/xlink" x="0px" y="0px"
	 viewBox="0 0 200 192" style="enable-background:new 0 0 200 192;" xml:space="preserve">
<style type="text/css">
	.st0{fill:#FFFFFF;}
	.st1{fill:#00FFFF;}
	.st2{fill:#00C6FF;}
</style>
<g>
	<g>
		<path class="st0" d="M86.6,182.9c0,2.6-1.9,4.2-5,4.2h-3v3.6h-1.7v-12h4.7C84.7,178.7,86.6,180.3,86.6,182.9z M84.9,182.9
			c0-1.7-1.2-2.7-3.4-2.7h-2.9v5.4h2.9C83.7,185.6,84.9,184.6,84.9,182.9z"/>
		<path class="st0" d="M102.6,190.7L100,187c-0.2,0-0.5,0-0.8,0h-3v3.7h-1.7v-12h4.7c3.1,0,5,1.6,5,4.2c0,1.9-1,3.2-2.6,3.8l2.9,4
			H102.6z M102.5,182.9c0-1.7-1.2-2.7-3.4-2.7h-2.9v5.4h2.9C101.3,185.6,102.5,184.6,102.5,182.9z"/>
		<path class="st0" d="M111.4,184.7c0-3.5,2.7-6.2,6.4-6.2c3.7,0,6.4,2.6,6.4,6.2c0,3.5-2.7,6.2-6.4,6.2
			C114.1,190.9,111.4,188.2,111.4,184.7z M122.5,184.7c0-2.7-2-4.6-4.7-4.6c-2.7,0-4.7,2-4.7,4.6c0,2.7,2,4.6,4.7,4.6
			C120.5,189.3,122.5,187.4,122.5,184.7z"/>
	</g>
</g>
<g>
	<g>
		<g>
			<g>
				<g>
					<path class="st1" d="M81.2,57.6c0,10.4,8.4,18.8,18.8,18.8s18.8-8.4,18.8-18.8c0-10.4-8.4-18.8-18.8-18.8S81.2,47.2,81.2,57.6z
						"/>
				</g>
			</g>
		</g>
		<path class="st2" d="M43.6,57.6c0,31.2,25.3,56.4,56.4,56.4s56.4-25.3,56.4-56.4S131.2,1.1,100,1.1S43.6,26.4,43.6,57.6z
			 M62.4,57.6C62.4,36.8,79.2,20,100,20c20.8,0,37.6,16.8,37.6,37.6c0,6.6-1.7,12.7-4.6,18.1l4.7,19.6l-19.6-4.7
			c-5.4,3-11.5,4.6-18.1,4.6C79.2,95.2,62.4,78.4,62.4,57.6z"/>
	</g>
</g>
<g>
	<rect x="102.6" y="134.2" class="st2" width="6.6" height="5"/>
	<g>
		<g>
			<path class="st0" d="M18.8,160.5l10.8-29.6h7l-13.4,36h-8.6l-13.5-36h7L18.8,160.5z"/>
			<path class="st0" d="M63.5,152c0,0.4,0,0.8-0.1,1.4s-0.1,1-0.2,1.5H42.7c0,2.8,0.9,4.8,2.6,6c1.7,1.2,4,1.8,6.8,1.8
				c1.8,0,3.5-0.2,5.2-0.5c1.7-0.3,3.1-0.7,4.1-1.3l1.3,4.7c-1.4,0.6-3.1,1.1-5,1.4c-1.9,0.3-3.8,0.5-5.8,0.5
				c-2.4,0-4.6-0.3-6.6-0.8c-2-0.5-3.7-1.4-5.2-2.5c-1.5-1.2-2.6-2.7-3.4-4.5c-0.8-1.9-1.2-4.1-1.2-6.8c0-2.6,0.4-4.9,1.1-6.7
				c0.7-1.8,1.7-3.3,3-4.5c1.3-1.2,2.8-2,4.5-2.5c1.7-0.5,3.6-0.8,5.6-0.8c2.1,0,3.9,0.3,5.6,0.8c1.7,0.5,3.1,1.3,4.3,2.4
				c1.2,1.1,2.1,2.5,2.8,4.2C63.1,147.5,63.5,149.6,63.5,152z M56.4,151.1c0-3-0.6-5-1.8-6.2c-1.2-1.2-2.8-1.8-4.8-1.8
				c-1,0-1.9,0.1-2.7,0.4c-0.9,0.3-1.6,0.7-2.3,1.3c-0.7,0.6-1.2,1.4-1.6,2.3c-0.4,1-0.6,2.6-0.6,4H56.4z"/>
			<path class="st0" d="M68.1,140.7c0.7-0.3,1.5-0.6,2.5-0.9c0.9-0.3,2-0.5,3.1-0.7c1.1-0.2,2.4-0.4,3.6-0.5
				c1.3-0.1,2.6-0.2,3.9-0.2c1.8,0,3.5,0.2,5.2,0.5c1.7,0.4,3.1,1,4.4,1.9c1.3,0.9,2.3,2.1,3,3.5c0.8,1.5,1.1,3.3,1.1,5.5v17h-6.6
				v-16.7c0-1.5-0.2-2.7-0.6-3.6c-0.4-0.9-1-1.6-1.6-2.1c-0.7-0.5-1.4-0.8-2.3-0.9c-0.9-0.2-1.7-0.2-2.6-0.2c-1.3,0-2.5,0.1-3.6,0.3
				c-1.1,0.2-2.1,0.5-2.9,0.9v22.3h-6.6V140.7z"/>
			<path class="st0" d="M97.4,139.2h21.5v5h-9.7v12.5c0,2.3,0.5,3.8,1.4,4.7c0.9,0.8,2.1,1.3,3.6,1.3c1.1,0,2.1-0.2,3-0.5
				c0.9-0.3,1.8-0.7,2.6-1.3l0.9,4.7c-2.2,1.3-4.7,1.9-7.7,1.9c-1.5,0-2.9-0.2-4.2-0.5c-1.3-0.4-2.4-0.9-3.3-1.8
				c-0.9-0.8-1.7-1.9-2.2-3.2c-0.5-1.3-0.8-2.9-0.8-4.8v-13h-5.2V139.2z"/>
			<path class="st0" d="M149.9,165.4c-0.7,0.3-1.5,0.6-2.5,0.9c-1,0.3-2,0.5-3.1,0.7c-1.1,0.2-2.4,0.3-3.6,0.5
				c-1.3,0.1-2.6,0.2-3.9,0.2c-1.8,0-3.6-0.2-5.2-0.5c-1.7-0.4-3.1-1-4.4-1.9c-1.3-0.9-2.3-2-3-3.5c-0.8-1.5-1.1-3.3-1.1-5.6v-16.9
				h6.6v16.6c0,1.5,0.2,2.7,0.6,3.6c0.4,0.9,1,1.6,1.6,2.1c0.7,0.5,1.4,0.8,2.3,0.9c0.9,0.2,1.7,0.2,2.7,0.2c1.3,0,2.5-0.1,3.6-0.3
				c1.2-0.2,2.1-0.5,2.9-0.9v-22.3h6.6V165.4z"/>
			<path class="st0" d="M155.7,140.4c0.5-0.3,1.1-0.5,1.9-0.7c0.8-0.2,1.6-0.4,2.5-0.6c0.9-0.2,1.8-0.3,2.7-0.4
				c0.9-0.1,1.8-0.1,2.7-0.1c1.2,0,2.4,0.1,3.4,0.2c1.1,0.1,2,0.3,2.8,0.5l-0.9,4.9c-0.5-0.2-1.2-0.4-1.9-0.5
				c-0.8-0.1-1.4-0.1-2.1-0.1c-1.9,0-3.4,0.2-4.6,0.7v22.6h-6.6V140.4z"/>
			<path class="st0" d="M198.9,165.8c-1.6,0.5-3.5,0.9-5.6,1.3c-2.1,0.3-4.4,0.5-6.8,0.5c-2,0-3.8-0.1-5.4-0.4
				c-1.6-0.3-3-0.8-4.2-1.4c-1.2-0.6-2.1-1.5-2.7-2.6c-0.6-1.1-1-2.5-1-4c0-3.2,1.1-5.4,3.3-6.7c2.2-1.3,5.3-1.9,9.5-1.9h6.2v-1.6
				c0-2.1-0.6-3.5-1.8-4.3c-1.2-0.8-2.8-1.1-4.8-1.1c-2.2,0-4.1,0.2-5.8,0.6c-1.7,0.4-3.1,0.8-4.3,1.2l-0.9-4.9
				c1.7-0.5,3.4-1,5.2-1.3c1.8-0.3,3.8-0.5,6-0.5c1.9,0,3.6,0.2,5.2,0.5c1.6,0.3,2.9,0.9,4.1,1.7c1.2,0.8,2.1,1.9,2.7,3.2
				c0.6,1.3,1,3,1,4.9V165.8z M192.3,154.1h-4.9c-2.1,0-3.8,0.3-5.2,1c-1.4,0.7-2.1,1.9-2.1,3.7c0,1.5,0.6,2.7,1.8,3.4
				c1.2,0.8,2.9,1.1,5,1.1c0.9,0,1.8-0.1,2.8-0.2c0.9-0.1,1.8-0.3,2.6-0.6V154.1z"/>
		</g>
	</g>
</g>
</svg>
