<?xml version="1.0" encoding="utf-8"?>
<!-- Generator: Adobe Illustrator 28.0.0, SVG Export Plug-In . SVG Version: 6.00 Build 0)  -->
<svg version="1.1" id="Layer_1" xmlns="http://www.w3.org/2000/svg" xmlns:xlink="http://www.w3.org/1999/xlink" x="0px" y="0px"
	 viewBox="0 0 116 22" style="enable-background:new 0 0 116 22;" xml:space="preserve">
<style type="text/css">
	.st0{fill:#00C6FF;}
	.st1{fill:#FFFFFF;}
</style>
<g>
	<rect x="59.5" y="2.3" class="st0" width="3.8" height="2.9"/>
	<g>
		<g>
			<path class="st1" d="M10.8,17.5L17,0.3h4l-7.8,21h-5l-7.8-21h4L10.8,17.5z"/>
			<path class="st1" d="M36.7,12.6c0,0.2,0,0.5,0,0.8c0,0.3-0.1,0.6-0.1,0.9H24.7c0,1.6,0.5,2.8,1.5,3.5c1,0.7,2.3,1.1,4,1.1
				c1,0,2.1-0.1,3.1-0.3c1-0.2,1.8-0.4,2.4-0.7l0.8,2.8c-0.8,0.4-1.8,0.6-2.9,0.8c-1.1,0.2-2.2,0.3-3.4,0.3c-1.4,0-2.7-0.2-3.8-0.5
				s-2.2-0.8-3-1.5c-0.9-0.7-1.5-1.6-2-2.6c-0.5-1.1-0.7-2.4-0.7-3.9c0-1.5,0.2-2.8,0.6-3.9c0.4-1.1,1-1.9,1.7-2.6
				c0.7-0.7,1.6-1.2,2.6-1.5c1-0.3,2.1-0.4,3.3-0.4c1.2,0,2.3,0.1,3.3,0.4c1,0.3,1.8,0.8,2.5,1.4C35.2,7.2,35.8,8,36.2,9
				C36.5,10,36.7,11.2,36.7,12.6z M32.6,12.1c0-1.7-0.3-2.9-1-3.6c-0.7-0.7-1.6-1-2.8-1c-0.6,0-1.1,0.1-1.6,0.2
				c-0.5,0.2-0.9,0.4-1.3,0.7c-0.4,0.3-0.7,0.8-0.9,1.3c-0.2,0.6-0.3,1.5-0.3,2.3H32.6z"/>
			<path class="st1" d="M39.4,6c0.4-0.2,0.9-0.3,1.4-0.5c0.6-0.2,1.2-0.3,1.8-0.4c0.7-0.1,1.4-0.2,2.1-0.3c0.8-0.1,1.5-0.1,2.3-0.1
				c1,0,2,0.1,3,0.3c1,0.2,1.8,0.6,2.5,1.1c0.7,0.5,1.3,1.2,1.8,2.1c0.4,0.9,0.7,1.9,0.7,3.2v9.9h-3.8v-9.7c0-0.9-0.1-1.6-0.4-2.1
				c-0.2-0.5-0.6-0.9-0.9-1.2c-0.4-0.3-0.8-0.5-1.3-0.5c-0.5-0.1-1-0.1-1.5-0.1c-0.8,0-1.5,0.1-2.1,0.2c-0.7,0.1-1.2,0.3-1.7,0.5v13
				h-3.8V6z"/>
			<path class="st1" d="M56.5,5.2H69V8h-5.6v7.3c0,1.3,0.3,2.2,0.8,2.7c0.5,0.5,1.2,0.7,2.1,0.7c0.6,0,1.2-0.1,1.8-0.3
				c0.6-0.2,1.1-0.4,1.5-0.7l0.5,2.7c-1.3,0.8-2.8,1.1-4.5,1.1c-0.9,0-1.7-0.1-2.4-0.3c-0.7-0.2-1.4-0.6-1.9-1
				c-0.5-0.5-1-1.1-1.3-1.9c-0.3-0.8-0.4-1.7-0.4-2.8V8h-3L56.5,5.2z"/>
			<path class="st1" d="M87.1,20.4c-0.4,0.2-0.9,0.3-1.4,0.5c-0.6,0.2-1.2,0.3-1.8,0.4c-0.7,0.1-1.4,0.2-2.1,0.3
				c-0.8,0.1-1.5,0.1-2.3,0.1c-1.1,0-2.1-0.1-3-0.3c-1-0.2-1.8-0.6-2.5-1.1c-0.7-0.5-1.3-1.2-1.8-2c-0.4-0.9-0.7-1.9-0.7-3.2V5.2
				h3.8v9.7c0,0.9,0.1,1.6,0.4,2.1c0.2,0.5,0.6,0.9,0.9,1.2c0.4,0.3,0.8,0.5,1.3,0.5c0.5,0.1,1,0.1,1.5,0.1c0.7,0,1.4-0.1,2.1-0.2
				c0.7-0.1,1.2-0.3,1.7-0.5v-13h3.8V20.4z"/>
			<path class="st1" d="M90.4,5.9c0.3-0.2,0.7-0.3,1.1-0.4C92,5.3,92.5,5.2,93,5.1c0.5-0.1,1.1-0.2,1.6-0.2c0.5-0.1,1.1-0.1,1.6-0.1
				c0.7,0,1.4,0,2,0.1c0.6,0.1,1.2,0.2,1.6,0.3L99.3,8c-0.3-0.1-0.7-0.2-1.1-0.3c-0.4,0-0.8-0.1-1.2-0.1c-1.1,0-2,0.1-2.7,0.4v13.2
				h-3.8V5.9z"/>
			<path class="st1" d="M115.6,20.7c-0.9,0.3-2,0.5-3.3,0.7c-1.2,0.2-2.6,0.3-3.9,0.3c-1.2,0-2.2-0.1-3.1-0.2
				c-0.9-0.2-1.7-0.4-2.4-0.8c-0.7-0.4-1.2-0.9-1.6-1.5c-0.4-0.6-0.6-1.4-0.6-2.4c0-1.9,0.6-3.2,1.9-3.9c1.3-0.8,3.1-1.1,5.5-1.1
				h3.6v-0.9c0-1.2-0.3-2-1-2.5c-0.7-0.4-1.6-0.7-2.8-0.7c-1.3,0-2.4,0.1-3.4,0.3c-1,0.2-1.8,0.5-2.5,0.7l-0.5-2.9
				c1-0.3,2-0.6,3-0.8c1-0.2,2.2-0.3,3.5-0.3c1.1,0,2.1,0.1,3,0.3c0.9,0.2,1.7,0.5,2.4,1c0.7,0.5,1.2,1.1,1.6,1.9
				c0.4,0.8,0.6,1.7,0.6,2.9V20.7z M111.7,13.9h-2.9c-1.2,0-2.2,0.2-3,0.6c-0.8,0.4-1.2,1.1-1.2,2.1c0,0.9,0.3,1.5,1,2
				c0.7,0.4,1.7,0.7,2.9,0.7c0.5,0,1.1,0,1.6-0.1c0.6-0.1,1.1-0.2,1.5-0.3V13.9z"/>
		</g>
	</g>
</g>
</svg>
