<?xml version="1.0" encoding="utf-8"?>
<!-- Generator: Adobe Illustrator 28.0.0, SVG Export Plug-In . SVG Version: 6.00 Build 0)  -->
<svg version="1.1" id="Layer_1" xmlns="http://www.w3.org/2000/svg" xmlns:xlink="http://www.w3.org/1999/xlink" x="0px" y="0px"
	 viewBox="0 0 50 50" style="enable-background:new 0 0 50 50;" xml:space="preserve">
<style type="text/css">
	.st0{fill:#00FFFF;}
	.st1{fill:#00C6FF;}
</style>
<g>
	<g>
		<g>
			<g>
				<g>
					<path class="st0" d="M16.8,25c0,4.6,3.7,8.2,8.2,8.2s8.2-3.7,8.2-8.2c0-4.6-3.7-8.2-8.2-8.2S16.8,20.4,16.8,25z"/>
				</g>
			</g>
		</g>
		<path class="st1" d="M0.2,25c0,13.7,11.1,24.8,24.8,24.8S49.8,38.7,49.8,25S38.7,0.2,25,0.2S0.2,11.3,0.2,25z M8.5,25
			c0-9.1,7.4-16.5,16.5-16.5c9.1,0,16.5,7.4,16.5,16.5c0,2.9-0.7,5.6-2,7.9l2.1,8.6l-8.6-2.1c-2.4,1.3-5.1,2-7.9,2
			C15.9,41.5,8.5,34.1,8.5,25z"/>
	</g>
</g>
</svg>
