<?xml version="1.0" encoding="utf-8"?>
<!-- Generator: Adobe Illustrator 27.9.0, SVG Export Plug-In . SVG Version: 6.00 Build 0)  -->
<svg version="1.1" id="Layer_1" xmlns="http://www.w3.org/2000/svg" xmlns:xlink="http://www.w3.org/1999/xlink" x="0px" y="0px"
	 viewBox="0 0 222 412" style="enable-background:new 0 0 222 412;" xml:space="preserve">
<style type="text/css">
	.st0{fill:#00FFFF;}
	.st1{fill:#00C6FF;}
	.st2{fill:#FFFFFF;}
</style>
<g>
	<g>
		<g>
			<g>
				<g>
					<path class="st0" d="M17.51,372.53c0,4.56,3.69,8.25,8.25,8.25s8.25-3.69,8.25-8.25c0-4.56-3.69-8.25-8.25-8.25
						S17.51,367.97,17.51,372.53z"/>
				</g>
			</g>
		</g>
		<path class="st1" d="M1.01,372.53c0,13.67,11.08,24.75,24.75,24.75s24.75-11.08,24.75-24.75c0-13.67-11.08-24.75-24.75-24.75
			S1.01,358.86,1.01,372.53z M9.26,372.53c0-9.11,7.39-16.5,16.5-16.5c9.11,0,16.5,7.39,16.5,16.5c0,2.88-0.74,5.58-2.03,7.93
			l2.08,8.61l-8.61-2.08c-2.35,1.29-5.06,2.03-7.93,2.03C16.64,389.02,9.26,381.64,9.26,372.53z"/>
	</g>
</g>
<g>
	<path class="st2" d="M121.85,376.34v1.87h-8.77v-1.48l4.73-4.49c1.16-1.1,1.36-1.8,1.36-2.46c0-1.09-0.75-1.72-2.21-1.72
		c-1.16,0-2.12,0.39-2.79,1.24l-1.55-1.19c0.92-1.24,2.57-1.97,4.52-1.97c2.58,0,4.25,1.31,4.25,3.42c0,1.16-0.32,2.21-1.97,3.76
		l-3.18,3.03H121.85z"/>
	<path class="st2" d="M123.07,372.26c0-3.91,2.14-6.12,4.96-6.12c2.84,0,4.98,2.21,4.98,6.12c0,3.91-2.14,6.12-4.98,6.12
		C125.21,378.38,123.07,376.17,123.07,372.26z M130.79,372.26c0-2.87-1.12-4.2-2.75-4.2c-1.61,0-2.74,1.33-2.74,4.2
		c0,2.87,1.12,4.2,2.74,4.2C129.67,376.45,130.79,375.13,130.79,372.26z"/>
	<path class="st2" d="M143.04,376.34v1.87h-8.77v-1.48l4.73-4.49c1.16-1.1,1.36-1.8,1.36-2.46c0-1.09-0.75-1.72-2.21-1.72
		c-1.16,0-2.12,0.39-2.79,1.24l-1.55-1.19c0.92-1.24,2.57-1.97,4.52-1.97c2.58,0,4.25,1.31,4.25,3.42c0,1.16-0.32,2.21-1.97,3.76
		l-3.18,3.03H143.04z"/>
	<path class="st2" d="M144.27,372.26c0-3.91,2.14-6.12,4.96-6.12c2.84,0,4.98,2.21,4.98,6.12c0,3.91-2.14,6.12-4.98,6.12
		C146.41,378.38,144.27,376.17,144.27,372.26z M151.99,372.26c0-2.87-1.12-4.2-2.75-4.2c-1.61,0-2.74,1.33-2.74,4.2
		c0,2.87,1.12,4.2,2.74,4.2C150.87,376.45,151.99,375.13,151.99,372.26z"/>
	<path class="st2" d="M113.21,403.3c0-2.87,2.18-4.99,5.14-4.99c1.43,0,2.72,0.48,3.59,1.43l-0.66,0.66
		c-0.8-0.81-1.78-1.16-2.9-1.16c-2.37,0-4.15,1.74-4.15,4.06s1.78,4.06,4.15,4.06c1.12,0,2.1-0.35,2.9-1.18l0.66,0.66
		c-0.87,0.95-2.16,1.44-3.6,1.44C115.39,408.29,113.21,406.17,113.21,403.3z"/>
	<path class="st2" d="M122.87,404.52c0-2.19,1.6-3.74,3.75-3.74s3.74,1.55,3.74,3.74c0,2.18-1.58,3.75-3.74,3.75
		S122.87,406.71,122.87,404.52z M129.35,404.52c0-1.72-1.16-2.87-2.73-2.87c-1.57,0-2.75,1.15-2.75,2.87c0,1.72,1.18,2.87,2.75,2.87
		C128.19,407.39,129.35,406.24,129.35,404.52z"/>
	<path class="st2" d="M139.17,403.93v4.27h-1v-4.17c0-1.56-0.81-2.35-2.21-2.35c-1.58,0-2.58,0.98-2.58,2.66v3.87h-1v-7.37h0.95
		v1.36c0.53-0.9,1.53-1.42,2.8-1.42C137.94,400.78,139.17,401.82,139.17,403.93z"/>
	<path class="st2" d="M141.15,404.52c0-2.2,1.6-3.74,3.8-3.74c1.25,0,2.3,0.49,2.89,1.46l-0.74,0.5c-0.5-0.74-1.29-1.09-2.14-1.09
		c-1.61,0-2.79,1.15-2.79,2.87c0,1.74,1.18,2.87,2.79,2.87c0.85,0,1.64-0.34,2.14-1.08l0.74,0.5c-0.59,0.95-1.64,1.46-2.89,1.46
		C142.75,408.28,141.15,406.72,141.15,404.52z"/>
	<path class="st2" d="M156.07,404.83h-6.16c0.11,1.54,1.29,2.56,2.9,2.56c0.9,0,1.69-0.32,2.25-0.97l0.56,0.64
		c-0.66,0.78-1.68,1.21-2.84,1.21c-2.3,0-3.87-1.57-3.87-3.75c0-2.19,1.53-3.74,3.6-3.74c2.07,0,3.57,1.53,3.57,3.74
		C156.08,404.61,156.07,404.72,156.07,404.83z M149.9,404.09h5.23c-0.13-1.44-1.18-2.45-2.62-2.45
		C151.08,401.64,150.03,402.65,149.9,404.09z"/>
	<path class="st2" d="M165.57,404.52c0,2.24-1.57,3.75-3.67,3.75c-1.18,0-2.18-0.5-2.8-1.46v4.1h-1v-10.09h0.95v1.46
		c0.6-0.98,1.62-1.51,2.84-1.51C164,400.78,165.57,402.29,165.57,404.52z M164.58,404.52c0-1.71-1.19-2.87-2.75-2.87
		c-1.57,0-2.75,1.16-2.75,2.87c0,1.72,1.18,2.87,2.75,2.87C163.39,407.39,164.58,406.24,164.58,404.52z"/>
	<path class="st2" d="M171.48,407.76c-0.39,0.35-0.98,0.52-1.55,0.52c-1.39,0-2.16-0.79-2.16-2.14v-4.45h-1.32v-0.84h1.32v-1.61
		h0.99v1.61H171v0.84h-2.24v4.4c0,0.87,0.45,1.34,1.28,1.34c0.41,0,0.81-0.13,1.09-0.38L171.48,407.76z"/>
</g>
<g>
	<g>
		<g>
			<g>
				<g>
					<path class="st0" d="M17.51,256.96c0,4.56,3.69,8.25,8.25,8.25s8.25-3.69,8.25-8.25c0-4.56-3.69-8.25-8.25-8.25
						S17.51,252.4,17.51,256.96z"/>
				</g>
			</g>
		</g>
		<path class="st1" d="M1.01,256.96c0,13.67,11.08,24.75,24.75,24.75s24.75-11.08,24.75-24.75c0-13.67-11.08-24.75-24.75-24.75
			S1.01,243.29,1.01,256.96z M9.26,256.96c0-9.11,7.39-16.5,16.5-16.5c9.11,0,16.5,7.39,16.5,16.5c0,2.88-0.74,5.58-2.03,7.93
			l2.08,8.61l-8.61-2.08c-2.35,1.29-5.06,2.03-7.93,2.03C16.64,273.46,9.26,266.07,9.26,256.96z"/>
	</g>
</g>
<g>
	<path class="st2" d="M121.85,260.77v1.87h-8.77v-1.48l4.73-4.49c1.16-1.11,1.36-1.8,1.36-2.46c0-1.09-0.75-1.72-2.21-1.72
		c-1.16,0-2.12,0.39-2.79,1.24l-1.55-1.19c0.92-1.24,2.57-1.97,4.52-1.97c2.58,0,4.25,1.31,4.25,3.42c0,1.16-0.32,2.21-1.97,3.76
		l-3.18,3.03H121.85z"/>
	<path class="st2" d="M123.07,256.69c0-3.91,2.14-6.12,4.96-6.12c2.84,0,4.98,2.21,4.98,6.12c0,3.91-2.14,6.12-4.98,6.12
		C125.21,262.81,123.07,260.6,123.07,256.69z M130.79,256.69c0-2.87-1.12-4.2-2.75-4.2c-1.61,0-2.74,1.33-2.74,4.2
		c0,2.87,1.12,4.2,2.74,4.2C129.67,260.89,130.79,259.56,130.79,256.69z"/>
	<path class="st2" d="M143.05,260.77v1.87h-8.77v-1.48l4.73-4.49c1.16-1.11,1.36-1.8,1.36-2.46c0-1.09-0.75-1.72-2.21-1.72
		c-1.16,0-2.12,0.39-2.79,1.24l-1.55-1.19c0.92-1.24,2.57-1.97,4.52-1.97c2.58,0,4.25,1.31,4.25,3.42c0,1.16-0.32,2.21-1.97,3.76
		l-3.18,3.03H143.05z"/>
	<path class="st2" d="M148.43,250.74v11.9h-2.21v-10.05h-2.52v-1.85H148.43z"/>
	<path class="st2" d="M114.08,282.83h3.99c3.14,0,5.25,2.02,5.25,4.9c0,2.88-2.12,4.9-5.25,4.9h-3.99V282.83z M118.01,291.74
		c2.6,0,4.29-1.65,4.29-4.01c0-2.35-1.68-4.01-4.29-4.01h-2.9v8.01H118.01z"/>
	<path class="st2" d="M131.85,289.26h-6.16c0.11,1.54,1.29,2.56,2.9,2.56c0.9,0,1.69-0.32,2.25-0.97l0.56,0.64
		c-0.66,0.78-1.68,1.21-2.84,1.21c-2.3,0-3.87-1.57-3.87-3.75c0-2.19,1.53-3.74,3.6-3.74c2.07,0,3.57,1.53,3.57,3.74
		C131.86,289.04,131.85,289.15,131.85,289.26z M125.68,288.52h5.23c-0.13-1.44-1.18-2.45-2.62-2.45
		C126.86,286.07,125.81,287.08,125.68,288.52z"/>
	<path class="st2" d="M139.94,285.27l-3.28,7.37h-1.02l-3.26-7.37h1.04l2.76,6.28l2.79-6.28H139.94z"/>
	<path class="st2" d="M147.54,289.26h-6.16c0.11,1.54,1.29,2.56,2.9,2.56c0.9,0,1.69-0.32,2.25-0.97l0.56,0.64
		c-0.66,0.78-1.68,1.21-2.84,1.21c-2.3,0-3.87-1.57-3.87-3.75c0-2.19,1.53-3.74,3.6-3.74c2.07,0,3.57,1.53,3.57,3.74
		C147.56,289.04,147.54,289.15,147.54,289.26z M141.38,288.52h5.23c-0.13-1.44-1.18-2.45-2.62-2.45
		C142.55,286.07,141.5,287.08,141.38,288.52z"/>
	<path class="st2" d="M149.58,282.24h0.99v10.39h-0.99V282.24z"/>
	<path class="st2" d="M152.6,288.96c0-2.19,1.6-3.74,3.75-3.74s3.74,1.55,3.74,3.74c0,2.18-1.58,3.75-3.74,3.75
		S152.6,291.14,152.6,288.96z M159.09,288.96c0-1.72-1.16-2.87-2.73-2.87s-2.75,1.15-2.75,2.87c0,1.72,1.18,2.87,2.75,2.87
		S159.09,290.68,159.09,288.96z"/>
	<path class="st2" d="M169.59,288.96c0,2.24-1.57,3.75-3.67,3.75c-1.18,0-2.19-0.51-2.8-1.46v4.1h-0.99v-10.09h0.95v1.46
		c0.6-0.98,1.62-1.51,2.84-1.51C168.02,285.22,169.59,286.73,169.59,288.96z M168.6,288.96c0-1.71-1.19-2.87-2.75-2.87
		c-1.57,0-2.75,1.16-2.75,2.87c0,1.72,1.18,2.87,2.75,2.87C167.41,291.83,168.6,290.68,168.6,288.96z"/>
	<path class="st2" d="M183.78,288.37v4.27h-0.99v-4.17c0-1.56-0.78-2.35-2.12-2.35c-1.51,0-2.47,0.98-2.47,2.66v3.87h-0.99v-4.17
		c0-1.56-0.78-2.35-2.13-2.35c-1.5,0-2.47,0.98-2.47,2.66v3.87h-0.99v-7.37h0.95v1.35c0.52-0.88,1.47-1.4,2.7-1.4
		c1.22,0,2.17,0.52,2.62,1.55c0.53-0.95,1.58-1.55,2.91-1.55C182.6,285.22,183.78,286.25,183.78,288.37z"/>
	<path class="st2" d="M192.91,289.26h-6.16c0.11,1.54,1.29,2.56,2.9,2.56c0.9,0,1.69-0.32,2.25-0.97l0.56,0.64
		c-0.66,0.78-1.68,1.21-2.84,1.21c-2.3,0-3.87-1.57-3.87-3.75c0-2.19,1.53-3.74,3.6-3.74c2.07,0,3.57,1.53,3.57,3.74
		C192.93,289.04,192.91,289.15,192.91,289.26z M186.75,288.52h5.23c-0.13-1.44-1.18-2.45-2.62-2.45
		C187.93,286.07,186.88,287.08,186.75,288.52z"/>
	<path class="st2" d="M201.73,288.37v4.27h-0.99v-4.17c0-1.56-0.81-2.35-2.21-2.35c-1.58,0-2.58,0.98-2.58,2.66v3.87h-0.99v-7.37
		h0.95v1.36c0.53-0.9,1.53-1.41,2.8-1.41C200.5,285.22,201.73,286.25,201.73,288.37z"/>
	<path class="st2" d="M208.31,292.19c-0.39,0.35-0.98,0.52-1.55,0.52c-1.39,0-2.16-0.79-2.16-2.14v-4.45h-1.32v-0.84h1.32v-1.61
		h0.99v1.61h2.24v0.84h-2.24v4.4c0,0.87,0.45,1.34,1.27,1.34c0.41,0,0.81-0.12,1.09-0.38L208.31,292.19z"/>
</g>
<g>
	<g>
		<g>
			<g>
				<g>
					<path class="st0" d="M17.51,141.39c0,4.56,3.69,8.25,8.25,8.25s8.25-3.69,8.25-8.25c0-4.56-3.69-8.25-8.25-8.25
						S17.51,136.84,17.51,141.39z"/>
				</g>
			</g>
		</g>
		<path class="st1" d="M1.01,141.39c0,13.67,11.08,24.75,24.75,24.75s24.75-11.08,24.75-24.75c0-13.67-11.08-24.75-24.75-24.75
			S1.01,127.72,1.01,141.39z M9.26,141.39c0-9.11,7.39-16.5,16.5-16.5c9.11,0,16.5,7.39,16.5,16.5c0,2.88-0.74,5.58-2.03,7.93
			l2.08,8.61l-8.61-2.08c-2.35,1.29-5.06,2.03-7.93,2.03C16.64,157.89,9.26,150.5,9.26,141.39z"/>
	</g>
</g>
<g>
	<path class="st2" d="M121.85,145.2v1.87h-8.77v-1.48l4.73-4.49c1.16-1.11,1.36-1.8,1.36-2.46c0-1.09-0.75-1.72-2.21-1.72
		c-1.16,0-2.12,0.39-2.79,1.24l-1.55-1.19c0.92-1.24,2.57-1.97,4.52-1.97c2.58,0,4.25,1.31,4.25,3.42c0,1.16-0.32,2.21-1.97,3.76
		l-3.18,3.03H121.85z"/>
	<path class="st2" d="M123.07,141.12c0-3.91,2.14-6.12,4.96-6.12c2.84,0,4.98,2.21,4.98,6.12c0,3.91-2.14,6.12-4.98,6.12
		C125.21,147.24,123.07,145.03,123.07,141.12z M130.79,141.12c0-2.87-1.12-4.2-2.75-4.2c-1.61,0-2.74,1.33-2.74,4.2
		c0,2.87,1.12,4.2,2.74,4.2C129.67,145.32,130.79,143.99,130.79,141.12z"/>
	<path class="st2" d="M143.05,145.2v1.87h-8.77v-1.48l4.73-4.49c1.16-1.11,1.36-1.8,1.36-2.46c0-1.09-0.75-1.72-2.21-1.72
		c-1.16,0-2.12,0.39-2.79,1.24l-1.55-1.19c0.92-1.24,2.57-1.97,4.52-1.97c2.58,0,4.25,1.31,4.25,3.42c0,1.16-0.32,2.21-1.97,3.76
		l-3.18,3.03H143.05z"/>
	<path class="st2" d="M152.77,143.5c0,2.01-1.51,3.74-4.71,3.74c-1.68,0-3.37-0.51-4.47-1.38l0.95-1.72
		c0.85,0.71,2.14,1.17,3.48,1.17c1.58,0,2.52-0.7,2.52-1.8c0-1.07-0.78-1.77-2.58-1.77h-1.09v-1.51l2.7-3.21h-5.41v-1.85h8.11v1.48
		l-2.89,3.43C151.63,140.38,152.77,141.72,152.77,143.5z"/>
	<path class="st2" d="M114.08,167.27h3.99c3.14,0,5.25,2.02,5.25,4.9c0,2.88-2.12,4.9-5.25,4.9h-3.99V167.27z M118.01,176.18
		c2.6,0,4.29-1.65,4.29-4.01c0-2.35-1.68-4.01-4.29-4.01h-2.9v8.01H118.01z"/>
	<path class="st2" d="M131.85,173.7h-6.16c0.11,1.54,1.29,2.56,2.9,2.56c0.9,0,1.69-0.32,2.25-0.97l0.56,0.64
		c-0.66,0.78-1.68,1.21-2.84,1.21c-2.3,0-3.87-1.57-3.87-3.75c0-2.19,1.53-3.74,3.6-3.74c2.07,0,3.57,1.53,3.57,3.74
		C131.86,173.47,131.85,173.58,131.85,173.7z M125.68,172.95h5.23c-0.13-1.44-1.18-2.45-2.62-2.45
		C126.86,170.5,125.81,171.51,125.68,172.95z"/>
	<path class="st2" d="M132.86,176.23l0.45-0.78c0.59,0.46,1.58,0.83,2.62,0.83c1.4,0,1.98-0.48,1.98-1.21
		c0-1.92-4.78-0.41-4.78-3.32c0-1.2,1.04-2.1,2.91-2.1c0.95,0,1.99,0.27,2.61,0.69l-0.43,0.8c-0.64-0.45-1.42-0.63-2.17-0.63
		c-1.33,0-1.92,0.52-1.92,1.22c0,1.99,4.78,0.49,4.78,3.32c0,1.27-1.12,2.1-3.04,2.1C134.64,177.14,133.47,176.75,132.86,176.23z"/>
	<path class="st2" d="M143.46,173.37l-1.74,1.6v2.1h-0.99v-10.39h0.99v7.05l4.4-4.02h1.23l-3.15,3.01l3.45,4.36h-1.22L143.46,173.37
		z"/>
	<path class="st2" d="M153.03,176.62c-0.39,0.35-0.98,0.52-1.55,0.52c-1.39,0-2.16-0.79-2.16-2.14v-4.45H148v-0.84h1.32v-1.61h0.99
		v1.61h2.24v0.84h-2.24v4.4c0,0.87,0.45,1.34,1.27,1.34c0.41,0,0.81-0.12,1.09-0.38L153.03,176.62z"/>
	<path class="st2" d="M153.82,173.39c0-2.19,1.6-3.74,3.75-3.74s3.74,1.55,3.74,3.74c0,2.18-1.58,3.75-3.74,3.75
		S153.82,175.57,153.82,173.39z M160.31,173.39c0-1.72-1.16-2.87-2.73-2.87s-2.75,1.15-2.75,2.87c0,1.72,1.18,2.87,2.75,2.87
		S160.31,175.11,160.31,173.39z"/>
	<path class="st2" d="M170.81,173.39c0,2.24-1.57,3.75-3.67,3.75c-1.18,0-2.19-0.51-2.8-1.46v4.1h-0.99V169.7h0.95v1.46
		c0.6-0.98,1.62-1.51,2.84-1.51C169.24,169.65,170.81,171.16,170.81,173.39z M169.81,173.39c0-1.71-1.19-2.87-2.75-2.87
		c-1.57,0-2.75,1.16-2.75,2.87c0,1.72,1.18,2.87,2.75,2.87C168.62,176.26,169.81,175.11,169.81,173.39z"/>
	<path class="st2" d="M184.87,167.27l-4.34,9.81h-1.02l-4.34-9.81h1.12l3.75,8.52l3.78-8.52H184.87z"/>
	<path class="st2" d="M188.75,167.27v9.81h-1.01v-8.91h-2.31v-0.9H188.75z"/>
	<path class="st2" d="M113.94,194.24c0-2.58,0.59-4.89,1.62-6.56h0.95c-1.11,1.92-1.6,4.06-1.6,6.56c0,2.49,0.49,4.64,1.6,6.55
		h-0.95C114.53,199.09,113.94,196.81,113.94,194.24z"/>
	<path class="st2" d="M117.74,196.88l0.41-0.8c0.7,0.69,1.95,1.19,3.24,1.19c1.83,0,2.63-0.77,2.63-1.74c0-2.69-6.04-1.04-6.04-4.67
		c0-1.44,1.12-2.69,3.61-2.69c1.11,0,2.26,0.32,3.04,0.87l-0.35,0.83c-0.84-0.54-1.82-0.81-2.69-0.81c-1.79,0-2.59,0.8-2.59,1.78
		c0,2.69,6.04,1.06,6.04,4.64c0,1.44-1.15,2.68-3.66,2.68C119.92,198.16,118.47,197.64,117.74,196.88z"/>
	<path class="st2" d="M126.34,194.39c0-2.19,1.6-3.74,3.75-3.74s3.74,1.55,3.74,3.74c0,2.18-1.58,3.75-3.74,3.75
		S126.34,196.57,126.34,194.39z M132.83,194.39c0-1.72-1.16-2.87-2.73-2.87s-2.75,1.15-2.75,2.87c0,1.72,1.18,2.87,2.75,2.87
		S132.83,196.11,132.83,194.39z"/>
	<path class="st2" d="M137,189.84v0.87h2.27v0.84h-2.24v6.53h-0.99v-6.53h-1.32v-0.84h1.32v-0.91c0-1.32,0.78-2.19,2.23-2.19
		c0.55,0,1.11,0.15,1.47,0.46l-0.34,0.74c-0.28-0.24-0.67-0.36-1.09-0.36C137.44,188.45,137,188.93,137,189.84z"/>
	<path class="st2" d="M144.49,197.62c-0.39,0.35-0.98,0.52-1.55,0.52c-1.39,0-2.16-0.79-2.16-2.14v-4.45h-1.32v-0.84h1.32v-1.61
		h0.99v1.61h2.24v0.84h-2.24v4.4c0,0.87,0.45,1.34,1.27,1.34c0.41,0,0.81-0.12,1.09-0.38L144.49,197.62z"/>
	<path class="st2" d="M150.17,188.27h1.04v8.91h5.49v0.9h-6.53V188.27z"/>
	<path class="st2" d="M163.79,193.51v4.57h-0.95v-1.15c-0.45,0.76-1.32,1.22-2.54,1.22c-1.67,0-2.69-0.87-2.69-2.14
		c0-1.13,0.73-2.09,2.84-2.09h2.34v-0.45c0-1.26-0.71-1.95-2.09-1.95c-0.95,0-1.85,0.34-2.45,0.87l-0.45-0.74
		c0.74-0.63,1.83-0.99,3-0.99C162.72,190.65,163.79,191.6,163.79,193.51z M162.8,195.86v-1.21h-2.31c-1.43,0-1.89,0.56-1.89,1.32
		c0,0.85,0.69,1.39,1.86,1.39C161.58,197.36,162.41,196.82,162.8,195.86z"/>
	<path class="st2" d="M173.13,190.7v7.37h-0.95v-1.35c-0.52,0.9-1.47,1.42-2.65,1.42c-1.88,0-3.11-1.05-3.11-3.17v-4.27h0.99v4.18
		c0,1.57,0.81,2.37,2.21,2.37c1.54,0,2.51-1,2.51-2.68v-3.87H173.13z"/>
	<path class="st2" d="M182.69,193.8v4.27h-0.99v-4.17c0-1.56-0.81-2.35-2.21-2.35c-1.58,0-2.58,0.98-2.58,2.66v3.87h-0.99v-7.37
		h0.95v1.36c0.53-0.9,1.53-1.41,2.8-1.41C181.46,190.65,182.69,191.68,182.69,193.8z"/>
	<path class="st2" d="M184.68,194.39c0-2.2,1.6-3.74,3.8-3.74c1.25,0,2.3,0.49,2.89,1.46l-0.74,0.5c-0.5-0.74-1.29-1.09-2.14-1.09
		c-1.61,0-2.79,1.15-2.79,2.87c0,1.74,1.18,2.87,2.79,2.87c0.85,0,1.64-0.34,2.14-1.08l0.74,0.5c-0.59,0.95-1.64,1.46-2.89,1.46
		C186.27,198.14,184.68,196.59,184.68,194.39z"/>
	<path class="st2" d="M199.97,193.8v4.27h-0.99v-4.17c0-1.56-0.81-2.35-2.21-2.35c-1.58,0-2.58,0.98-2.58,2.66v3.87h-0.99v-10.39
		h0.99v4.31c0.55-0.85,1.51-1.34,2.76-1.34C198.74,190.65,199.97,191.68,199.97,193.8z"/>
	<path class="st2" d="M201.84,200.79c1.12-1.92,1.61-4.06,1.61-6.55c0-2.49-0.49-4.64-1.61-6.56h0.95c1.05,1.67,1.64,3.98,1.64,6.56
		c0,2.58-0.59,4.86-1.64,6.55H201.84z"/>
</g>
<g>
	<g>
		<g>
			<g>
				<g>
					<path class="st2" d="M17.51,25.83c0,4.56,3.69,8.25,8.25,8.25S34,30.38,34,25.83c0-4.56-3.69-8.25-8.25-8.25
						S17.51,21.27,17.51,25.83z"/>
				</g>
			</g>
		</g>
		<path class="st2" d="M1.01,25.83c0,13.67,11.08,24.75,24.75,24.75S50.51,39.5,50.51,25.83S39.42,1.08,25.76,1.08
			S1.01,12.16,1.01,25.83z M9.26,25.83c0-9.11,7.39-16.5,16.5-16.5c9.11,0,16.5,7.39,16.5,16.5c0,2.88-0.74,5.58-2.03,7.93
			l2.08,8.61l-8.61-2.08c-2.35,1.29-5.06,2.03-7.93,2.03C16.64,42.32,9.26,34.94,9.26,25.83z"/>
	</g>
</g>
<g>
	<path class="st2" d="M121.85,29.64v1.87h-8.77v-1.48l4.73-4.49c1.16-1.11,1.36-1.8,1.36-2.46c0-1.09-0.75-1.72-2.21-1.72
		c-1.16,0-2.12,0.39-2.79,1.24l-1.55-1.19c0.92-1.24,2.57-1.97,4.52-1.97c2.58,0,4.25,1.31,4.25,3.42c0,1.16-0.32,2.21-1.97,3.76
		l-3.18,3.03H121.85z"/>
	<path class="st2" d="M123.07,25.56c0-3.91,2.14-6.12,4.96-6.12c2.84,0,4.98,2.21,4.98,6.12c0,3.91-2.14,6.12-4.98,6.12
		C125.21,31.68,123.07,29.47,123.07,25.56z M130.79,25.56c0-2.87-1.12-4.2-2.75-4.2c-1.61,0-2.74,1.33-2.74,4.2
		c0,2.87,1.12,4.2,2.74,4.2C129.67,29.75,130.79,28.43,130.79,25.56z"/>
	<path class="st2" d="M143.05,29.64v1.87h-8.77v-1.48l4.73-4.49c1.16-1.11,1.36-1.8,1.36-2.46c0-1.09-0.75-1.72-2.21-1.72
		c-1.16,0-2.12,0.39-2.79,1.24l-1.55-1.19c0.92-1.24,2.57-1.97,4.52-1.97c2.58,0,4.25,1.31,4.25,3.42c0,1.16-0.32,2.21-1.97,3.76
		l-3.18,3.03H143.05z"/>
	<path class="st2" d="M154.67,28.8h-2.11v2.7h-2.14v-2.7h-6.53v-1.53l5.86-7.67h2.36l-5.52,7.33h3.89v-2.4h2.07v2.4h2.11V28.8z"/>
	<path class="st2" d="M120.23,58.89h-5.46l-1.18,2.62h-1.08l4.48-9.81h1.02l4.48,9.81h-1.09L120.23,58.89z M119.85,58.05l-2.35-5.27
		l-2.35,5.27H119.85z"/>
	<path class="st2" d="M131.37,57.82c0,2.24-1.57,3.75-3.67,3.75c-1.18,0-2.19-0.51-2.8-1.46v4.1h-0.99V54.14h0.95v1.46
		c0.6-0.98,1.62-1.51,2.84-1.51C129.8,54.08,131.37,55.59,131.37,57.82z M130.38,57.82c0-1.71-1.19-2.87-2.75-2.87
		c-1.57,0-2.75,1.16-2.75,2.87c0,1.72,1.18,2.87,2.75,2.87C129.19,60.69,130.38,59.55,130.38,57.82z"/>
	<path class="st2" d="M140.86,57.82c0,2.24-1.57,3.75-3.67,3.75c-1.18,0-2.19-0.51-2.8-1.46v4.1h-0.99V54.14h0.95v1.46
		c0.6-0.98,1.62-1.51,2.84-1.51C139.29,54.08,140.86,55.59,140.86,57.82z M139.87,57.82c0-1.71-1.19-2.87-2.75-2.87
		c-1.57,0-2.75,1.16-2.75,2.87c0,1.72,1.18,2.87,2.75,2.87C138.68,60.69,139.87,59.55,139.87,57.82z"/>
	<path class="st2" d="M154.92,51.7l-4.34,9.81h-1.02l-4.34-9.81h1.12l3.75,8.52l3.78-8.52H154.92z"/>
	<path class="st2" d="M158.81,51.7v9.81h-1.01V52.6h-2.31v-0.9H158.81z"/>
	<path class="st2" d="M113.94,78.67c0-2.58,0.59-4.89,1.62-6.56h0.95c-1.11,1.92-1.6,4.06-1.6,6.56c0,2.49,0.49,4.64,1.6,6.55h-0.95
		C114.53,83.53,113.94,81.24,113.94,78.67z"/>
	<path class="st2" d="M126.36,76.06c0,2.09-1.51,3.35-4.01,3.35h-2.63v3.1h-1.04V72.7h3.67C124.85,72.7,126.36,73.96,126.36,76.06z
		 M125.32,76.06c0-1.57-1.04-2.47-3-2.47h-2.61v4.9h2.61C124.29,78.5,125.32,77.6,125.32,76.06z"/>
	<path class="st2" d="M135.16,75.14v7.37h-0.95v-1.35c-0.52,0.9-1.47,1.42-2.65,1.42c-1.88,0-3.11-1.05-3.11-3.17v-4.27h0.99v4.18
		c0,1.57,0.81,2.37,2.21,2.37c1.54,0,2.51-1,2.51-2.68v-3.87H135.16z"/>
	<path class="st2" d="M145.41,78.82c0,2.23-1.57,3.75-3.67,3.75c-1.22,0-2.24-0.53-2.84-1.53v1.46h-0.95V72.11h0.99v4.43
		c0.62-0.95,1.62-1.46,2.8-1.46C143.84,75.08,145.41,76.59,145.41,78.82z M144.42,78.82c0-1.72-1.19-2.87-2.75-2.87
		c-1.57,0-2.75,1.15-2.75,2.87c0,1.72,1.18,2.87,2.75,2.87C143.23,81.69,144.42,80.55,144.42,78.82z"/>
	<path class="st2" d="M147.44,72.11h0.99v10.39h-0.99V72.11z"/>
	<path class="st2" d="M150.98,72.81c0-0.38,0.32-0.7,0.73-0.7s0.73,0.31,0.73,0.69c0,0.41-0.31,0.73-0.73,0.73
		C151.3,73.53,150.98,73.21,150.98,72.81z M151.2,75.14h0.99v7.37h-0.99V75.14z"/>
	<path class="st2" d="M154.23,78.82c0-2.2,1.6-3.74,3.8-3.74c1.25,0,2.3,0.49,2.89,1.46l-0.74,0.5c-0.5-0.74-1.29-1.09-2.14-1.09
		c-1.61,0-2.79,1.15-2.79,2.87c0,1.74,1.18,2.87,2.79,2.87c0.85,0,1.64-0.34,2.14-1.08l0.74,0.5c-0.59,0.95-1.64,1.46-2.89,1.46
		C155.83,82.58,154.23,81.02,154.23,78.82z"/>
	<path class="st2" d="M166.73,72.7h1.04v8.91h5.49v0.9h-6.53V72.7z"/>
	<path class="st2" d="M180.36,77.94v4.57h-0.95v-1.15c-0.45,0.76-1.32,1.22-2.54,1.22c-1.67,0-2.69-0.87-2.69-2.14
		c0-1.13,0.73-2.09,2.84-2.09h2.34V77.9c0-1.26-0.71-1.95-2.09-1.95c-0.95,0-1.85,0.34-2.45,0.87l-0.45-0.74
		c0.74-0.63,1.84-0.99,3-0.99C179.28,75.08,180.36,76.03,180.36,77.94z M179.36,80.29v-1.21h-2.31c-1.43,0-1.89,0.56-1.89,1.32
		c0,0.85,0.69,1.39,1.86,1.39C178.14,81.79,178.97,81.26,179.36,80.29z"/>
	<path class="st2" d="M189.69,75.14v7.37h-0.95v-1.35c-0.52,0.9-1.47,1.42-2.65,1.42c-1.88,0-3.11-1.05-3.11-3.17v-4.27h0.99v4.18
		c0,1.57,0.81,2.37,2.21,2.37c1.54,0,2.51-1,2.51-2.68v-3.87H189.69z"/>
	<path class="st2" d="M199.26,78.23v4.27h-0.99v-4.17c0-1.56-0.81-2.35-2.21-2.35c-1.58,0-2.58,0.98-2.58,2.66v3.87h-0.99v-7.37
		h0.95v1.36c0.53-0.9,1.53-1.41,2.8-1.41C198.02,75.08,199.26,76.12,199.26,78.23z"/>
	<path class="st2" d="M201.24,78.82c0-2.2,1.6-3.74,3.8-3.74c1.25,0,2.3,0.49,2.89,1.46l-0.74,0.5c-0.5-0.74-1.29-1.09-2.14-1.09
		c-1.61,0-2.79,1.15-2.79,2.87c0,1.74,1.18,2.87,2.79,2.87c0.85,0,1.64-0.34,2.14-1.08l0.74,0.5c-0.59,0.95-1.64,1.46-2.89,1.46
		C202.84,82.58,201.24,81.02,201.24,78.82z"/>
	<path class="st2" d="M216.53,78.23v4.27h-0.99v-4.17c0-1.56-0.81-2.35-2.21-2.35c-1.58,0-2.58,0.98-2.58,2.66v3.87h-0.99V72.11
		h0.99v4.31c0.55-0.85,1.51-1.34,2.76-1.34C215.3,75.08,216.53,76.12,216.53,78.23z"/>
	<path class="st2" d="M218.4,85.22c1.12-1.92,1.61-4.06,1.61-6.55c0-2.49-0.49-4.64-1.61-6.56h0.95c1.05,1.67,1.64,3.98,1.64,6.56
		c0,2.58-0.59,4.86-1.64,6.55H218.4z"/>
</g>
<rect x="81.75" y="141.39" class="st0" width="2" height="231.13"/>
<rect x="81.75" y="25.83" class="st2" width="2" height="115.57"/>
<g>
	<g>
		<g>
			<g>
				<g>
					<path class="st0" d="M82.75,380.78c4.56,0,8.25-3.69,8.25-8.25s-3.69-8.25-8.25-8.25c-4.56,0-8.25,3.69-8.25,8.25
						S78.2,380.78,82.75,380.78z"/>
				</g>
			</g>
		</g>
	</g>
</g>
<g>
	<g>
		<g>
			<g>
				<g>
					<path class="st0" d="M82.75,265.21c4.56,0,8.25-3.69,8.25-8.25c0-4.56-3.69-8.25-8.25-8.25c-4.56,0-8.25,3.69-8.25,8.25
						C74.5,261.52,78.2,265.21,82.75,265.21z"/>
				</g>
			</g>
		</g>
	</g>
</g>
<g>
	<g>
		<g>
			<g>
				<g>
					<path class="st0" d="M82.75,149.64c4.56,0,8.25-3.69,8.25-8.25s-3.69-8.25-8.25-8.25c-4.56,0-8.25,3.69-8.25,8.25
						S78.2,149.64,82.75,149.64z"/>
				</g>
			</g>
		</g>
	</g>
</g>
<g>
	<g>
		<g>
			<g>
				<g>
					<path class="st2" d="M82.75,34.08c4.56,0,8.25-3.69,8.25-8.25s-3.69-8.25-8.25-8.25c-4.56,0-8.25,3.69-8.25,8.25
						S78.2,34.08,82.75,34.08z"/>
				</g>
			</g>
		</g>
	</g>
</g>
</svg>
