<?xml version="1.0" encoding="utf-8"?>
<!-- Generator: Adobe Illustrator 27.9.0, SVG Export Plug-In . SVG Version: 6.00 Build 0)  -->
<svg version="1.1" id="Layer_1" xmlns="http://www.w3.org/2000/svg" xmlns:xlink="http://www.w3.org/1999/xlink" x="0px" y="0px"
	 viewBox="0 0 640 164" style="enable-background:new 0 0 640 164;" xml:space="preserve">
<style type="text/css">
	.st0{fill:#00FFFF;}
	.st1{fill:#00C6FF;}
	.st2{fill:#FFFFFF;}
</style>
<g>
	<g>
		<g>
			<g>
				<g>
					<path class="st0" d="M22.63,25.59c0,4.56,3.69,8.25,8.25,8.25s8.25-3.69,8.25-8.25s-3.69-8.25-8.25-8.25
						S22.63,21.04,22.63,25.59z"/>
				</g>
			</g>
		</g>
		<path class="st1" d="M6.12,25.59c0,13.67,11.08,24.75,24.75,24.75s24.75-11.08,24.75-24.75S44.54,0.84,30.87,0.84
			S6.12,11.92,6.12,25.59z M14.38,25.59c0-9.11,7.39-16.5,16.5-16.5s16.5,7.39,16.5,16.5c0,2.88-0.74,5.58-2.03,7.93l2.08,8.61
			l-8.61-2.08c-2.35,1.29-5.06,2.03-7.93,2.03C21.76,42.09,14.38,34.7,14.38,25.59z"/>
	</g>
</g>
<g>
	<path class="st2" d="M19,74.57v1.87h-8.77v-1.48l4.73-4.49c1.16-1.1,1.36-1.8,1.36-2.46c0-1.09-0.75-1.72-2.21-1.72
		c-1.16,0-2.12,0.39-2.79,1.24l-1.55-1.19c0.92-1.24,2.57-1.97,4.52-1.97c2.58,0,4.25,1.31,4.25,3.42c0,1.16-0.32,2.21-1.97,3.76
		l-3.18,3.03L19,74.57L19,74.57z"/>
	<path class="st2" d="M20.22,70.49c0-3.91,2.14-6.12,4.96-6.12c2.84,0,4.98,2.21,4.98,6.12s-2.14,6.12-4.98,6.12
		C22.37,76.61,20.22,74.4,20.22,70.49z M27.94,70.49c0-2.87-1.12-4.2-2.75-4.2c-1.62,0-2.74,1.33-2.74,4.2c0,2.87,1.12,4.2,2.74,4.2
		C26.82,74.69,27.94,73.36,27.94,70.49z"/>
	<path class="st2" d="M40.2,74.57v1.87h-8.77v-1.48l4.73-4.49c1.16-1.1,1.36-1.8,1.36-2.46c0-1.09-0.75-1.72-2.21-1.72
		c-1.16,0-2.12,0.39-2.79,1.24l-1.55-1.19c0.92-1.24,2.57-1.97,4.52-1.97c2.58,0,4.25,1.31,4.25,3.42c0,1.16-0.32,2.21-1.97,3.76
		l-3.18,3.03L40.2,74.57L40.2,74.57z"/>
	<path class="st2" d="M41.42,70.49c0-3.91,2.14-6.12,4.96-6.12c2.84,0,4.98,2.21,4.98,6.12s-2.14,6.12-4.98,6.12
		C43.56,76.61,41.42,74.4,41.42,70.49z M49.14,70.49c0-2.87-1.12-4.2-2.75-4.2c-1.62,0-2.74,1.33-2.74,4.2c0,2.87,1.12,4.2,2.74,4.2
		C48.02,74.69,49.14,73.36,49.14,70.49z"/>
	<path class="st2" d="M1.9,131.54c0-2.87,2.18-4.99,5.14-4.99c1.43,0,2.72,0.48,3.59,1.43l-0.66,0.66c-0.8-0.81-1.78-1.16-2.9-1.16
		c-2.37,0-4.15,1.74-4.15,4.06s1.78,4.06,4.15,4.06c1.12,0,2.1-0.35,2.9-1.18l0.66,0.66c-0.87,0.95-2.16,1.44-3.6,1.44
		C4.08,136.53,1.9,134.41,1.9,131.54z"/>
	<path class="st2" d="M11.56,132.76c0-2.19,1.6-3.74,3.75-3.74s3.74,1.55,3.74,3.74c0,2.18-1.58,3.75-3.74,3.75
		S11.56,134.94,11.56,132.76z M18.04,132.76c0-1.72-1.16-2.87-2.73-2.87s-2.75,1.15-2.75,2.87s1.18,2.87,2.75,2.87
		C16.88,135.63,18.04,134.48,18.04,132.76z"/>
	<path class="st2" d="M27.86,132.17v4.27h-1v-4.17c0-1.56-0.81-2.35-2.21-2.35c-1.58,0-2.58,0.98-2.58,2.66v3.87h-1v-7.37h0.95v1.36
		c0.53-0.9,1.53-1.42,2.8-1.42C26.62,129.02,27.86,130.05,27.86,132.17z"/>
	<path class="st2" d="M29.84,132.76c0-2.2,1.6-3.74,3.8-3.74c1.25,0,2.3,0.49,2.89,1.46l-0.74,0.5c-0.5-0.74-1.29-1.09-2.14-1.09
		c-1.61,0-2.79,1.15-2.79,2.87c0,1.74,1.18,2.87,2.79,2.87c0.85,0,1.64-0.34,2.14-1.08l0.74,0.5c-0.59,0.95-1.64,1.46-2.89,1.46
		C31.44,136.51,29.84,134.96,29.84,132.76z"/>
	<path class="st2" d="M44.75,133.07h-6.16c0.11,1.54,1.29,2.56,2.9,2.56c0.9,0,1.69-0.32,2.25-0.97l0.56,0.64
		c-0.66,0.78-1.68,1.21-2.84,1.21c-2.3,0-3.87-1.57-3.87-3.75c0-2.19,1.53-3.74,3.6-3.74s3.57,1.53,3.57,3.74
		C44.77,132.84,44.75,132.95,44.75,133.07z M38.59,132.32h5.23c-0.13-1.44-1.18-2.45-2.62-2.45
		C39.77,129.87,38.72,130.88,38.59,132.32z"/>
	<path class="st2" d="M54.26,132.76c0,2.24-1.57,3.75-3.67,3.75c-1.18,0-2.18-0.5-2.8-1.46v4.1h-1v-10.09h0.95v1.46
		c0.6-0.98,1.62-1.51,2.84-1.51C52.69,129.02,54.26,130.53,54.26,132.76z M53.26,132.76c0-1.71-1.19-2.87-2.75-2.87
		c-1.57,0-2.75,1.16-2.75,2.87c0,1.72,1.18,2.87,2.75,2.87C52.07,135.63,53.26,134.48,53.26,132.76z"/>
	<path class="st2" d="M60.17,135.99c-0.39,0.35-0.98,0.52-1.55,0.52c-1.39,0-2.16-0.79-2.16-2.14v-4.45h-1.32v-0.84h1.32v-1.61h0.99
		v1.61h2.24v0.84h-2.24v4.4c0,0.87,0.45,1.34,1.28,1.34c0.41,0,0.81-0.13,1.09-0.38L60.17,135.99z"/>
</g>
<g>
	<g>
		<g>
			<g>
				<g>
					<path class="st0" d="M207.19,25.59c0,4.56,3.69,8.25,8.25,8.25s8.25-3.69,8.25-8.25s-3.69-8.25-8.25-8.25
						S207.19,21.04,207.19,25.59z"/>
				</g>
			</g>
		</g>
		<path class="st1" d="M190.69,25.59c0,13.67,11.08,24.75,24.75,24.75s24.75-11.08,24.75-24.75S229.11,0.84,215.44,0.84
			S190.69,11.92,190.69,25.59z M198.94,25.59c0-9.11,7.39-16.5,16.5-16.5s16.5,7.39,16.5,16.5c0,2.88-0.74,5.58-2.03,7.93l2.08,8.61
			l-8.61-2.08c-2.35,1.29-5.06,2.03-7.93,2.03C206.33,42.09,198.94,34.7,198.94,25.59z"/>
	</g>
</g>
<g>
	<path class="st2" d="M206.02,74.57v1.87h-8.77v-1.48l4.73-4.49c1.16-1.1,1.36-1.8,1.36-2.46c0-1.09-0.75-1.72-2.21-1.72
		c-1.16,0-2.12,0.39-2.79,1.24l-1.55-1.19c0.92-1.24,2.57-1.97,4.52-1.97c2.58,0,4.25,1.31,4.25,3.42c0,1.16-0.32,2.21-1.97,3.76
		l-3.18,3.03L206.02,74.57L206.02,74.57z"/>
	<path class="st2" d="M207.25,70.49c0-3.91,2.14-6.12,4.96-6.12c2.84,0,4.98,2.21,4.98,6.12s-2.14,6.12-4.98,6.12
		C209.39,76.61,207.25,74.4,207.25,70.49z M214.96,70.49c0-2.87-1.12-4.2-2.75-4.2c-1.61,0-2.74,1.33-2.74,4.2
		c0,2.87,1.12,4.2,2.74,4.2C213.84,74.69,214.96,73.36,214.96,70.49z"/>
	<path class="st2" d="M227.22,74.57v1.87h-8.77v-1.48l4.73-4.49c1.16-1.1,1.36-1.8,1.36-2.46c0-1.09-0.75-1.72-2.21-1.72
		c-1.16,0-2.12,0.39-2.79,1.24l-1.55-1.19c0.92-1.24,2.57-1.97,4.52-1.97c2.58,0,4.25,1.31,4.25,3.42c0,1.16-0.32,2.21-1.97,3.76
		l-3.18,3.03L227.22,74.57L227.22,74.57z"/>
	<path class="st2" d="M232.61,64.54v11.9h-2.21V66.4h-2.52v-1.85h4.73V64.54z"/>
	<path class="st2" d="M168.91,126.64h3.99c3.14,0,5.25,2.02,5.25,4.9c0,2.88-2.12,4.9-5.25,4.9h-3.99V126.64z M172.85,135.54
		c2.6,0,4.29-1.65,4.29-4.01c0-2.35-1.68-4.01-4.29-4.01h-2.9v8.01L172.85,135.54L172.85,135.54z"/>
	<path class="st2" d="M186.68,133.07h-6.16c0.11,1.54,1.29,2.56,2.9,2.56c0.9,0,1.69-0.32,2.25-0.97l0.56,0.64
		c-0.66,0.78-1.68,1.21-2.84,1.21c-2.3,0-3.87-1.57-3.87-3.75c0-2.19,1.53-3.74,3.6-3.74s3.57,1.53,3.57,3.74
		C186.7,132.84,186.68,132.95,186.68,133.07z M180.52,132.32h5.23c-0.13-1.44-1.18-2.45-2.62-2.45
		C181.7,129.87,180.65,130.88,180.52,132.32z"/>
	<path class="st2" d="M194.77,129.07l-3.28,7.37h-1.02l-3.26-7.37h1.04l2.76,6.28l2.79-6.28H194.77z"/>
	<path class="st2" d="M202.38,133.07h-6.16c0.11,1.54,1.29,2.56,2.9,2.56c0.9,0,1.69-0.32,2.25-0.97l0.56,0.64
		c-0.66,0.78-1.68,1.21-2.84,1.21c-2.3,0-3.87-1.57-3.87-3.75c0-2.19,1.53-3.74,3.6-3.74s3.57,1.53,3.57,3.74
		C202.39,132.84,202.38,132.95,202.38,133.07z M196.21,132.32h5.23c-0.13-1.44-1.18-2.45-2.62-2.45
		C197.39,129.87,196.34,130.88,196.21,132.32z"/>
	<path class="st2" d="M204.42,126.05h0.99v10.39h-0.99V126.05z"/>
	<path class="st2" d="M207.44,132.76c0-2.19,1.6-3.74,3.75-3.74s3.74,1.55,3.74,3.74c0,2.18-1.58,3.75-3.74,3.75
		S207.44,134.94,207.44,132.76z M213.93,132.76c0-1.72-1.16-2.87-2.73-2.87s-2.75,1.15-2.75,2.87s1.18,2.87,2.75,2.87
		S213.93,134.48,213.93,132.76z"/>
	<path class="st2" d="M224.43,132.76c0,2.24-1.57,3.75-3.67,3.75c-1.18,0-2.19-0.5-2.8-1.46v4.1h-0.99v-10.09h0.95v1.46
		c0.6-0.98,1.62-1.51,2.84-1.51C222.86,129.02,224.43,130.53,224.43,132.76z M223.43,132.76c0-1.71-1.19-2.87-2.75-2.87
		c-1.57,0-2.75,1.16-2.75,2.87c0,1.72,1.18,2.87,2.75,2.87C222.24,135.63,223.43,134.48,223.43,132.76z"/>
	<path class="st2" d="M238.61,132.17v4.27h-0.99v-4.17c0-1.56-0.78-2.35-2.12-2.35c-1.51,0-2.47,0.98-2.47,2.66v3.87h-0.99v-4.17
		c0-1.56-0.78-2.35-2.13-2.35c-1.5,0-2.47,0.98-2.47,2.66v3.87h-0.99v-7.37h0.95v1.34c0.52-0.88,1.47-1.4,2.7-1.4
		c1.22,0,2.17,0.52,2.62,1.55c0.53-0.95,1.58-1.55,2.91-1.55C237.43,129.02,238.61,130.05,238.61,132.17z"/>
	<path class="st2" d="M247.75,133.07h-6.16c0.11,1.54,1.29,2.56,2.9,2.56c0.9,0,1.69-0.32,2.25-0.97l0.56,0.64
		c-0.66,0.78-1.68,1.21-2.84,1.21c-2.3,0-3.87-1.57-3.87-3.75c0-2.19,1.53-3.74,3.6-3.74s3.57,1.53,3.57,3.74
		C247.76,132.84,247.75,132.95,247.75,133.07z M241.59,132.32h5.23c-0.13-1.44-1.18-2.45-2.62-2.45
		C242.76,129.87,241.71,130.88,241.59,132.32z"/>
	<path class="st2" d="M256.57,132.17v4.27h-0.99v-4.17c0-1.56-0.81-2.35-2.21-2.35c-1.58,0-2.58,0.98-2.58,2.66v3.87h-0.99v-7.37
		h0.95v1.36c0.53-0.9,1.53-1.42,2.8-1.42C255.34,129.02,256.57,130.05,256.57,132.17z"/>
	<path class="st2" d="M263.15,135.99c-0.39,0.35-0.98,0.52-1.56,0.52c-1.39,0-2.16-0.79-2.16-2.14v-4.45h-1.32v-0.84h1.32v-1.61
		h0.99v1.61h2.24v0.84h-2.24v4.4c0,0.87,0.45,1.34,1.27,1.34c0.41,0,0.81-0.13,1.09-0.38L263.15,135.99z"/>
</g>
<g>
	<g>
		<g>
			<g>
				<g>
					<path class="st0" d="M391.76,25.59c0,4.56,3.69,8.25,8.25,8.25s8.25-3.69,8.25-8.25s-3.69-8.25-8.25-8.25
						S391.76,21.04,391.76,25.59z"/>
				</g>
			</g>
		</g>
		<path class="st1" d="M375.26,25.59c0,13.67,11.08,24.75,24.75,24.75s24.75-11.08,24.75-24.75S413.68,0.84,400.01,0.84
			S375.26,11.92,375.26,25.59z M383.51,25.59c0-9.11,7.39-16.5,16.5-16.5s16.5,7.39,16.5,16.5c0,2.88-0.74,5.58-2.03,7.93l2.08,8.61
			l-8.61-2.08c-2.35,1.29-5.06,2.03-7.93,2.03C390.9,42.09,383.51,34.7,383.51,25.59z"/>
	</g>
</g>
<g>
	<path class="st2" d="M388.88,74.57v1.87h-8.77v-1.48l4.73-4.49c1.16-1.1,1.36-1.8,1.36-2.46c0-1.09-0.75-1.72-2.21-1.72
		c-1.16,0-2.12,0.39-2.79,1.24l-1.55-1.19c0.92-1.24,2.57-1.97,4.52-1.97c2.58,0,4.25,1.31,4.25,3.42c0,1.16-0.32,2.21-1.97,3.76
		l-3.18,3.03L388.88,74.57L388.88,74.57z"/>
	<path class="st2" d="M390.1,70.49c0-3.91,2.14-6.12,4.96-6.12c2.84,0,4.98,2.21,4.98,6.12s-2.14,6.12-4.98,6.12
		C392.25,76.61,390.1,74.4,390.1,70.49z M397.82,70.49c0-2.87-1.12-4.2-2.75-4.2c-1.62,0-2.74,1.33-2.74,4.2
		c0,2.87,1.12,4.2,2.74,4.2C396.7,74.69,397.82,73.36,397.82,70.49z"/>
	<path class="st2" d="M410.08,74.57v1.87h-8.77v-1.48l4.73-4.49c1.16-1.1,1.36-1.8,1.36-2.46c0-1.09-0.75-1.72-2.21-1.72
		c-1.16,0-2.12,0.39-2.79,1.24l-1.55-1.19c0.92-1.24,2.57-1.97,4.52-1.97c2.58,0,4.25,1.31,4.25,3.42c0,1.16-0.32,2.21-1.97,3.76
		l-3.18,3.03L410.08,74.57L410.08,74.57z"/>
	<path class="st2" d="M419.8,72.87c0,2.01-1.51,3.74-4.71,3.74c-1.68,0-3.37-0.51-4.47-1.38l0.95-1.72
		c0.85,0.71,2.14,1.17,3.49,1.17c1.58,0,2.52-0.7,2.52-1.8c0-1.07-0.78-1.77-2.58-1.77h-1.09V69.6l2.7-3.21h-5.41v-1.85h8.11v1.48
		l-2.89,3.43C418.66,69.74,419.8,71.09,419.8,72.87z"/>
	<path class="st2" d="M362.66,126.64h3.99c3.14,0,5.25,2.02,5.25,4.9c0,2.88-2.12,4.9-5.25,4.9h-3.99V126.64z M366.6,135.54
		c2.61,0,4.29-1.65,4.29-4.01c0-2.35-1.68-4.01-4.29-4.01h-2.9v8.01L366.6,135.54L366.6,135.54z"/>
	<path class="st2" d="M380.43,133.07h-6.16c0.11,1.54,1.29,2.56,2.9,2.56c0.9,0,1.7-0.32,2.25-0.97l0.56,0.64
		c-0.66,0.78-1.68,1.21-2.84,1.21c-2.3,0-3.87-1.57-3.87-3.75c0-2.19,1.53-3.74,3.6-3.74s3.57,1.53,3.57,3.74
		C380.45,132.84,380.43,132.95,380.43,133.07z M374.27,132.32h5.22c-0.13-1.44-1.18-2.45-2.62-2.45
		C375.45,129.87,374.4,130.88,374.27,132.32z"/>
	<path class="st2" d="M381.45,135.6l0.45-0.78c0.59,0.46,1.58,0.83,2.62,0.83c1.4,0,1.98-0.48,1.98-1.2c0-1.92-4.78-0.41-4.78-3.32
		c0-1.2,1.04-2.1,2.91-2.1c0.95,0,1.99,0.27,2.61,0.69l-0.43,0.8c-0.64-0.45-1.42-0.63-2.17-0.63c-1.33,0-1.92,0.52-1.92,1.22
		c0,1.99,4.78,0.49,4.78,3.32c0,1.27-1.12,2.1-3.04,2.1C383.23,136.51,382.05,136.12,381.45,135.6z"/>
	<path class="st2" d="M392.05,132.74l-1.74,1.6v2.1h-0.99v-10.39h0.99v7.05l4.4-4.02h1.23l-3.15,3.01l3.45,4.36h-1.22L392.05,132.74
		z"/>
	<path class="st2" d="M401.61,135.99c-0.39,0.35-0.98,0.52-1.55,0.52c-1.39,0-2.16-0.79-2.16-2.14v-4.45h-1.32v-0.84h1.32v-1.61
		h0.99v1.61h2.24v0.84h-2.24v4.4c0,0.87,0.45,1.34,1.28,1.34c0.41,0,0.81-0.13,1.09-0.38L401.61,135.99z"/>
	<path class="st2" d="M402.41,132.76c0-2.19,1.6-3.74,3.75-3.74s3.74,1.55,3.74,3.74c0,2.18-1.58,3.75-3.74,3.75
		S402.41,134.94,402.41,132.76z M408.89,132.76c0-1.72-1.16-2.87-2.73-2.87s-2.75,1.15-2.75,2.87s1.18,2.87,2.75,2.87
		C407.73,135.63,408.89,134.48,408.89,132.76z"/>
	<path class="st2" d="M419.4,132.76c0,2.24-1.57,3.75-3.67,3.75c-1.18,0-2.18-0.5-2.8-1.46v4.1h-1v-10.09h0.95v1.46
		c0.6-0.98,1.62-1.51,2.84-1.51C417.83,129.02,419.4,130.53,419.4,132.76z M418.4,132.76c0-1.71-1.19-2.87-2.75-2.87
		c-1.57,0-2.75,1.16-2.75,2.87c0,1.72,1.18,2.87,2.75,2.87C417.21,135.63,418.4,134.48,418.4,132.76z"/>
	<path class="st2" d="M433.45,126.64l-4.34,9.81h-1.02l-4.34-9.81h1.12l3.75,8.52l3.78-8.52H433.45z"/>
	<path class="st2" d="M437.34,126.64v9.81h-1.01v-8.91h-2.31v-0.9C434.02,126.64,437.34,126.64,437.34,126.64z"/>
	<path class="st2" d="M354.76,156.6c0-2.58,0.59-4.89,1.62-6.56h0.95c-1.11,1.92-1.6,4.06-1.6,6.56s0.49,4.64,1.6,6.56h-0.95
		C355.35,161.46,354.76,159.18,354.76,156.6z"/>
	<path class="st2" d="M358.57,159.25l0.41-0.8c0.7,0.69,1.95,1.19,3.24,1.19c1.83,0,2.63-0.77,2.63-1.74c0-2.69-6.04-1.04-6.04-4.67
		c0-1.44,1.12-2.69,3.61-2.69c1.11,0,2.26,0.32,3.04,0.87l-0.35,0.83c-0.84-0.55-1.82-0.81-2.69-0.81c-1.79,0-2.59,0.8-2.59,1.78
		c0,2.69,6.04,1.06,6.04,4.64c0,1.44-1.15,2.68-3.66,2.68C360.74,160.53,359.3,160.01,358.57,159.25z"/>
	<path class="st2" d="M367.16,156.76c0-2.19,1.6-3.74,3.75-3.74s3.74,1.55,3.74,3.74c0,2.18-1.58,3.75-3.74,3.75
		S367.16,158.94,367.16,156.76z M373.65,156.76c0-1.72-1.16-2.87-2.73-2.87s-2.75,1.15-2.75,2.87s1.18,2.87,2.75,2.87
		C372.49,159.63,373.65,158.48,373.65,156.76z"/>
	<path class="st2" d="M377.82,152.2v0.87h2.27v0.84h-2.24v6.53h-0.99v-6.53h-1.32v-0.84h1.32v-0.91c0-1.32,0.78-2.19,2.23-2.19
		c0.55,0,1.11,0.15,1.47,0.46l-0.34,0.74c-0.28-0.24-0.67-0.36-1.09-0.36C378.27,150.82,377.82,151.29,377.82,152.2z"/>
	<path class="st2" d="M385.31,159.99c-0.39,0.35-0.98,0.52-1.55,0.52c-1.39,0-2.16-0.79-2.16-2.14v-4.45h-1.32v-0.84h1.32v-1.61
		h0.99v1.61h2.24v0.84h-2.24v4.4c0,0.87,0.45,1.34,1.28,1.34c0.41,0,0.81-0.13,1.09-0.38L385.31,159.99z"/>
	<path class="st2" d="M390.99,150.64h1.04v8.91h5.49v0.9h-6.53V150.64z"/>
	<path class="st2" d="M404.62,155.87v4.57h-0.95v-1.15c-0.45,0.76-1.32,1.22-2.54,1.22c-1.67,0-2.69-0.87-2.69-2.14
		c0-1.13,0.73-2.09,2.84-2.09h2.34v-0.45c0-1.26-0.71-1.95-2.09-1.95c-0.95,0-1.85,0.34-2.45,0.87l-0.45-0.74
		c0.74-0.63,1.83-0.99,3-0.99C403.54,153.02,404.62,153.97,404.62,155.87z M403.62,158.23v-1.21h-2.31c-1.43,0-1.89,0.56-1.89,1.32
		c0,0.85,0.69,1.39,1.86,1.39C402.4,159.73,403.23,159.19,403.62,158.23z"/>
	<path class="st2" d="M413.96,153.07v7.37H413v-1.34c-0.52,0.9-1.47,1.42-2.65,1.42c-1.88,0-3.11-1.05-3.11-3.17v-4.27h0.99v4.17
		c0,1.57,0.81,2.37,2.21,2.37c1.54,0,2.51-1,2.51-2.68v-3.87H413.96z"/>
	<path class="st2" d="M423.52,156.17v4.27h-1v-4.17c0-1.56-0.81-2.35-2.21-2.35c-1.58,0-2.58,0.98-2.58,2.66v3.87h-1v-7.37h0.95
		v1.36c0.53-0.9,1.53-1.42,2.8-1.42C422.28,153.02,423.52,154.05,423.52,156.17z"/>
	<path class="st2" d="M425.5,156.76c0-2.2,1.6-3.74,3.8-3.74c1.25,0,2.3,0.49,2.89,1.46l-0.74,0.5c-0.5-0.74-1.29-1.09-2.14-1.09
		c-1.61,0-2.79,1.15-2.79,2.87c0,1.74,1.18,2.87,2.79,2.87c0.85,0,1.64-0.34,2.14-1.08l0.74,0.5c-0.59,0.95-1.64,1.46-2.89,1.46
		C427.1,160.51,425.5,158.96,425.5,156.76z"/>
	<path class="st2" d="M440.79,156.17v4.27h-0.99v-4.17c0-1.56-0.81-2.35-2.21-2.35c-1.58,0-2.58,0.98-2.58,2.66v3.87h-0.99v-10.39
		h0.99v4.31c0.55-0.85,1.51-1.34,2.76-1.34C439.56,153.02,440.79,154.05,440.79,156.17z"/>
	<path class="st2" d="M442.67,163.16c1.12-1.92,1.61-4.06,1.61-6.56s-0.49-4.64-1.61-6.56h0.95c1.05,1.67,1.64,3.98,1.64,6.56
		s-0.59,4.86-1.64,6.56H442.67z"/>
</g>
<g>
	<g>
		<g>
			<g>
				<g>
					<path class="st2" d="M576.32,25.59c0,4.56,3.69,8.25,8.25,8.25s8.25-3.69,8.25-8.25s-3.69-8.25-8.25-8.25
						S576.32,21.04,576.32,25.59z"/>
				</g>
			</g>
		</g>
		<path class="st2" d="M559.82,25.59c0,13.67,11.08,24.75,24.75,24.75s24.75-11.08,24.75-24.75S598.24,0.84,584.57,0.84
			S559.82,11.92,559.82,25.59z M568.08,25.59c0-9.11,7.39-16.5,16.5-16.5s16.5,7.39,16.5,16.5c0,2.88-0.74,5.58-2.03,7.93l2.08,8.61
			l-8.61-2.08c-2.35,1.29-5.06,2.03-7.93,2.03C575.46,42.09,568.08,34.7,568.08,25.59z"/>
	</g>
</g>
<g>
	<path class="st2" d="M572.75,74.57v1.87h-8.77v-1.48l4.73-4.49c1.16-1.1,1.36-1.8,1.36-2.46c0-1.09-0.75-1.72-2.21-1.72
		c-1.16,0-2.12,0.39-2.79,1.24l-1.55-1.19c0.92-1.24,2.57-1.97,4.52-1.97c2.58,0,4.25,1.31,4.25,3.42c0,1.16-0.32,2.21-1.97,3.76
		l-3.18,3.03L572.75,74.57L572.75,74.57z"/>
	<path class="st2" d="M573.97,70.49c0-3.91,2.14-6.12,4.96-6.12c2.84,0,4.98,2.21,4.98,6.12s-2.14,6.12-4.98,6.12
		C576.12,76.61,573.97,74.4,573.97,70.49z M581.69,70.49c0-2.87-1.12-4.2-2.75-4.2c-1.61,0-2.74,1.33-2.74,4.2
		c0,2.87,1.12,4.2,2.74,4.2C580.57,74.69,581.69,73.36,581.69,70.49z"/>
	<path class="st2" d="M593.95,74.57v1.87h-8.77v-1.48l4.73-4.49c1.16-1.1,1.36-1.8,1.36-2.46c0-1.09-0.75-1.72-2.21-1.72
		c-1.16,0-2.12,0.39-2.79,1.24l-1.55-1.19c0.92-1.24,2.57-1.97,4.52-1.97c2.58,0,4.25,1.31,4.25,3.42c0,1.16-0.32,2.21-1.97,3.76
		l-3.18,3.03L593.95,74.57L593.95,74.57z"/>
	<path class="st2" d="M605.58,73.74h-2.11v2.7h-2.14v-2.7h-6.53v-1.53l5.86-7.67h2.36l-5.52,7.33h3.89v-2.4h2.07v2.4h2.11v1.87
		H605.58z"/>
	<path class="st2" d="M568.35,133.82h-5.46l-1.18,2.62h-1.08l4.48-9.81h1.02l4.48,9.81h-1.09L568.35,133.82z M567.97,132.98
		l-2.35-5.27l-2.35,5.27H567.97z"/>
	<path class="st2" d="M579.5,132.76c0,2.24-1.57,3.75-3.67,3.75c-1.18,0-2.19-0.5-2.8-1.46v4.1h-1v-10.09h0.95v1.46
		c0.6-0.98,1.62-1.51,2.84-1.51C577.93,129.02,579.5,130.53,579.5,132.76z M578.5,132.76c0-1.71-1.19-2.87-2.75-2.87
		c-1.57,0-2.75,1.16-2.75,2.87c0,1.72,1.18,2.87,2.75,2.87C577.31,135.63,578.5,134.48,578.5,132.76z"/>
	<path class="st2" d="M588.99,132.76c0,2.24-1.57,3.75-3.67,3.75c-1.18,0-2.18-0.5-2.8-1.46v4.1h-0.99v-10.09h0.95v1.46
		c0.6-0.98,1.62-1.51,2.84-1.51C587.42,129.02,588.99,130.53,588.99,132.76z M587.99,132.76c0-1.71-1.19-2.87-2.75-2.87
		c-1.57,0-2.75,1.16-2.75,2.87c0,1.72,1.18,2.87,2.75,2.87C586.8,135.63,587.99,134.48,587.99,132.76z"/>
	<path class="st2" d="M603.04,126.64l-4.34,9.81h-1.02l-4.34-9.81h1.12l3.75,8.52l3.78-8.52H603.04z"/>
	<path class="st2" d="M606.93,126.64v9.81h-1.01v-8.91h-2.31v-0.9C603.61,126.64,606.93,126.64,606.93,126.64z"/>
	<path class="st2" d="M531.05,156.6c0-2.58,0.59-4.89,1.62-6.56h0.95c-1.11,1.92-1.6,4.06-1.6,6.56s0.49,4.64,1.6,6.56h-0.95
		C531.63,161.46,531.05,159.18,531.05,156.6z"/>
	<path class="st2" d="M543.47,154c0,2.09-1.51,3.35-4.01,3.35h-2.63v3.1h-1.04v-9.81h3.67C541.96,150.64,543.47,151.9,543.47,154z
		 M542.43,154c0-1.57-1.04-2.47-3-2.47h-2.61v4.9h2.61C541.4,156.44,542.43,155.54,542.43,154z"/>
	<path class="st2" d="M552.27,153.07v7.37h-0.95v-1.34c-0.52,0.9-1.47,1.42-2.65,1.42c-1.88,0-3.11-1.05-3.11-3.17v-4.27h0.99v4.17
		c0,1.57,0.81,2.37,2.21,2.37c1.54,0,2.51-1,2.51-2.68v-3.87H552.27z"/>
	<path class="st2" d="M562.52,156.76c0,2.23-1.57,3.75-3.67,3.75c-1.22,0-2.24-0.53-2.84-1.53v1.46h-0.95v-10.39h1v4.43
		c0.62-0.95,1.62-1.46,2.8-1.46C560.95,153.02,562.52,154.53,562.52,156.76z M561.53,156.76c0-1.72-1.19-2.87-2.75-2.87
		c-1.57,0-2.75,1.15-2.75,2.87s1.18,2.87,2.75,2.87C560.34,159.63,561.53,158.48,561.53,156.76z"/>
	<path class="st2" d="M564.55,150.05h0.99v10.39h-0.99V150.05z"/>
	<path class="st2" d="M568.09,150.75c0-0.38,0.32-0.7,0.73-0.7s0.73,0.31,0.73,0.69c0,0.41-0.31,0.73-0.73,0.73
		C568.41,151.46,568.09,151.14,568.09,150.75z M568.31,153.07h1v7.37h-1V153.07z"/>
	<path class="st2" d="M571.34,156.76c0-2.2,1.6-3.74,3.8-3.74c1.25,0,2.3,0.49,2.89,1.46l-0.74,0.5c-0.5-0.74-1.29-1.09-2.14-1.09
		c-1.61,0-2.79,1.15-2.79,2.87c0,1.74,1.18,2.87,2.79,2.87c0.85,0,1.64-0.34,2.14-1.08l0.74,0.5c-0.59,0.95-1.64,1.46-2.89,1.46
		C572.93,160.51,571.34,158.96,571.34,156.76z"/>
	<path class="st2" d="M583.84,150.64h1.04v8.91h5.49v0.9h-6.53L583.84,150.64L583.84,150.64z"/>
	<path class="st2" d="M597.46,155.87v4.57h-0.95v-1.15c-0.45,0.76-1.32,1.22-2.54,1.22c-1.67,0-2.69-0.87-2.69-2.14
		c0-1.13,0.73-2.09,2.84-2.09h2.34v-0.45c0-1.26-0.71-1.95-2.09-1.95c-0.95,0-1.85,0.34-2.45,0.87l-0.45-0.74
		c0.74-0.63,1.83-0.99,3-0.99C596.39,153.02,597.46,153.97,597.46,155.87z M596.47,158.23v-1.21h-2.31c-1.43,0-1.89,0.56-1.89,1.32
		c0,0.85,0.69,1.39,1.86,1.39C595.25,159.73,596.08,159.19,596.47,158.23z"/>
	<path class="st2" d="M606.8,153.07v7.37h-0.95v-1.34c-0.52,0.9-1.47,1.42-2.65,1.42c-1.88,0-3.11-1.05-3.11-3.17v-4.27h0.99v4.17
		c0,1.57,0.81,2.37,2.21,2.37c1.54,0,2.51-1,2.51-2.68v-3.87H606.8z"/>
	<path class="st2" d="M616.37,156.17v4.27h-1v-4.17c0-1.56-0.81-2.35-2.21-2.35c-1.58,0-2.58,0.98-2.58,2.66v3.87h-1v-7.37h0.95
		v1.36c0.53-0.9,1.53-1.42,2.8-1.42C615.13,153.02,616.37,154.05,616.37,156.17z"/>
	<path class="st2" d="M618.35,156.76c0-2.2,1.6-3.74,3.8-3.74c1.25,0,2.3,0.49,2.88,1.46l-0.74,0.5c-0.5-0.74-1.29-1.09-2.14-1.09
		c-1.61,0-2.79,1.15-2.79,2.87c0,1.74,1.18,2.87,2.79,2.87c0.85,0,1.64-0.34,2.14-1.08l0.74,0.5c-0.59,0.95-1.64,1.46-2.88,1.46
		C619.95,160.51,618.35,158.96,618.35,156.76z"/>
	<path class="st2" d="M633.64,156.17v4.27h-1v-4.17c0-1.56-0.81-2.35-2.21-2.35c-1.58,0-2.58,0.98-2.58,2.66v3.87h-1v-10.39h1v4.31
		c0.55-0.85,1.51-1.34,2.76-1.34C632.41,153.02,633.64,154.05,633.64,156.17z"/>
	<path class="st2" d="M635.51,163.16c1.12-1.92,1.61-4.06,1.61-6.56s-0.49-4.64-1.61-6.56h0.95c1.05,1.67,1.64,3.98,1.64,6.56
		s-0.59,4.86-1.64,6.56H635.51z"/>
</g>
<rect x="30.87" y="101.39" class="st0" width="369.13" height="2"/>
<rect x="400.01" y="101.39" class="st2" width="184.57" height="2"/>
<g>
	<g>
		<g>
			<g>
				<g>
					<path class="st0" d="M22.63,102.39c0,4.56,3.69,8.25,8.25,8.25s8.25-3.69,8.25-8.25s-3.69-8.25-8.25-8.25
						S22.63,97.84,22.63,102.39z"/>
				</g>
			</g>
		</g>
	</g>
</g>
<g>
	<g>
		<g>
			<g>
				<g>
					<path class="st0" d="M207.19,102.39c0,4.56,3.69,8.25,8.25,8.25s8.25-3.69,8.25-8.25s-3.69-8.25-8.25-8.25
						S207.19,97.84,207.19,102.39z"/>
				</g>
			</g>
		</g>
	</g>
</g>
<g>
	<g>
		<g>
			<g>
				<g>
					<path class="st0" d="M391.76,102.39c0,4.56,3.69,8.25,8.25,8.25s8.25-3.69,8.25-8.25s-3.69-8.25-8.25-8.25
						S391.76,97.84,391.76,102.39z"/>
				</g>
			</g>
		</g>
	</g>
</g>
<g>
	<g>
		<g>
			<g>
				<g>
					<path class="st2" d="M576.32,102.39c0,4.56,3.69,8.25,8.25,8.25s8.25-3.69,8.25-8.25s-3.69-8.25-8.25-8.25
						S576.32,97.84,576.32,102.39z"/>
				</g>
			</g>
		</g>
	</g>
</g>
</svg>
